<svg height="512" viewBox="0 0 64 64" width="512" xmlns="http://www.w3.org/2000/svg"><g id="Filled_outline" data-name="Filled outline"><path d="m61 17a7 7 0 0 0 -7-7 6.917 6.917 0 0 0 -6 3c-7.491-6.56-16-2-16-2s-8.509-4.56-16 2a6.917 6.917 0 0 0 -6-3 7 7 0 0 0 -7 7c0 3.459 2.7 7.434 6 8-4.326 9.352-3.021 13.979 2 19 6 6 19 8 21 10 2-2 15-4 21-10 5.021-5.021 6.326-9.648 2-19 3.3-.566 6-4.541 6-8z" fill="#995f5b"/><path d="m14.253 15.686a3.992 3.992 0 1 0 -3.58 6.281c1.073-1.93 2.467-4.407 3.58-6.281z" fill="#66342e"/><path d="m49.747 15.686a3.992 3.992 0 1 1 3.58 6.281c-1.073-1.93-2.467-4.407-3.58-6.281z" fill="#66342e"/><path d="m44.021 21c-3.035-1.518-5.491 2.142-6.5 4a8.622 8.622 0 0 0 -11.021-.013c-1.014-1.86-3.466-5.5-6.5-3.987-3.79 1.895-3.083 8.276 2.106 12.344a14.516 14.516 0 0 0 -.106 1.656c0 6.627 4.477 12 10 12s10-5.373 10-12a14.516 14.516 0 0 0 -.1-1.642c5.2-4.067 5.916-10.458 2.121-12.358z" fill="#ceac9a"/><path d="m35 30h-6l-.548.821a2 2 0 0 0 1.032 3.007l.516.172 2 6 2-6 .516-.172a2 2 0 0 0 1.032-3.007z" fill="#301a12"/><path d="m11 13a4.99 4.99 0 0 0 -.409 9.964h.082a1 1 0 0 0 .874-.514c1-1.8 2.428-4.34 3.565-6.257a1 1 0 0 0 -.046-1.092 5.011 5.011 0 0 0 -4.066-2.101zm-.854 7.858a2.961 2.961 0 0 1 -2.146-2.858 2.991 2.991 0 0 1 5.025-2.2c-.944 1.61-2.025 3.52-2.879 5.058z"/><path d="m54 9a8.184 8.184 0 0 0 -6.167 2.569c-6.674-5.135-13.933-2.507-15.833-1.669-1.9-.834-9.159-3.46-15.833 1.673a8.184 8.184 0 0 0 -6.167-2.573 8.009 8.009 0 0 0 -8 8c0 3.31 2.251 7.345 5.613 8.647-3.652 8.4-2.9 13.481 2.68 19.06 3.971 3.972 10.726 6.213 15.657 7.85 2.349.779 4.778 1.586 5.343 2.15a1 1 0 0 0 1.414 0c.565-.564 2.994-1.371 5.343-2.15 4.931-1.637 11.686-3.878 15.657-7.85 5.579-5.579 6.332-10.656 2.68-19.06 3.362-1.302 5.613-5.337 5.613-8.647a8.009 8.009 0 0 0 -8-8zm.831 15.015a1 1 0 0 0 -.739 1.405c4.3 9.289 2.766 13.308-1.8 17.873-3.637 3.637-10.131 5.792-14.874 7.365a31.31 31.31 0 0 0 -5.418 2.101 31.31 31.31 0 0 0 -5.419-2.1c-4.743-1.573-11.237-3.728-14.874-7.365-4.565-4.565-6.1-8.584-1.8-17.873a1 1 0 0 0 -.739-1.405c-2.656-.458-5.168-3.867-5.168-7.016a6.006 6.006 0 0 1 6-6 5.885 5.885 0 0 1 5.155 2.535 1 1 0 0 0 .7.454.985.985 0 0 0 .8-.237c6.862-6.009 14.548-2.042 14.869-1.87a1.009 1.009 0 0 0 .943 0c.323-.172 8.008-4.14 14.87 1.869a.978.978 0 0 0 .8.237 1 1 0 0 0 .7-.454 5.885 5.885 0 0 1 5.163-2.534 6.006 6.006 0 0 1 6 6c0 3.149-2.512 6.558-5.169 7.015z"/><path d="m53 13a5.011 5.011 0 0 0 -4.066 2.1 1 1 0 0 0 -.046 1.092c1.137 1.917 2.567 4.46 3.565 6.257a1 1 0 0 0 .874.514h.082a4.99 4.99 0 0 0 -.409-9.963zm.854 7.858c-.854-1.538-1.935-3.448-2.879-5.058a2.991 2.991 0 0 1 5.025 2.2 2.961 2.961 0 0 1 -2.146 2.858z"/><path d="m44.468 20.105c-2.489-1.243-5.1.009-7.258 3.444a9.668 9.668 0 0 0 -10.4-.01c-2.163-3.426-4.772-4.677-7.253-3.434a5.345 5.345 0 0 0 -2.913 4.44c-.314 3.11 1.408 6.683 4.417 9.233-.043.437-.061.834-.061 1.222 0 7.168 4.935 13 11 13s11-5.832 11-13c0-.381-.018-.773-.055-1.207 3.018-2.55 4.748-6.126 4.437-9.243a5.348 5.348 0 0 0 -2.914-4.445zm-3.188 12.464a1 1 0 0 0 -.378.9 13.278 13.278 0 0 1 .098 1.531c0 6.065-4.038 11-9 11s-9-4.935-9-11a13.219 13.219 0 0 1 .1-1.541 1 1 0 0 0 -.377-.9c-2.748-2.155-4.355-5.22-4.094-7.811a3.407 3.407 0 0 1 1.818-2.848 2.148 2.148 0 0 1 .975-.239c1.888 0 3.516 2.565 4.2 3.809a1 1 0 0 0 .679.5 1.021 1.021 0 0 0 .821-.2 7.735 7.735 0 0 1 9.78.01 1 1 0 0 0 1.5-.3c.793-1.457 2.884-4.724 5.176-3.581a3.405 3.405 0 0 1 1.818 2.854c.255 2.593-1.358 5.662-4.116 7.816z"/><circle cx="41.5" cy="26.5" r="1.5"/><circle cx="22.5" cy="26.5" r="1.5"/><path d="m35.832 29.445a1 1 0 0 0 -.832-.445h-6a1 1 0 0 0 -.832.445l-.547.822a3 3 0 0 0 1.547 4.51l1.883 5.539a1 1 0 0 0 1.9 0l1.842-5.525.042-.015a3 3 0 0 0 1.546-4.509zm-1 2.811a.99.99 0 0 1 -.629.623l-.516.172a1 1 0 0 0 -.633.633l-1.054 3.154-1.051-3.154a1 1 0 0 0 -.633-.633l-.516-.171a1 1 0 0 1 -.515-1.5l.25-.376h4.93l.25.376a.992.992 0 0 1 .114.876z"/><path d="m12.77 27.638-1.538-1.279a11.79 11.79 0 0 0 -.046 14.222l1.628-1.162a9.64 9.64 0 0 1 -.044-11.781z"/><path d="m51.23 27.638a9.64 9.64 0 0 1 -.044 11.781l1.628 1.162a11.79 11.79 0 0 0 -.046-14.222z"/></g></svg>