<svg height="512" viewBox="0 0 64 64" width="512" xmlns="http://www.w3.org/2000/svg"><g id="Filled_outline" data-name="Filled outline"><path d="m57 32-7-15a7.039 7.039 0 0 0 -1-14c-4.459 0-6.27 2.914-7 6-5.171-2.634-7.39-3-10-3s-4.829.366-10 3c-.73-3.086-2.541-6-7-6a7.039 7.039 0 0 0 -1 14l-7 15s-1 8 4 13l9 9 1-3 4 8 4-2 3 4 3-4 4 2 4-8 1 3 9-9c5-5 4-13 4-13z" fill="#66342e"/><path d="m34.779 27.336-.879-2.644a2 2 0 0 0 -3.794 0l-.882 2.644a12 12 0 1 0 5.558 0z" fill="#f9bb4b"/><path d="m38 34a6.387 6.387 0 0 1 -6 6 6.387 6.387 0 0 1 -6-6c0-2.761 2.686-4 6-4s6 1.239 6 4z" fill="#301a12"/><path d="m29 34h2v2h-2z"/><path d="m33 34h2v2h-2z"/><path d="m19 11c-.365-1.833-1.06-4-3-4a4 4 0 0 0 -4 4c0 1.928 2.184 2.622 4 3 .92-1.352.691-1.441 3-3z" fill="#ad6327"/><path d="m45 11c.365-1.833 1.06-4 3-4a4 4 0 0 1 4 4c0 1.928-2.184 2.622-4 3-.92-1.352-.691-1.441-3-3z" fill="#ad6327"/><path d="m16 15a1 1 0 0 0 .827-.438c.171-.25.3-.459.42-.643.462-.73.587-.926 2.313-2.09a1 1 0 0 0 .421-1.024c-.237-1.189-.958-4.805-3.981-4.805a5.006 5.006 0 0 0 -5 5c0 2.981 3.484 3.706 4.8 3.979a1.017 1.017 0 0 0 .2.021zm-.456-2.131c-2.238-.569-2.544-1.291-2.544-1.869a3 3 0 0 1 3-3c.546 0 1.314.28 1.877 2.557a6.512 6.512 0 0 0 -2.319 2.291z"/><path d="m57.906 31.577s-4.852-10.4-6.477-13.879a8.044 8.044 0 0 0 -2.429-15.698 7.529 7.529 0 0 0 -7.63 5.568c-4.429-2.155-6.695-2.568-9.37-2.568s-4.941.413-9.37 2.568a7.529 7.529 0 0 0 -7.63-5.568 8.044 8.044 0 0 0 -2.429 15.7c-1.625 3.481-6.477 13.879-6.477 13.879a1.006 1.006 0 0 0 -.086.3c-.044.347-1 8.546 4.285 13.831l9 9a1 1 0 0 0 1.656-.391l.236-.71 2.92 5.841a1 1 0 0 0 1.342.448l3.253-1.63 2.5 3.332a1 1 0 0 0 1.6 0l2.5-3.332 3.253 1.632a1 1 0 0 0 1.342-.448l2.92-5.841.236.71a1 1 0 0 0 1.656.391l9-9c5.285-5.285 4.329-13.484 4.285-13.831a1.006 1.006 0 0 0 -.086-.304zm-5.613 12.716-7.856 7.855-.488-1.464a1 1 0 0 0 -1.844-.131l-3.552 7.105-3.106-1.553a1 1 0 0 0 -1.247.3l-2.2 2.928-2.2-2.933a1 1 0 0 0 -1.247-.3l-3.106 1.553-3.547-7.1a1 1 0 0 0 -1.844.131l-.488 1.464-7.856-7.855c-4.229-4.23-3.824-10.95-3.729-12.023l6.93-14.851a1 1 0 0 0 -.771-1.409 6.039 6.039 0 0 1 .858-12.01c3.222 0 5.194 1.711 6.027 5.23a1 1 0 0 0 1.427.661c5.269-2.684 7.28-2.891 9.546-2.891s4.277.207 9.546 2.891a1 1 0 0 0 1.427-.661c.833-3.519 2.805-5.23 6.027-5.23a6.039 6.039 0 0 1 .863 12.01 1 1 0 0 0 -.771 1.409l6.93 14.851c.095 1.073.5 7.793-3.729 12.023z"/><path d="m44.44 11.829c1.726 1.164 1.851 1.36 2.313 2.09.117.184.249.393.42.643a1 1 0 0 0 .827.438 1.017 1.017 0 0 0 .2-.021c1.312-.273 4.8-1 4.8-3.979a5.006 5.006 0 0 0 -5-5c-3.023 0-3.744 3.616-3.981 4.805a1 1 0 0 0 .421 1.024zm3.56-3.829a3 3 0 0 1 3 3c0 .578-.306 1.3-2.544 1.869l-.014-.021a6.512 6.512 0 0 0 -2.319-2.291c.563-2.277 1.331-2.557 1.877-2.557z"/><path d="m35.556 26.505-.71-2.129a3 3 0 0 0 -5.692 0l-.71 2.13a12.994 12.994 0 0 0 3.043 25.484c.174.007.346.01.519.01a12.995 12.995 0 0 0 3.55-25.495zm4.07 20.423a10.915 10.915 0 0 1 -8.062 3.064 10.995 10.995 0 0 1 -2.111-21.683 1 1 0 0 0 .717-.657l.881-2.643a1 1 0 0 1 1.9 0l.881 2.643a1 1 0 0 0 .718.657 10.992 10.992 0 0 1 5.078 18.619z"/><path d="m29 34h2v2h-2z"/><path d="m33 34h2v2h-2z"/><path d="m35.779 44.771a3.854 3.854 0 0 1 -2.779-1.223v-2.639a7.469 7.469 0 0 0 6-6.909c0-3.084-2.682-5-7-5s-7 1.916-7 5a7.469 7.469 0 0 0 6 6.909v2.639a3.915 3.915 0 0 1 -2.764 1.224 3.8 3.8 0 0 1 -2.436-1.372l-1.6 1.2a5.8 5.8 0 0 0 3.88 2.167c.111.007.223.011.334.011a5.643 5.643 0 0 0 3.586-1.436 5.643 5.643 0 0 0 3.586 1.436c.111 0 .223 0 .334-.011a5.8 5.8 0 0 0 3.88-2.167l-1.6-1.2a3.792 3.792 0 0 1 -2.421 1.371zm-8.779-10.771c0-2.783 3.827-3 5-3s5 .217 5 3a5.419 5.419 0 0 1 -5 5 5.419 5.419 0 0 1 -5-5z"/><circle cx="41" cy="22" r="2"/><circle cx="23" cy="22" r="2"/><path d="m13.949 40.684-1.9.632c1.081 3.244 6.111 7.294 6.324 7.465l1.25-1.562c-1.323-1.061-4.931-4.304-5.674-6.535z"/><path d="m44.375 47.22 1.25 1.561c.213-.171 5.243-4.221 6.324-7.465l-1.9-.632c-.74 2.227-4.349 5.472-5.674 6.536z"/></g></svg>