<?xml version="1.0" encoding="UTF-8"?>
<svg xmlns="http://www.w3.org/2000/svg" viewBox="0 0 64 64" width="512" height="512"><g id="Filled_outline" data-name="Filled outline"><path d="M50,16a10.96,10.96,0,0,0-8.149,3.63,19.642,19.642,0,0,0-6.781-2.383C35.3,15.527,36,12,36,12a14.093,14.093,0,0,0-5,3l-1-2c-1.623.811-2.587,3.6-2.893,4.62a19.666,19.666,0,0,0-4.958,2.01A10.988,10.988,0,0,0,3,27v3l2,8,2-2,3,5,3-3-.053-.053c.109.01.222.009.332.017C14.774,46.491,22.575,53,32,53s17.226-6.509,18.721-15.036c.11-.008.223-.007.332-.017L51,38l3,3,3-5,2,2,2-8V27A11,11,0,0,0,50,16Z" style="fill:#aabece"/><path d="M14.6,33.97l5.761-9.877A7,7,0,1,0,14,34C14.2,34,14.4,33.987,14.6,33.97Z" style="fill:#5a6470"/><path d="M49.4,33.97l-5.761-9.877A7,7,0,1,1,50,34C49.8,34,49.6,33.987,49.4,33.97Z" style="fill:#5a6470"/><path d="M36,37c0,2.761-1.791,6-4,6s-4-3.239-4-6a3.689,3.689,0,0,1,4-4A3.689,3.689,0,0,1,36,37Z" style="fill:#394d5c"/><path d="M21.271,23.678A8,8,0,1,0,14,35c.231,0,.458-.015.684-.034a1,1,0,0,0,.78-.492L21.226,24.6A1,1,0,0,0,21.271,23.678ZM14.009,33H14a6,6,0,1,1,5.224-8.939Z"/><path d="M50,19a8.018,8.018,0,0,0-7.271,4.678,1,1,0,0,0,.045.92l5.762,9.876a1,1,0,0,0,.78.492c.226.019.453.034.684.034a8,8,0,0,0,0-16Zm0,14h-.009l-5.215-8.939A6,6,0,1,1,50,33Z"/><path d="M50,15a12.009,12.009,0,0,0-8.335,3.386,20.551,20.551,0,0,0-5.463-1.95c.286-1.773.773-4.21.778-4.24a1,1,0,0,0-1.3-1.144,15.109,15.109,0,0,0-4.361,2.358l-.428-.857a1,1,0,0,0-1.342-.448c-1.678.839-2.7,3.112-3.234,4.692a20.645,20.645,0,0,0-3.984,1.589A11.986,11.986,0,0,0,2,27v3a.984.984,0,0,0,.03.242l2,8a1,1,0,0,0,1.677.465L6.8,37.612l2.341,3.9a1,1,0,0,0,1.564.192l1.947-1.947C14.9,48.1,22.779,54,32,54s17.1-5.9,19.346-14.24l1.947,1.947a1.013,1.013,0,0,0,.829.285,1,1,0,0,0,.735-.477l2.341-3.9,1.095,1.095a1,1,0,0,0,1.677-.465l2-8A.984.984,0,0,0,62,30V27A12.013,12.013,0,0,0,50,15ZM60,29.877l-1.542,6.167-.751-.751a1,1,0,0,0-1.564.192l-2.341,3.9-1.827-1.827-.016-.038a.993.993,0,0,0-1-.572l-.314.016a1,1,0,0,0-.915.824C48.293,46.024,40.834,52,32,52S15.707,46.024,14.265,37.791a1,1,0,0,0-.915-.824l-.314-.016c-.027,0-.055,0-.081,0a.985.985,0,0,0-.854.538l-1.9,1.9-2.341-3.9a1,1,0,0,0-.735-.477,1.015,1.015,0,0,0-.829.285l-.751.751L4,29.877V27a9.988,9.988,0,0,1,17.407-6.7,1,1,0,0,0,1.24.2,18.689,18.689,0,0,1,4.707-1.907,1,1,0,0,0,.71-.682,10.336,10.336,0,0,1,1.6-3.341l.44.881a1,1,0,0,0,1.6.261,13.2,13.2,0,0,1,2.958-2.061c-.213,1.136-.465,2.545-.585,3.47a1,1,0,0,0,.836,1.118A18.608,18.608,0,0,1,41.353,20.5a1,1,0,0,0,1.24-.2A9.988,9.988,0,0,1,60,27Z"/><path d="M37,37a4.686,4.686,0,0,0-5-5,4.686,4.686,0,0,0-5,5c0,2.906,1.655,6.112,4,6.844V45H27v2H37V45H33V43.844C35.345,43.112,37,39.906,37,37Zm-5,5c-1.458,0-3-2.57-3-5a2.719,2.719,0,0,1,3-3,2.719,2.719,0,0,1,3,3C35,39.43,33.458,42,32,42Z"/><circle cx="39" cy="32" r="2"/><circle cx="25" cy="32" r="2"/><rect x="17.586" y="39" width="2.828" height="2" transform="translate(-22.719 25.151) rotate(-45)"/><rect x="21.586" y="39" width="2.828" height="2" transform="translate(-21.548 27.979) rotate(-45)"/><rect x="39.586" y="39" width="2.828" height="2" transform="translate(-16.276 40.707) rotate(-45)"/><rect x="43.586" y="39" width="2.828" height="2" transform="translate(-15.104 43.536) rotate(-45)"/></g></svg>
