<svg height="512" viewBox="0 0 64 64" width="512" xmlns="http://www.w3.org/2000/svg"><g id="Filled_outline" data-name="Filled outline"><path d="m17 11s-1-10-10-4-2 14 4 12a8.746 8.746 0 0 0 6-8z" fill="#394d5c"/><path d="m47 11s1-10 10-4 2 14-4 12a8.746 8.746 0 0 1 -6-8z" fill="#394d5c"/><path d="m58 34a26 26 0 0 1 -52 0c0-14.359 11.641-30 26-30s26 15.641 26 30z" fill="#f4f4e6"/><g fill="#394d5c"><path d="m26 26s-3-3-6-3-10 5-9 12 1 9 9 9c0 0 4-6 9-9a10.607 10.607 0 0 0 -3-9z"/><path d="m38 26s3-3 6-3 10 5 9 12-1 9-9 9c0 0-4-6-9-9a10.607 10.607 0 0 1 3-9z"/><path d="m37 43c0 1.1-2.239 3-5 3s-5-1.9-5-3 2.239-2 5-2 5 .9 5 2z"/></g><path d="m57.555 6.168c-2.965-1.975-5.508-2.551-7.555-1.708a6.467 6.467 0 0 0 -3.423 4.04 23.166 23.166 0 0 0 -14.577-5.5 23.166 23.166 0 0 0 -14.577 5.5 6.467 6.467 0 0 0 -3.418-4.04c-2.052-.844-4.6-.268-7.56 1.708-3.956 2.64-5.579 6.176-4.34 9.462a7.462 7.462 0 0 0 6.2 4.616 32.367 32.367 0 0 0 -3.305 13.754 27 27 0 0 0 54 0 32.367 32.367 0 0 0 -3.3-13.754 7.462 7.462 0 0 0 6.2-4.616c1.234-3.286-.389-6.822-4.345-9.462zm-53.578 8.756c-.9-2.389.4-4.974 3.578-7.092 2.378-1.584 4.294-2.1 5.691-1.521 1.522.624 2.227 2.478 2.527 3.618a34.3 34.3 0 0 0 -6.45 8.348 5.522 5.522 0 0 1 -5.346-3.353zm53.023 19.076a25 25 0 0 1 -50 0c0-13.411 10.92-29 25-29s25 15.589 25 29zm3.023-19.076a5.515 5.515 0 0 1 -5.346 3.353 34.279 34.279 0 0 0 -6.45-8.348c.3-1.14 1.005-2.994 2.527-3.618 1.4-.576 3.313-.062 5.691 1.521 3.175 2.118 4.479 4.703 3.578 7.092z"/><path d="m29.98 35.2a11.542 11.542 0 0 0 -3.273-9.9c-.134-.142-3.332-3.3-6.707-3.3-2.053 0-5.045 1.731-7.113 4.116a11.272 11.272 0 0 0 -2.877 9.026l.1.7c.915 6.476 1.295 9.158 9.89 9.158a1 1 0 0 0 .832-.445c.039-.059 3.93-5.846 8.683-8.7a1 1 0 0 0 .465-.655zm-1.905-.8a34.827 34.827 0 0 0 -8.6 8.6c-6.346-.06-6.52-1.3-7.389-7.438l-.1-.7a9.273 9.273 0 0 1 2.414-7.435c1.858-2.146 4.307-3.427 5.6-3.427 2.526 0 5.23 2.646 5.293 2.707a9.572 9.572 0 0 1 2.782 7.693z"/><circle cx="23" cy="33" r="2"/><path d="m37.293 25.293a11.542 11.542 0 0 0 -3.273 9.9 1 1 0 0 0 .465.661c4.743 2.846 8.644 8.64 8.683 8.7a1 1 0 0 0 .832.446c8.595 0 8.975-2.682 9.891-9.16l.1-.7a11.272 11.272 0 0 0 -2.877-9.026c-2.069-2.383-5.061-4.114-7.114-4.114-3.375 0-6.573 3.158-6.707 3.293zm12.307 2.134a9.273 9.273 0 0 1 2.407 7.431l-.1.7c-.869 6.14-1.043 7.378-7.389 7.438a34.827 34.827 0 0 0 -8.595-8.6 9.647 9.647 0 0 1 2.78-7.69c.067-.06 2.771-2.706 5.297-2.706 1.293 0 3.742 1.281 5.6 3.427z"/><circle cx="41" cy="33" r="2"/><path d="m32 40c-2.89 0-6 .938-6 3 0 1.611 2.218 3.537 5 3.925v1.075h-4v2h10v-2h-4v-1.075c2.782-.388 5-2.314 5-3.925 0-2.062-3.11-3-6-3zm0 5c-2.256 0-3.928-1.5-4.009-1.946.134-.3 1.525-1.054 4.009-1.054 2.408 0 3.788.708 3.993 1.024-.145.55-1.793 1.976-3.993 1.976z"/></g></svg>