<svg height="512" viewBox="0 0 64 64" width="512" xmlns="http://www.w3.org/2000/svg"><g id="Filled_outline" data-name="Filled outline"><path d="m57.536 8c-3-1-6.536 2-6.536 2s-10-5-12-5a56.385 56.385 0 0 0 -7 1 56.385 56.385 0 0 0 -7-1c-2 0-12 5-12 5s-3.536-3-6.536-2-6 4 0 11l1.536 29 5 2 5 4 7 1 7 3 7-3 7-1 5-4 5-2 1.536-29c6-7 3-10 0-11z" fill="#f4f4e6"/><path d="m39 25c0 2.761-3.134 3-7 3s-7-.239-7-3 3.134-6 7-6 7 3.239 7 6z" fill="#394d5c"/><path d="m57.853 7.052c-2.776-.929-5.77.91-6.967 1.774-2.532-1.251-9.935-4.826-11.886-4.826a53.162 53.162 0 0 0 -7 .98 53.162 53.162 0 0 0 -7-.98c-1.951 0-9.354 3.575-11.886 4.826-1.2-.864-4.193-2.7-6.967-1.774a5.683 5.683 0 0 0 -3.969 3.715c-.646 2.333.466 5.233 3.305 8.623l1.517 28.663a1 1 0 0 0 .628.876l4.862 1.944 4.884 3.908a1 1 0 0 0 .483.209l6.87.982 6.878 2.947a1 1 0 0 0 .788 0l6.878-2.947 6.87-.982a1 1 0 0 0 .483-.209l4.884-3.908 4.862-1.944a1 1 0 0 0 .63-.876l1.517-28.663c2.839-3.39 3.951-6.29 3.305-8.623a5.683 5.683 0 0 0 -3.969-3.715zm-1.076 11.3a1 1 0 0 0 -.24.6l-1.5 28.362-4.406 1.762a1.024 1.024 0 0 0 -.254.148l-4.786 3.83-6.731.961a.966.966 0 0 0 -.252.071l-6.608 2.826-6.606-2.831a.966.966 0 0 0 -.252-.071l-6.731-.961-4.786-3.83a1.024 1.024 0 0 0 -.254-.148l-4.406-1.762-1.5-28.362a1 1 0 0 0 -.24-.6c-2.508-2.922-3.586-5.36-3.12-7.047a3.829 3.829 0 0 1 2.675-2.352c2.01-.663 4.706 1.083 5.574 1.816a1.008 1.008 0 0 0 1.093.131c4.812-2.407 10.453-4.895 11.553-4.895a56.193 56.193 0 0 1 6.8.98 1 1 0 0 0 .392 0 56.161 56.161 0 0 1 6.808-.98c1.1 0 6.741 2.488 11.553 4.895a1 1 0 0 0 1.093-.132c.032-.028 3.176-2.612 5.574-1.815a3.829 3.829 0 0 1 2.68 2.352c.461 1.687-.617 4.125-3.123 7.05z"/><circle cx="23" cy="16" r="2"/><circle cx="41" cy="16" r="2"/><path d="m32 18c-4.506 0-8 3.763-8 7 0 3.6 3.9 3.959 7 4v1.158l-5.164.861.328 1.972 5.836-.977 5.836.972.328-1.972-5.164-.861v-1.153c3.1-.036 7-.395 7-4 0-3.237-3.494-7-8-7zm0 9c-4.542 0-6-.486-6-2 0-2.251 2.769-5 6-5s6 2.749 6 5c0 1.514-1.458 2-6 2z"/><path d="m5.445 11.168 1.11 1.664c2.176-1.452 4.545 1.638 4.645 1.768l1.6-1.2c-1.234-1.644-4.357-4.233-7.355-2.232z"/><path d="m51.2 13.4 1.6 1.2c.024-.033 2.459-3.223 4.645-1.768l1.11-1.664c-2.996-1.997-6.121.587-7.355 2.232z"/><path d="m29 50h2v2h-2z"/><path d="m33 50h2v2h-2z"/></g></svg>