<svg height="512" viewBox="0 0 64 64" width="512" xmlns="http://www.w3.org/2000/svg"><g id="Filled_outline" data-name="Filled outline"><path d="m57.536 8c-3-1-6.536 2-6.536 2s-10-5-12-5a56.385 56.385 0 0 0 -7 1 56.385 56.385 0 0 0 -7-1c-2 0-12 5-12 5s-3.536-3-6.536-2-6 4 0 11l1.536 29 5-2 5 8 7-3 7 7 7-7 7 3 5-8 5 2 1.536-29c6-7 3-10 0-11z" fill="#394d5c"/><path d="m25 19v-1a3 3 0 0 0 -3-3h-1s-6 2-6 8 3 8 3 8z" fill="#7d8d9c"/><path d="m39 19-7-2-7 2-7 12v8l7 7h14l7-7v-8z" fill="#f4f4e6"/><path d="m39 19v-1a3 3 0 0 1 3-3h1s6 2 6 8-3 8-3 8z" fill="#7d8d9c"/><path d="m39 29c0 2.761-3.134 5-7 5s-7-2.239-7-5 3.134-4 7-4 7 1.239 7 4z" fill="#394d5c"/><path d="m57.853 7.052c-2.775-.929-5.77.91-6.967 1.774-2.532-1.251-9.935-4.826-11.886-4.826a53.162 53.162 0 0 0 -7 .98 53.162 53.162 0 0 0 -7-.98c-1.951 0-9.354 3.575-11.886 4.826-1.2-.864-4.192-2.7-6.967-1.774a5.683 5.683 0 0 0 -3.969 3.715c-.646 2.333.466 5.233 3.305 8.623l1.592 30.057 5.52-2.208 5.011 8.018 7.165-3.071 7.229 7.228 7.229-7.228 7.165 3.071 5.011-8.018 5.52 2.208 1.592-30.057c2.839-3.39 3.951-6.29 3.305-8.623a5.683 5.683 0 0 0 -3.969-3.715zm-1.076 11.3-.221.257-1.481 27.944-4.475-1.792-4.989 7.982-6.835-2.929-6.776 6.772-6.771-6.772-6.835 2.929-4.989-7.982-4.48 1.792-1.481-27.946-.221-.257c-2.506-2.925-3.584-5.363-3.118-7.05a3.829 3.829 0 0 1 2.675-2.352c2.009-.663 4.706 1.083 5.574 1.816l.5.424s11.046-5.188 12.146-5.188a59.261 59.261 0 0 1 7 1.02 59.227 59.227 0 0 1 7-1.02c1.1 0 12.144 5.189 12.144 5.189l.5-.426c.032-.028 3.178-2.612 5.574-1.815a3.829 3.829 0 0 1 2.682 2.352c.461 1.687-.617 4.125-3.123 7.05z"/><circle cx="20" cy="21" r="2"/><path d="m47 31.465c.932-.863 3-3.349 3-8.465 0-5.316-4.372-8.178-6.684-8.948l-.154-.052h-1.162a3.991 3.991 0 0 0 -3.968 3.683l-6.032-1.723-6.032 1.723a3.991 3.991 0 0 0 -3.968-3.683h-1.162l-.154.052c-2.312.77-6.684 3.632-6.684 8.948 0 5.116 2.068 7.6 3 8.465v7.949l7.586 7.586h14.828l7.586-7.586zm-31-8.465c0-4.771 4.318-6.67 5.176-7h.824a2 2 0 0 1 2 2v.729l-6.213 10.651a10.17 10.17 0 0 1 -1.787-6.38zm29 15.586-6.414 6.414h-13.172l-6.414-6.414v-7.315l6.661-11.419 6.339-1.812 6.339 1.812 6.661 11.419zm-5-19.857v-.729a2 2 0 0 1 2-2h.823c.864.333 5.177 2.231 5.177 7a10.172 10.172 0 0 1 -1.787 6.381z"/><circle cx="44" cy="21" r="2"/><path d="m24 29c0 3.054 3.06 5.577 7 5.948v1.2l-5.164.861.328 1.972 5.836-.967 5.836.972.328-1.972-5.164-.861v-1.2c3.94-.371 7-2.894 7-5.948 0-3.084-3.065-5-8-5s-8 1.911-8 4.995zm14 0c0 2.168-2.748 4-6 4s-6-1.832-6-4c0-2.212 3.1-3 6-3s6 .788 6 3z"/><path d="m28 28h2v2h-2z"/><path d="m34 28h2v2h-2z"/><path d="m11.2 14.6 1.6-1.2c-1.234-1.644-4.357-4.233-7.355-2.232l1.11 1.664c2.175-1.452 4.545 1.638 4.645 1.768z"/><path d="m51.2 13.4 1.6 1.2c.024-.033 2.459-3.223 4.645-1.768l1.11-1.664c-2.995-1.997-6.121.587-7.355 2.232z"/><path d="m12.882 39.652-.886-9.743-1.992.182 1.114 12.257 3.375-1.125 3.612 7.224 1.79-.894-4.388-8.776z"/><path d="m51.118 39.652-2.625-.875-4.388 8.776 1.79.894 3.612-7.224 3.375 1.125 1.114-12.257-1.992-.182z"/><path d="m29 50h2v2h-2z"/><path d="m33 50h2v2h-2z"/></g></svg>