<svg id="Layer_1" enable-background="new 0 0 512 512" height="512" viewBox="0 0 512 512" width="512" xmlns="http://www.w3.org/2000/svg"><path d="m394.061 137.506c-4.201-10.023 2.536-21.313 13.428-22.3.937-.091 1.865-.161 2.792-.232-7.984-3.236-15.495-5.141-19.83-5.867-7.783-1.291-13.478-8.025-13.478-15.908 0-9.859 15.882-68.973 11.482-93.2-20.243 2.974-46.716 24.094-53.168 43.46-12.086 36.242-65.436 31.393-79.287 29.488-13.851 1.905-67.201 6.755-79.288-29.487-6.452-19.366-32.925-40.486-53.168-43.46-4.382 24.133 11.482 83.413 11.482 93.2 0 7.884-5.696 14.618-13.478 15.908-4.587.786-12.057 2.692-19.91 5.867.948.061 1.915.141 2.873.232 10.91.988 17.623 12.29 13.428 22.3-17.511 41.726-27.773 78.169-30.919 110.066 3.276-2.632 5.655-3.912 6.381-4.275 11.89-5.945 25.523 4.303 23.066 17.4-.06.322-6.371 35.304-.887 76.949 5.051 38.319 17.934 69.278 38.429 92.484 4.1-33.977 35.859-27.353 35.859-7.883 0 23.822 37.179 67.1 66.132 89.752 28.953-22.652 66.132-65.93 66.132-89.752 0-19.469 31.7-26.061 35.848 7.782 56.344-64.287 37.774-168.143 37.552-169.332-2.446-13.042 11.124-23.372 23.066-17.4.726.363 3.105 1.643 6.381 4.275-3.145-31.897-13.407-68.341-30.918-110.067zm-74.076 28.812c10.091 0 18.277 8.186 18.277 18.287 0 10.091-8.186 18.277-18.277 18.277-10.101 0-18.287-8.186-18.287-18.277 0-10.101 8.186-18.287 18.287-18.287zm-127.97 0c10.101 0 18.287 8.186 18.287 18.287 0 10.091-8.186 18.277-18.287 18.277-10.091 0-18.277-8.186-18.277-18.277 0-10.101 8.186-18.287 18.277-18.287zm138.646 172.377c-15.045 16.523-36.379 20.018-58.38 17.299-5.091-.645-10.948-2.742-16.281-7.974-5.333 5.232-11.19 7.329-16.281 7.974-22.048 2.724-43.365-.795-58.38-17.299-24.175-26.574-15.293-70.417-14.204-75.326 1.926-8.7 10.545-14.184 19.245-12.248 8.68 1.925 14.164 10.525 12.249 19.204-1.784 8.297-4.416 34.649 6.613 46.706 5.645 6.159 15.343 8.559 28.862 7.138 2.036-2.924 3.982-10.504 5.01-18.731-20.528-12.803-25.118-42.479-2.087-51.797 9.72-3.924 28.217-3.927 37.945 0 22.983 9.298 18.479 38.96-2.067 51.786 1.028 8.247 2.974 15.828 4.99 18.741 13.519 1.421 23.217-.978 28.862-7.138 11.029-12.057 8.398-38.429 6.603-46.716-1.875-8.69 3.629-17.279 12.309-19.185 8.69-1.905 17.269 3.559 19.195 12.239 1.09 4.911 9.971 48.754-14.203 75.327z"/></svg>