<svg id="Layer_1" enable-background="new 0 0 512 512" height="512" viewBox="0 0 512 512" width="512" xmlns="http://www.w3.org/2000/svg"><path d="m266.108 282.787c-2.05 6.389-6.49 15.58-10.11 19.579-3.62-4-8.06-13.19-10.11-19.579 5.971-1.999 14.241-2.001 20.22 0z"/><path d="m290.097 452.262c-21.327 7.191-46.867 7.192-68.198 0 14.586-16.126 25.972-38.295 34.099-58.648 8.129 20.357 19.514 42.524 34.099 58.648z"/><path d="m174.85 476.231c-5.919 31.029-25.979 35.769-45.678 35.769-19.229 0-29.289-23.849-29.289-47.408 0-40.808-41.517-67.222-28.869-92.497 19.169-38.349 37.919-140.256 37.919-188.335 0-13.909 4.36-22.999 9.41-28.879 5.427 43.876 16.994 83.256 22.489 105.237 8.022 32.154-9.741 87.318-.17 135.135 7.126 35.564 2.232 66.321 23.089 77.758 3.64 1.99 7.39 2.96 11.099 3.22z"/><path d="m412.113 464.592c0 23.559-10.06 47.408-29.289 47.408-19.699 0-39.769-4.74-45.679-35.769 3.71-.26 7.46-1.23 11.1-3.22 20.857-11.437 15.963-42.194 23.089-77.758 9.632-48.125-8.252-102.744-.17-135.135 4.796-19.182 16.933-60.318 22.489-105.237 5.05 5.88 9.41 14.97 9.41 28.879 0 48.079 18.749 149.986 37.919 188.335 12.662 25.302-28.869 51.653-28.869 92.497z"/><path d="m350.815 46.755c-30.589-53.529-92.217-46.489-92.837-46.409-4.339.495-65.659-8.057-96.797 46.409-31.028 54.302-1.676 156.141 10.69 205.603 10.019 40.074-8.322 94.123.17 136.626 4.46 22.282 4.951 44.627 7.7 54.678 33.492-11.336 59.086-88.672 60.208-113.197-15.953-10.793-27.129-39.657-27.129-51.588 0-39.477 86.357-39.426 86.357 0 0 12.614-11.496 41.012-27.129 51.588 1.123 24.539 26.654 101.757 60.198 113.197 2.818-10.23 3.159-31.943 7.71-54.678 8.474-42.31-9.819-96.671.17-136.626 9.341-37.368 43.099-148.884 10.689-205.603zm-153.695 100.776c-12.51 0-22.649-10.139-22.649-22.649 0-12.509 10.14-22.649 22.649-22.649 12.5 0 22.639 10.14 22.639 22.649 0 12.51-10.14 22.649-22.639 22.649zm117.756 0c-12.5 0-22.639-10.139-22.639-22.649 0-12.509 10.14-22.649 22.639-22.649 12.51 0 22.649 10.14 22.649 22.649 0 12.51-10.139 22.649-22.649 22.649z"/></svg>