<svg id="Layer_1" enable-background="new 0 0 512 512" height="512" viewBox="0 0 512 512" width="512" xmlns="http://www.w3.org/2000/svg"><path d="m291.56 445.153c-38.823-5.705-32.187-5.722-71.12 0 12.229-15.725 28.151-40.725 35.56-44.57 7.4 3.839 23.371 28.896 35.56 44.57z"/><path d="m492.54 263.773c-14.521 32.281-21.69 50.527-13.37 85.85-11.58-3.74-28.89-24.52-39.86-54.21-2.03-20.79-3.46-42.57 4.34-69.86 20.147-70.54-10.364-102.744-47.13-157.94 8.23 2.31 15.46 5.75 20.43 10.72 26.59 26.59 95.05 70.227 95.05 115.62 0 26.52-9.9 48.53-19.46 69.82z"/><path d="m284.76 307.533c-2.25 9.377-5.419 6.334-28.76 21.24-23.534-15.029-26.506-11.847-28.76-21.24-1.29-5.35-.12-10.06.71-11.54 3.71-2.29 17.04-4.41 28.06-4.44 10.99 0 24.3 2.13 28.04 4.44.83 1.47 2 6.19.71 11.54z"/><path d="m369.62 84.963c-6.79-10.18-16.83-16.98-29.99-20.36-2.19-.01-4.28-.47-6.2-1.3-7.8-1.29-16.55-1.54-26.23-.74-24.868 2.078-44.444 10.065-47.31 10.9-2.09.482-4.101.638-6.23.31-3.398-.544-41.113-16.174-75.04-10.48-1.92.83-4.03 1.3-6.22 1.31-11.87 3.07-22.62 9.25-30.02 20.36-35.957 53.937-59.17 76.097-43.26 131.8 18.905 66.188-7.306 103.927 8.54 143.52 17.817 44.558 17.524 82.156 50.32 89.67 3.22-.02 6.34-.06 9.37-.13 25-7.283 47.452-62.285 72.65-76.96v-16.33c-4.93-3.2-12.42-7.74-21.47-12.27-27.74-13.87-30.159-54.031-13.22-70.95 18.394-18.409 82.979-18.415 101.38 0 17.104 17.084 14.359 57.161-13.22 70.95-9.05 4.52-16.53 9.07-21.47 12.27v16.33c25.218 14.686 47.645 69.675 72.65 76.96 3.02.07 6.15.11 9.37.13 32.837-7.523 32.428-44.924 50.32-89.67 15.847-39.596-10.369-77.318 8.54-143.52 15.907-55.692-7.25-77.784-43.26-131.8zm-208.82 136.19c-12.52 0-22.67-10.15-22.67-22.66 0-12.52 10.15-22.67 22.67-22.67s22.67 10.15 22.67 22.67c0 12.51-10.15 22.66-22.67 22.66zm190.4 0c-12.52 0-22.67-10.15-22.67-22.66 0-12.52 10.15-22.67 22.67-22.67s22.67 10.15 22.67 22.67c0 12.51-10.15 22.66-22.67 22.66z"/><path d="m68.35 225.553c7.8 27.29 6.37 49.07 4.34 69.86-10.97 29.69-28.28 50.47-39.86 54.21 1.67-7.09 3.44-16.59 3.44-28.73 0-41.555-36.27-76.314-36.27-126.94 0-45.419 68.464-89.034 95.05-115.62 4.97-4.97 12.21-8.41 20.43-10.72-35.702 53.598-67.516 86.563-47.13 157.94z"/></svg>