<svg id="Layer_1" enable-background="new 0 0 512 512" height="512" viewBox="0 0 512 512" width="512" xmlns="http://www.w3.org/2000/svg"><path d="m373.79 430.262c-9.06 9.71-38.1 31.16-117.79 31.16s-108.73-21.45-117.79-31.16c8.655-27.185 16.854-71.889 36.48-103.03.01-.02.02-.03.03-.05 16.47-26.1 40.55-42.3 81.28-42.3s64.81 16.2 81.28 42.3c.01.02.02.03.03.05 19.623 31.136 27.825 75.844 36.48 103.03z"/><path d="m428.85 110.262c6.99-4.37 16.14-2.73 21.16 3.8 13.211 17.258 43.476 52.561 61.99 64.12-.01-55.62-20.83-101.32-55.7-122.24-12.56-7.54-19.07-5.17-21.21-4.39-10.26 3.73-17.1 17.87-18.87 23-3.29 9.852-15.12 14.127-24.03 8.18-48.06-32.04-104.38-24.35-127.31-9.07-5.055 3.408-12.18 3.763-17.76 0-22.94-15.28-79.25-22.97-127.31 9.07-8.762 5.848-20.719 1.75-24.06-8.25-1.74-5.06-8.58-19.2-18.84-22.93-19.268-7.023-76.893 33.376-76.91 126.63 18.504-11.545 48.903-47.025 61.99-64.12 5.02-6.53 14.19-8.18 21.17-3.8 6.99 4.37 9.5 13.34 5.82 20.71-6.82 13.69-23.15 54.71-16.92 79.63 12.554 50.216-105.968 108.412-4.21 210.17 21.85 21.85 29.4 21.01 29.47 20.99 0 0 2.74-1.34 6.72-10.94 10.342-24.961 16.598-73.29 39-113.02-9.29-22.84-3.13-49.45-2.3-52.79 2.15-8.58 10.84-13.79 19.41-11.65s13.78 10.83 11.64 19.4c-.52 2.13-1.18 5.92-1.53 10.42 22.41-20.12 51.13-30.3 85.74-30.3s63.33 10.18 85.74 30.29c-.36-4.5-1.02-8.31-1.54-10.46-2.14-8.57 3.08-17.23 11.65-19.37 8.58-2.14 17.26 3.09 19.41 11.67.83 3.34 6.99 29.95-2.3 52.79 22.346 39.631 28.715 88.197 39 113.02 3.98 9.6 6.72 10.94 6.75 10.95.05.01 7.59.85 29.44-21 101.749-101.749-16.76-159.97-4.21-210.17 6.23-24.92-10.1-65.94-16.92-79.64-3.67-7.37-1.15-16.34 5.83-20.7zm-268.05 95.16c-12.52 0-22.67-10.15-22.67-22.67s10.15-22.67 22.67-22.67 22.67 10.15 22.67 22.67-10.15 22.67-22.67 22.67zm95.2 45.33c-60.253 0-34.812-45.33 0-45.33 34.82 0 60.264 45.33 0 45.33zm95.2-45.33c-12.52 0-22.67-10.15-22.67-22.67s10.15-22.67 22.67-22.67 22.67 10.15 22.67 22.67-10.15 22.67-22.67 22.67z"/></svg>