<svg id="Layer_1" enable-background="new 0 0 512 512" height="512" viewBox="0 0 512 512" width="512" xmlns="http://www.w3.org/2000/svg"><path d="m348.885 451.541c-7.918 10.126-18.467 21.859-31.383 32.337.046-1.776.03 5.026.03-47.401 7.076-1.034 12.796-.121 20.514 5.028 4.326 2.881 7.929 6.223 10.839 10.036z"/><path d="m194.488 483.878c-12.917-10.478-23.465-22.21-31.373-32.337 2.91-3.814 6.513-7.156 10.839-10.036 7.718-5.148 13.439-6.062 20.514-5.028 0 62.396.02 43.85.02 47.401z"/><path d="m285.416 443.472v39.242c0 12.294-7.577 22.842-18.306 27.239-3.613.873-7.327 1.555-11.11 2.047-3.794-.492-7.497-1.175-11.12-2.047-10.719-4.396-18.296-14.944-18.296-27.239v-39.242c11.094 1.423 20.566 1.418 29.416-5.068 8.882 6.522 18.422 6.474 29.416 5.068z"/><path d="m276.323 368.742c-1.074 2.108-8.26 6.965-20.323 6.965s-19.249-4.857-20.323-6.965c.03-3.021.502-4.366.663-4.737 3.016-1.809 15.586-1.666 19.661-1.666 6.393 0 17.021 0 19.661 1.666.159.371.631 1.717.661 4.737z"/><path d="m449.228 184.306c-1.048-9.38 6.342-17.794 15.958-17.794.682 0 8.792.09 20.594 3.804-19.692-36.147-33.785-41.056-36.081-51.376-1.07-5.16 5.331-89.399-6.112-118.94-35.142 16.997-96.452 90.496-109.877 111.152 22.14 3.172 43.116 17.794 62.465 43.597 28.252 37.666 43.156 64.814 48.305 88.008 6.012 27.028-1.445 47.321-10.407 65.236-3.968 7.936-13.612 11.156-21.538 7.176-7.939-3.965-11.15-13.609-7.186-21.538 13.599-27.209 19.199-47.542-34.866-119.623-20.167-26.882-44.993-42.849-70.725-21.447-1.529 1.264-3.349 3.027-3.774 3.513-2.931 3.804-7.527 6.262-12.706 6.262-13.638 0-21.021-16.005-12.285-26.385-.17-.137 9.705-11.494 24.86-18.758 4.07-16.439 16.893-32.773 27.901-46.227-15.48-.705-20.241.516-23.465.281-10.116-.806-15.985-10.364-18.055-20.213-3.994 3.592-6.442 9.372-14.553 10.388-19.066 2.009-14.799-19.28-40.717-31.614 2.027 10.879 1.014 21.798-.863 29.326-.946 3.769-3.151 7.086-6.795 9.545-7.107 4.616-9.446 1.303-31.062 2.288 10.942 13.381 23.973 30.078 27.901 46.227 13.974 6.697 25.13 18.534 24.85 18.758 8.715 10.354 1.403 26.385-12.284 26.385-5.179 0-9.765-2.459-12.706-6.262-25.966-26.056-52.598-11.26-74.499 17.934-54.055 72.081-48.465 92.414-34.866 119.623 7.437 14.835-9.961 29.872-23.615 20.313-2.184-1.541-3.918-3.569-5.109-5.952-8.952-17.914-16.409-38.208-10.408-65.236 5.159-23.194 20.052-50.342 48.305-88.008 19.35-25.803 40.336-40.426 62.466-43.597-7.556-11.643-20.524-26.619-29.667-37.545-15.117-18.03-31.34-36.113-52.74-54.226-13.54-11.452-22.562-17.012-27.46-19.381-2.168 5.57-5.711 19.42-6.724 51.486-1.884 59.621 4.441 64.926-2.339 73.827-3.339 4.169-17.978 17.158-33.13 45.002 11.793-3.714 19.912-3.804 20.584-3.804 11.706 0 19.524 12.192 14.553 22.842-.522 1.134-46.026 100.232-29.687 167.997 2.197-2.641 4.335-5.208 7.176-6.815 7.003-4.097 16.277-2.171 21.136 4.767 0 .009 1.144 1.754 1.144 1.917.839 1.619 1.455 3.953 1.455 4.245.19 1.006 4.467 38.043 18.788 76.376 8.671 23.203 22.351 50.081 42.293 64.423-5.813-35.675 2.691-67.619 32.477-87.476 33.563-22.384 56.834-2.948 81.183-2.7.972-1.434 1.723-4.48 2.057-6.192-21.016-5.038-35.819-19.43-35.819-36.873 0-21.367 11.06-30.631 20.344-34.635 9.772-4.235 21.263-4.165 32.096-4.165 11.552 0 22.461 0 32.086 4.165 9.284 4.004 20.354 13.268 20.354 34.635 0 17.443-14.803 31.835-35.819 36.873.342 1.66 1.017 4.672 2.047 6.192 17.434-.178 32.668-9.487 52.058-7.888 28.12 1.908 72.45 31.986 61.603 98.064 45.405-32.638 59.639-131.586 59.856-132.348.014-.101 1.054-6.837 1.054-7.316 1.639-13.329 17.813-18.97 27.309-9.474.371.371 1.746 1.776 3.784 4.225 16.721-69.391-30.625-168.512-31.103-173.044zm-106.826 43.738c12.555 0 22.742 10.187 22.742 22.742 0 12.556-10.187 22.733-22.742 22.733s-22.742-10.177-22.742-22.733c0-12.555 10.187-22.742 22.742-22.742zm-172.814 0c12.565 0 22.742 10.187 22.742 22.742 0 12.556-10.177 22.733-22.742 22.733-12.555 0-22.732-10.177-22.732-22.733 0-12.555 10.176-22.742 22.732-22.742zm231.225 149.48c-.083 5.457-.571 12.475-1.676 17.132-1.194 7.688-7.818 13.579-15.847 13.579-10.533 0-18.336-10.04-15.456-20.344-.479-.12 7.435-28.625-15.536-59.254-17.908-23.868-62.594-20.908-91.21-12.585-10.368 3.085-19.831-5.901-52.158-6.042-16.667.028-36.425 3.552-47.341 16.319-13.645 15.31-20.591 40.344-17.764 59.123.414 2.895.546 2.38.341 2.439 2.85 10.196-4.839 20.344-15.466 20.344-7.907 0-14.622-5.756-15.847-13.579-4.887-25.627.687-56.06 18.667-81.836 26.443-38.487 79.177-40.538 124.48-28.694 8.33-2.178 26.305-6.172 46.709-6.232 42.971-.115 66.637 15.825 82.428 42.142 10.097 18.175 15.676 34.992 15.676 57.488z"/></svg>