<svg id="Layer_1" enable-background="new 0 0 511.702 511.702" height="512" viewBox="0 0 511.702 511.702" width="512" xmlns="http://www.w3.org/2000/svg"><path d="m117.1 63.899c-4.09 4.79-7.84 10.05-11.15 15.85-30.517 53.391-78.05 156.593-55.37 213.341 1.2 3 2.27 5.97 3.22 8.9-6.63 11.58-14.79 20.82-23.37 26.36-6.94 4.48-11.73 4.98-13.55 4.84-.12-.92-.16-2.78.62-5.89 6.28-25.15-1.35-57.55-8.72-88.9-11.575-49.093-19.232-76.749 27.55-100.14 13.09-6.54 18.4-21.7 24.55-39.26 6.21-17.71 13.25-37.8 26.58-41.13 11.14-2.78 21.47.91 29.64 6.029z"/><path d="m502.9 238.399c-7.37 31.35-15 63.75-8.71 88.9.77 3.12.73 4.98.61 5.89-1.82.15-6.61-.36-13.55-4.84-8.58-5.54-16.74-14.78-23.37-26.36 4.819-14.863 19.723-39.324-3.17-112.54-10.66-34.14-28.06-73.1-48.98-109.7-3.31-5.8-7.07-11.06-11.15-15.85 8.17-5.12 18.5-8.81 29.65-6.03 13.32 3.33 20.36 23.42 26.57 41.13 6.15 17.56 11.46 32.72 24.55 39.26 47.088 23.544 38.964 51.731 27.55 100.14z"/><path d="m424.17 198.99c-10-31.99-26.41-68.7-46.22-103.37-17.92-31.36-55.8-41.96-84.42-45.33-11.549-1.364-21.69 7.612-21.69 19.26 0 8.84-7.16 16-16 16s-16-7.16-16-16c0-11.631-10.121-20.627-21.69-19.26-28.62 3.37-66.5 13.97-84.42 45.34-19.81 34.66-36.22 71.37-46.22 103.36-11.34 36.3-13.9 65.5-7.21 82.22 9.38 23.47 12.1 44.73 13.37 63.99 18.289-17.146 38.519-27.847 66.26-83.34 31.62-63.24 67.27-63.24 95.91-63.24s64.29 0 95.91 63.24c27.75 55.512 48.006 66.227 66.26 83.34 1.27-19.26 3.99-40.52 13.37-63.99 6.69-16.72 4.13-45.921-7.21-82.22zm-277.13 15.629c-10.01 0-18.13-8.12-18.13-18.13 0-10.02 8.12-18.14 18.13-18.14s18.13 8.12 18.13 18.14c0 10.01-8.12 18.13-18.13 18.13zm124.8-45.33c0 8.83-7.16 16-16 16s-16-7.17-16-16v-45.34c0-8.83 7.16-16 16-16s16 7.17 16 16zm92.8 45.33c-10.01 0-18.13-8.12-18.13-18.13 0-10.02 8.12-18.14 18.13-18.14s18.13 8.12 18.13 18.14c0 10.01-8.12 18.13-18.13 18.13z"/><path d="m285.17 241.819c0 6.771-13.86 29.33-29.33 29.33s-29.33-22.56-29.33-29.33c0-2.79 10.4-11.2 29.33-11.2s29.33 8.411 29.33 11.2z"/><path d="m239.84 300.379v30.02c-74.661 32.752-55.79 107.393-92.49 120.93-10.822 1.621-18.451.654-22.43 1.68-12.887-1.546-22.74-5.469-26.84-17.79-7.41-22.23 7.08-56.36 14.94-64.22 3.41-3.41 7.28-6.74 11.38-10.26 49.813-42.875 57.441-76.659 73.85-101.66 6.81 16.951 22.33 34.63 41.59 41.3z"/><path d="m413.6 435.22c-4.092 12.297-13.93 16.257-26.85 17.79-4.535-1.179-10.245.138-22.41-1.68-36.625-13.474-17.853-88.184-92.5-120.93v-30.02c19.26-6.67 34.78-24.35 41.59-41.3 3.17 4.83 6.39 10.48 9.7 17.09 32.484 64.98 58.187 77.489 75.53 94.83 7.86 7.859 22.35 41.99 14.94 64.22z"/><path d="m315.33 443.53c-27.984 1.437-47.866 18.02-59.49 18.02-11.604 0-31.485-16.582-59.49-18.02 7.79-16.463 12.298-35.267 19.4-49.49 11.41-22.82 31.55-32.47 40.09-35.67 8.54 3.2 28.68 12.85 40.09 35.67 7.104 14.227 11.599 33.003 19.4 49.49z"/></svg>