<svg id="Layer_1" enable-background="new 0 0 512 512" height="512" viewBox="0 0 512 512" width="512" xmlns="http://www.w3.org/2000/svg"><path d="m466.44 207.662c-34.54-17.258-49.79-91.795-72.61-134.37-2.674-4.974-9.974-17.344-14.78-18.55-22.72-5.68-83.89 13.26-117.11 26.53-4.155 1.66-8.882 1.308-11.88 0-33.22-13.27-94.39-32.21-117.11-26.53-.36.09-2.54.8-6.32 5.39-26.225 32.024-41.812 127.914-81.07 147.53-29.038 14.511-45.56 61.641-45.56 94.491 0 58.11 51.26 102.27 161.33 138.96 20.251 6.745 73.384 14.475 94.67 17.18 21.37-2.716 74.426-10.436 94.67-17.18 110.07-36.69 161.33-80.851 161.33-138.96 0-32.769-16.488-79.963-45.56-94.491zm-294.25 84.411c-18.815-5.965-21.508-31-5.01-41.04 14.775-9.053 34.42 1.506 34.42 19.39 0 15.166-14.657 26.152-29.41 21.65zm161.59 116.97c-5.01 10.02-19.39 26.98-41.51 26.98h-72.54c-22.12 0-36.5-16.96-41.51-26.98-3.95-7.9-.75-17.52 7.16-21.47 7.9-3.95 17.51-.75 21.46 7.16-.568-1.363 2.737 5.92 8.82 8.43 2.305 1.153 3.328.86 24.34.86v-25.47c-15.56-6-27.2-19.69-27.2-31.07 0-15.46 16.55-25.06 43.2-25.06s43.2 9.6 43.2 25.06c0 11.38-11.64 25.07-27.2 31.07v25.47c19.855 0 22.018.3 24.34-.86 5.725-2.362 9.183-9.302 8.82-8.43 3.95-7.91 13.56-11.11 21.46-7.16 7.91 3.95 11.11 13.569 7.16 21.47zm-.71-115.96c-12.52 0-22.67-10.14-22.67-22.66s10.15-22.67 22.67-22.67 22.66 10.15 22.66 22.67-10.14 22.66-22.66 22.66z"/></svg>