<svg id="Layer_1" enable-background="new 0 0 511.81 511.81" height="512" viewBox="0 0 511.81 511.81" width="512" xmlns="http://www.w3.org/2000/svg"><path d="m445.82 168.821c-23.57-49.56-57.293-111.566-102.69-144.13-33.73-24.241-63.385-22.696-78.3-14.1h-18.01c-2.02-1.17-18.56-9.99-44.23-2.91-13.353 3.427-27.518 11.81-38.67 20.46-38.853 30.168-69.567 82.34-91.14 126.28-29.89 61.159-90.949 192.535-67.56 256.13 11.797 32.138 66.941 83.24 80.88 86.81.585.182.323.2 1.61-.22 11.978-4.634 31.807-21.849 41.33-30.55-14.19-15.94-27.79-35.52-38.32-59.2-20.493-46.117-11.739-92.111 21.18-131.43 12.723-15.172 28.172-27.48 32.92-30.05 7.354-3.841 16.266-1.497 20.78 5.28 4.89 7.34 2.92 17.25-4.4 22.16-16.554 11.313-34.797 32.19-43.32 53.41-8.81 21.98-8.13 44.66 2.09 67.63 10.62 23.92 24.96 43.02 39.5 57.93 2.927 1.473 5.401 3.833 6.98 6.84 28.481 26.641 61.583 42.893 82.4 46.99 5.478 1.08 8.59 1.054 13.96 0 20.914-4.119 53.981-20.406 82.4-46.99 1.524-2.901 3.946-5.313 6.98-6.84 14.54-14.91 28.87-34.01 39.5-57.93 10.21-22.97 10.89-45.65 2.08-67.63-8.629-21.485-27.021-42.279-43.31-53.41-7.33-4.91-9.3-14.82-4.4-22.16 4.53-6.8 13.447-9.11 20.78-5.28 4.972 2.748 20.112 14.777 32.92 30.05 32.915 39.314 41.677 85.308 21.17 131.43-9.805 22.051-22.897 41.882-38.32 59.2 8.566 7.804 31.255 27.703 42.48 30.91l.01-.01c15.094-3.263 69.867-55.709 81.33-86.94 10.76-29.23 11.94-89.49-60.61-241.73zm-278.2-6.56c-14.62 5.751-27.01 15.779-33.09 30.23-4.35 10.46-3.85 19.35-3.84 19.43.7 9.267-6.622 17.2-15.98 17.2-8.21 0-15.2-6.29-15.92-14.63-5.721-68.794 93.086-120.815 137.46-63.84 3.37 4.33 5.12 7.7 5.46 8.37 3.95 7.91.74 17.52-7.16 21.47-7.441 3.721-16.813 1.276-21.38-7-.471 0-11.679-24.86-45.55-11.23zm43.13 38.71c0 9.646-7.645 18.12-18.39 18.12-10.719 0-18.39-8.451-18.39-18.12 0-9.627 7.61-18.12 18.39-18.12 10.759 0 18.39 8.48 18.39 18.12zm136.14 205.71c2.929 17.586-17.813 26.309-28.02 13.78-1.657-1.988-2.772-4.548-3.08-5.88-1.859-.387-4.245-.364-6.14-.24v14.72c0 29.53-24.03 53.55-53.56 53.55-31.017 0-54.08-24.772-54.08-53.55v-14.72c-1.903-.125-4.281-.147-6.14.24-5.93 19.236-34.629 13.265-31.11-7.9 1.086-6.462 4.667-12.64 10.33-17.06 10.41-8.13 25.72-9.52 46.8-4.25 2.376.594 5.703 1.048 7.74-.31 5.117-3.806 7.418-12.343 8.61-18.62-15.42-6.3-26.85-19.91-26.85-31.27 0-15.66 16.93-25.39 44.17-25.39 19.762 0 44.7 5.64 44.7 25.39 0 11.36-11.42 24.97-26.85 31.27 1.022 5.311 3.037 12.775 6.59 16.83 2.609 3.081 5.659 3.128 9.77 2.1 21.08-5.27 36.39-3.88 46.8 4.25 5.755 4.492 9.272 10.724 10.32 17.06zm-45.99-205.71c0-9.603 7.592-18.12 18.39-18.12 10.732 0 18.4 8.444 18.4 18.12 0 9.63-7.624 18.12-18.4 18.12-10.697 0-18.39-8.433-18.39-18.12zm111.96 13.52c-.75 8.811-8.518 15.334-17.3 14.57-8.75-.75-15.26-8.4-14.59-17.14 0-26.7-19.6-45.387-44.59-52.21-11.339-2.896-22.414-1.966-31.07 5.71-4.422 3.605-6.709 7.946-6.81 8.05-7.624 14.886-30.24 9.47-30.24-7.3 0-10.564 14.067-24.19 22.38-29.73 19.79-13.36 43.292-12.691 65.28-3.89 23.643 9.45 42.393 26.008 51.51 49.55 4.639 11.981 6.077 24.629 5.43 32.39z"/><path d="m277.11 417.061v12c0 11.79-9.52 21.39-21.28 21.54-11.76-.15-21.29-9.75-21.29-21.54v-12c7.602-1.56 15.24-5.848 21.29-12.89 5.961 6.977 13.502 11.293 21.28 12.89z"/></svg>