<svg id="Layer_1" enable-background="new 0 0 512 512" height="512" viewBox="0 0 512 512" width="512" xmlns="http://www.w3.org/2000/svg"><path d="m305.226 406.192c-8.141 18.342-23.783 44.895-49.226 55.897-25.443-11.001-41.085-37.554-49.226-55.897 8.171-22.395 26.894-57.043 49.226-64.577 22.364 7.546 41.039 42.195 49.226 64.577z"/><path d="m379.104 427.355c-2.01-10.061-4.91-19.622-9.021-27.843-7.502-15.049-30.314-9.669-30.314 7.151 0 .79-.02 1.57-.06 2.34-11.317-39.612-40.308-91.603-80.549-99.642-1.973-.372-4.088-.445-6.321 0-40.252 8.041-69.237 60.046-80.549 99.642-.04-.77-.06-1.55-.06-2.34 0-16.814-22.81-22.204-30.314-7.151-4.11 8.221-7.011 17.782-9.021 27.843-8.381-32.054-13.232-65.738-6.631-88.841 9.421-32.964 58.247-49.796 94.021-56.947 19.82 30.773 51.431 30.977 71.388-.01 35.774 7.141 84.63 23.973 94.051 56.956 6.602 23.104 1.751 56.788-6.62 88.842z"/><path d="m422.56 203.188c-13.273-59.473-23.13-95.516-75.249-112.523-2.54-.624-7.177-3.091-37.734-8.731-20.719-3.835-38.518-6.437-53.576-23.693-15.034 17.229-32.835 19.853-53.576 23.693-30.167 5.568-34.951 8.006-37.744 8.741-52.274 17.043-61.954 53.166-75.249 112.513-8.311 37.194-16.872 75.479-48.266 93.871 12.832 23.832 35.574 40.684 50.956 50.036.72-6.201 1.84-11.991 3.371-17.372 13.772-48.158 72.012-70.624 121.264-79.969 6.411-8.381 20.252-13.252 39.225-13.252 18.952 0 32.804 4.86 39.215 13.242 49.326 9.36 107.543 31.808 121.304 79.979 1.54 5.381 2.66 11.171 3.38 17.372 15.382-9.341 38.125-26.203 50.946-50.036-31.386-18.392-39.947-56.676-48.267-93.871zm-252.73 49.316c-12.521 0-22.673-10.151-22.673-22.673s10.151-22.673 22.673-22.673c12.521 0 22.673 10.151 22.673 22.673s-10.152 22.673-22.673 22.673zm172.34 0c-12.521 0-22.673-10.151-22.673-22.673s10.151-22.673 22.673-22.673 22.673 10.151 22.673 22.673-10.152 22.673-22.673 22.673z"/><path d="m512 135.26c-1.061 5.378-11.79 20.269-16.012 27.784-9.787 17.415-9.569 37.793-10.091 55.507-8.731-10.601-22.893-30.794-42.995-65.528-11.335-36.952-27.164-65.015-63.857-83.7 8.761-7.761 20.052-15.202 35.024-18.943 22.285-5.571 39.482 41.469 76.159 61.927 13.081 7.312 20.982 15.643 21.772 22.953z"/><path d="m132.956 69.323c-36.337 18.503-52.442 46.335-63.857 83.7-20.102 34.734-34.264 54.926-42.995 65.528-1.077-36.319-2.811-44.671-16.062-65.118-3.041-4.701-9.302-14.372-10.042-18.173.79-7.311 8.681-15.642 21.773-22.953 37.189-20.755 53.558-67.576 76.158-61.927 14.972 3.741 26.263 11.182 35.025 18.943z"/></svg>