<svg id="Layer_1" enable-background="new 0 0 512.062 512.062" height="512" viewBox="0 0 512.062 512.062" width="512" xmlns="http://www.w3.org/2000/svg"><path d="m354.311 432.041c-64.432 37.606-51.937 44.328-88.9 64.94-21.829-38.658-66.196-36.917-98.83-66.6 23.958-4.676 68.292-14.589 89.48-26.73 22.899 13.121 72.41 23.627 98.25 28.39z"/><path d="m246.392 370.251c-.104.107-2.476 1.906-3.81 4.13-5.26 4.28-30.14 14.13-77.47 23.67-34.53 6.96-70.85 11.729-101.74 13.51 24.306-44.311 71.308-82.004 99.85-91.03 17.817-5.625 35.771-4.957 51.02.78-.89 2.266-1.38 4.632-1.38 7.28 0 11.16 13.669 35.35 33.53 41.66z"/><path d="m448.751 411.561c-30.89-1.78-67.21-6.55-101.74-13.51-47.33-9.54-72.21-19.39-77.47-23.67-1.379-2.299-3.71-4.028-3.81-4.13 19.86-6.31 33.53-30.5 33.53-41.66 0-2.619-.476-4.978-1.38-7.28 12.95-4.872 28.356-6.116 43.22-2.85 39.926 8.649 87.42 56.217 107.65 93.1z"/><path d="m512.062 83.791c0 35.04-4.35 59.2-13.22 73.06-19.834-43.566-50.675-65.551-93.78-86.36 24.422-31.004 48.437-34.616 95.45-55.41 6.565 21.506 11.55 46.137 11.55 68.71z"/><path d="m107.062 70.491c-43.006 20.761-73.916 42.727-93.78 86.36-13.212-20.645-14.717-65.99-12.361-90.12 1.95-20.04 6.81-38.94 10.69-51.65 47.652 21.076 71.105 24.503 95.451 55.41z"/><path d="m491.041 286.691c-6.4-17.71-12.97-23.65-19.29-26.81-8.646-4.323-19.171-.036-22.3 9.14-16.416-44.416-45.488-108.886-84.78-135.07-27.08-18.06-35.68-27.7-38.23-31.24.7-14.494-16.914-22.492-27.29-12.1-3.86 3.86-5.74 9.5-5.15 15.46 1.01 10.18 8.08 24.61 52.92 54.5 17.66 11.77 34.06 36.16 47.76 62.72-18.356-24.148-57.02-11.149-57.02 19.17 0 17.53 14.21 31.73 31.73 31.73 21.076 0 36.239-20.148 30.55-40.32 14.42 30 25.24 60.98 30.44 78.61-.19 3.63-.85 11.72-3.15 21.39-10.096-9.3-21.935-18.684-35.36-27.66-62.11-41.4-114.64-10.79-116.84-9.47-3.05 1.83-5.26 4.51-6.52 7.57-7.607-1.058-17.595-1.016-24.9 0-1.26-3.06-3.47-5.74-6.52-7.57-2.2-1.32-54.73-31.93-116.84 9.47-13.437 8.984-25.288 18.382-35.36 27.66-2.3-9.68-2.96-17.78-3.15-21.39 5.2-17.62 16.02-48.61 30.44-78.61-5.698 20.201 9.509 40.32 30.55 40.32 17.52 0 31.73-14.2 31.73-31.73 0-30.338-38.672-43.307-57.02-19.17 13.7-26.56 30.1-50.95 47.76-62.72 44.84-29.89 51.91-44.32 52.92-54.5.59-5.96-1.29-11.6-5.15-15.46-10.375-10.392-27.99-2.394-27.29 12.1-2.55 3.54-11.15 13.18-38.23 31.24-39.304 26.192-68.346 90.604-84.78 135.07-4.466-13.096-27.455-21.445-41.59 17.67-.218-57.373 15.056-100.807 15.07-100.91 20.056-59.971 58.492-75.184 126.67-105.5 69.763-31.002 80.266 4.842 78.38.39l14.86-5.94 14.86 5.94c-.314.742 12.87-29.501 78.38-.39 68.213 30.331 106.645 45.621 126.67 105.5.016.112 15.286 44.383 15.07 100.91z"/></svg>