<svg id="Layer_1" enable-background="new 0 0 512 512" height="512" viewBox="0 0 512 512" width="512" xmlns="http://www.w3.org/2000/svg"><path d="m276.27 417.548v25.63c0 11.17-9.09 20.26-20.27 20.26s-20.27-9.09-20.27-20.26v-25.63c6.4-1.49 13.77-3.84 20.27-7.55 6.5 3.71 13.87 6.06 20.27 7.55z"/><path d="m475.12 139.978c-20.04-12.21-40.75-16.55-40.96-16.59-7.44-1.52-12.83-8.08-12.83-15.68 0-15.968-26.756-48.608-60.41-57.01-29.033-7.255-98.18 7.617-100.97 9.05-.187 0-2.651.769-5.66.38-3.702-.353-71.173-17.442-103.21-9.43-33.326 8.32-60.41 40.761-60.41 57.01 0 7.63-5.39 14.19-12.87 15.69-.17.03-20.88 4.37-40.92 16.58-24.47 14.91-36.88 34.56-36.88 58.4 0 59.481 48.206 143.33 60.34 188.54 6.99-4.77 11.42-13 14.1-19.98-28.36-85.17-16.3-192.22-15.66-197.63 1.03-8.78 8.99-15.04 17.76-14.02 8.77 1.03 15.05 8.98 14.02 17.75-.15 1.27-12.25 109.14 15.58 187.78 1.02 2.458 6.545 19.879 18.11 37.21 23.82 35.74 55.44 52.18 81.55 59.66-2.704-9.304-2.07-14.423-2.07-37.12-25.97-.67-55.87-8.5-76.91-29.55-3.36-3.35-5.05-8.03-4.62-12.76 5.28-58.09 35.97-88.59 60.78-103.95 7.51-4.65 17.37-2.34 22.02 5.18 4.66 7.51 2.33 17.37-5.18 22.02-25.05 15.51-40.1 39.61-44.81 71.71 29.754 22.504 79.087 15.936 87.03 7.75 1.669-3.003 3.75-4.466 4.03-4.74-18.51-4.97-33.27-22.8-33.27-37.32 0-39.403 86.4-39.529 86.4 0 0 14.521-14.76 32.35-33.27 37.32.105 0 2.495 1.979 4.03 4.74 8.286 8.541 57.64 14.479 87.03-7.75-4.71-32.1-19.76-56.2-44.81-71.71-7.51-4.65-9.84-14.51-5.18-22.02 4.65-7.51 14.51-9.84 22.02-5.18 24.81 15.36 55.5 45.86 60.78 103.95.43 4.73-1.26 9.41-4.62 12.76-21.04 21.04-50.94 28.88-76.91 29.55 0 23.575.547 28.128-2.07 37.13 34.21-9.75 61.65-29.81 81.55-59.67 11.61-17.383 17.468-35.663 18.11-37.21 27.83-78.64 15.73-186.51 15.58-187.78-1.02-8.77 5.26-16.72 14.03-17.75 8.78-1.03 16.72 5.24 17.75 14.02.64 5.41 12.7 112.46-15.66 197.63 2.68 6.98 7.11 15.21 14.1 19.98 12.179-45.376 60.34-129.004 60.34-188.54 0-23.84-12.41-43.49-36.88-58.4zm-305.25 116.21c-12.52 0-22.67-10.15-22.67-22.67s10.15-22.66 22.67-22.66 22.66 10.14 22.66 22.66-10.14 22.67-22.66 22.67zm172.26 0c-12.52 0-22.66-10.15-22.66-22.67s10.14-22.66 22.66-22.66 22.67 10.14 22.67 22.66-10.15 22.67-22.67 22.67z"/></svg>