<svg id="Layer_1" enable-background="new 0 0 512 512" height="512" viewBox="0 0 512 512" width="512" xmlns="http://www.w3.org/2000/svg"><path d="m387.802 118.187c-14.699-6.302-12.106-27.995 3.687-30.63l33.223-5.536c-21.529-24.654-63.758-33.54-96.383-36.256-11.021-.936-19.27-14.003-18.244-25.638-24.352 6.912-43.771 21.951-44.042 22.172-6.308 4.749-13.882 4.647-20.062.02-.382-.301-19.701-15.381-44.082-22.262 1.082 11.737-7.287 24.778-18.234 25.708-32.572 2.711-74.895 11.57-96.373 36.256l33.212 5.536c16.178 2.703 18.389 24.568 3.747 30.61-3.144 1.437-54.782 26.502-54.782 114.174 0 34.318 3.235 55.204 6.761 67.791 12.601-24.474 34.541-45.369 52.863-54.541 7.937-3.968 17.591-.753 21.559 7.183 3.958 7.916.773 17.541-7.113 21.529-2.27 1.175-48.392 25.618-49.347 84.257 6.641-3.386 11.453-4.159 14.457-4.159 8.881 0 16.074 7.193 16.074 16.074 0 24.909 6.87 62.456 20.032 86.95-2.712-21.097-2.28-52.391 13.984-84.93 27.324-54.666 77.502-60.88 80.952-89.964-36.414-13.324-10.816-57.052 16.305-57.052 27.329 0 52.653 43.752 16.305 57.052 3.446 29.056 53.631 35.303 80.952 89.964 16.265 32.539 16.697 63.833 13.974 84.93 13.246-24.488 20.042-62.456 20.042-86.97.02-8.861 7.203-16.054 16.074-16.054 3.004 0 7.806.774 14.436 4.149-1.095-59.353-48.704-83.936-49.256-84.207-7.936-3.968-11.161-13.623-7.183-21.569 3.968-7.937 13.622-11.151 21.559-7.183 17.81 8.915 39.871 29.307 52.863 54.541 3.526-12.588 6.761-33.474 6.761-67.791 0-89.662-54.179-113.923-54.721-114.154zm-228.5 95.74c-12.718 0-23.026-10.308-23.026-23.026s10.307-23.026 23.026-23.026c12.718 0 23.026 10.308 23.026 23.026 0 12.719-10.307 23.026-23.026 23.026zm193.389 0c-12.718 0-23.026-10.308-23.026-23.026s10.307-23.026 23.026-23.026 23.026 10.308 23.026 23.026c-.001 12.719-10.308 23.026-23.026 23.026z"/><path d="m334.768 418.898c-11.985 23.92-36.638 60.719-78.772 73.045-42.133-12.327-66.787-49.126-78.772-73.045 9.975-61.189 55.079-72.683 78.772-98.784 19.986 22.017 50.923 31.593 68.505 66.757 5.294 10.589 8.539 21.428 10.267 32.027z"/><path d="m490.343 406.341c-5.114-6.761-10.9-11.181-15.351-13.412-8.019-3.989-17.635-.677-21.569 7.193-.181.362-15.109 29.506-43.721 36.618 3.988-14.004 6.339-27.486 7.725-38.607.703.673 1.427 1.376 2.17 2.129 9.089 9.068 24.617 4.348 27.135-8.217 3.737-18.726 3.998-35.403 2.039-50.12 23.55-21.187 25.899-77.825 25.899-109.583 0-60.95-21.609-97.97-41.521-119.137l18.877-3.144c4.209-.703 7.957-3.044 10.438-6.51 4.8-6.705 3.034-13.641-.05-21.208 10.257 5.094 20.153 11.573 27.838 18.515-12.397 10.298-26.501 26.402-17.108 39.521 11.292 15.823 26.1 39.592 35.081 58.489-8.267 3.124-12.433 12.223-9.524 20.444.11.301 10.93 31.294 12.959 73.517 2.04 42.576-5.123 80.611-21.317 113.512z"/><path d="m102.301 436.771c-28.2-6.942-43.018-35.242-43.731-36.648-3.942-7.885-13.565-11.175-21.569-7.193-4.45 2.23-10.237 6.651-15.351 13.412-16.194-32.902-23.357-70.937-21.308-113.513 2.019-42.224 12.839-73.216 12.939-73.497 3.016-8.446-1.484-17.492-9.514-20.464 8.981-18.897 23.799-42.666 35.081-58.479 9.369-13.137-4.662-29.192-17.108-39.532 7.685-6.942 17.581-13.422 27.838-18.515-3.08 7.557-4.853 14.499-.05 21.208 2.481 3.466 6.229 5.806 10.438 6.51l18.877 3.144c-19.911 21.167-41.521 58.187-41.521 119.137 0 31.663 2.33 88.38 25.899 109.583-1.959 14.717-1.698 31.394 2.039 50.12 2.514 12.549 18.036 17.295 27.135 8.217.743-.753 1.467-1.456 2.17-2.129 1.386 11.132 3.747 24.624 7.736 38.639z"/></svg>