<svg id="Layer_1" enable-background="new 0 0 512 512" height="512" viewBox="0 0 512 512" width="512" xmlns="http://www.w3.org/2000/svg"><path d="m69.12 391.491c-17.818 3.835-33.336 13.114-39.54 13.47-2.27-.84-9.61-7.73-16.3-29.59-8.69-28.39-13.28-72.19-13.28-126.67 0-27.73 3.308-79.887 25.27-97.07-1.029 21.836.339 43.181-2.75 67.88-7.718 61.803 14.448 120.027 45.53 149.86-.68 7.441-.175 14.849 1.07 22.12z"/><path d="m285.33 406.571v50.66c0 16.17-13.16 29.33-29.33 29.33s-29.33-13.16-29.33-29.33v-50.66c10.74-2.67 21.19-7.03 29.33-13.98 8.14 6.95 18.59 11.31 29.33 13.98z"/><path d="m512 248.701c0 54.48-4.59 98.28-13.28 126.67-6.69 21.86-14.03 28.75-16.3 29.59-6.127-.352-21.879-9.669-39.54-13.47 1.24-7.242 1.753-14.655 1.07-22.12 31.033-29.786 53.251-88.031 45.53-149.86-3.088-24.689-1.728-46.188-2.75-67.88 21.962 17.182 25.27 69.34 25.27 97.07z"/><path d="m457.72 223.481c-9.442-75.831 17.512-111.879-65.83-170.21-76.69-53.68-121.56-13.69-124.58-10.86h-22.62c-3.02-2.84-47.89-42.82-124.58 10.86-83.318 58.314-56.292 93.608-65.83 170.21-5.31 42.434 6.485 84.979 25.95 111.39 4.12-6.64 9.24-13.21 15.38-19.69 6.08-6.41 16.21-6.68 22.62-.59 6.41 6.08 6.68 16.2.59 22.62-20.314 21.421-22.993 38.785-14.77 61.85.35.75.64 1.54.87 2.35 12.75 32.76 45.68 60.92 61.11 72.78 30.851-18.564 28.64-13.356 28.64-16.96v-46.72c-8.229.181-16.254-.207-22.04-.84-8.78-.98-15.11-8.89-14.13-17.67.97-8.78 8.87-15.1 17.65-14.14 18.631 2.031 61.08.651 63.67-17.77-16.28-8.84-27.02-28.97-27.02-38.86 0-15.46 16.55-25.07 43.2-25.07s43.2 9.61 43.2 25.07c0 9.89-10.74 30.02-27.01 38.86 2.517 18.364 45.533 19.783 63.64 17.77 8.78-.96 16.7 5.35 17.67 14.14.98 8.78-5.35 16.69-14.13 17.67-5.782.632-13.814 1.02-22.04.84v46.72c0 3.614-2.433-1.738 28.64 16.96 15.42-11.86 48.36-40.01 61.11-72.78.23-.81.52-1.6.87-2.35 8.221-23.061 5.547-40.425-14.77-61.85-6.09-6.42-5.82-16.54.59-22.62 6.41-6.09 16.54-5.82 22.62.59 6.14 6.48 11.26 13.05 15.38 19.69 19.491-26.446 31.254-69.011 25.95-111.39zm-292.39 25.22c-15.02 0-27.2-12.18-27.2-27.2 0-15.03 12.18-27.2 27.2-27.2 15.03 0 27.2 12.17 27.2 27.2 0 15.02-12.17 27.2-27.2 27.2zm181.34 0c-15.03 0-27.2-12.18-27.2-27.2 0-15.03 12.17-27.2 27.2-27.2 15.02 0 27.2 12.17 27.2 27.2 0 15.02-12.18 27.2-27.2 27.2z"/></svg>