<svg id="Layer_1" enable-background="new 0 0 512 512" height="512" viewBox="0 0 512 512" width="512" xmlns="http://www.w3.org/2000/svg"><path d="m284.88 312.694c-2.47 6.69-10.27 23.22-28.88 29.67-18.49-6.42-26.34-22.9-28.87-29.69.53-1.39 1.62-3.46 3.82-5.69 3-2.27 15.12-4.44 25.03-4.47 9.95.03 22.07 2.2 25.07 4.47 2.22 2.25 3.3 4.32 3.83 5.71z"/><path d="m348.8 377.174c0 10.347-9.682 27.017-30.05 37.25-12.7-4.77-44.76-19.21-46.66-44 34.97-15.26 44.35-51.15 44.77-52.83 2.516-10.305-4.856-24.906-13.28-33.33-18.329-18.329-76.823-18.337-95.16 0-9.381 9.381-15.584 23.891-13.28 33.33.42 1.68 9.8 37.57 44.77 52.83-1.92 24.6-34.01 39.17-46.68 43.99-20.542-10.348-30.03-27.065-30.03-37.24 0-9.286-1.508-7.07-.19-15.7 17.18-111.669 58.016-126.206 68.04-136.18 2.51-2.51 4.12-5.79 4.56-9.32 4.68-37.31 11.7-81.89 15.31-92.24 1.75-1.91 3.45-4 5.08-6.16 1.63 2.16 3.33 4.26 5.08 6.16 3.61 10.35 10.62 54.92 15.31 92.24.44 3.53 2.05 6.81 4.56 9.32 10.678 10.625 50.938 25.017 68.04 136.18 1.315 8.611-.19 6.199-.19 15.7z"/><path d="m433.09 123.124c-4.9-7.34-10.83-11.35-18.14-12.27-4.89-.61-8.79.43-8.82.44-6.44 2.14-13.53 0-17.69-5.36-23.26-29.9-51.6-47.25-84.23-51.56-24.75-3.27-43.05 2.48-43.23 2.54-2.222.888-6.614 1.304-10.59-.18-3.42-.97-20.42-5.29-42.6-2.36-32.63 4.31-60.97 21.66-84.23 51.56-4.26 5.48-11.07 7.76-17.59 5.39-3.02-.85-16.74-3.68-27.06 11.8-18.475 27.713-78.91 88.239-78.91 145.25 0 59.505 36.228 85.628 36.27 135.91.68 5.91 17.2 26.12 45.27 42.35 18.6 10.75 30.69 12.6 34.33 11.85 4.967-19.318-26.082-94.958-37.65-165.44-1.23-2.73-1.64-5.64-1.3-8.44-5.96-41.46-5.63-84.18 10.18-122.11 3.4-8.16 12.76-12.02 20.92-8.62s12.01 12.77 8.62 20.93c-13.38 32.11-13.29 70.04-7.67 107.57 5.636 8.11 18.98 22.1 29.82 36.44 18.99-78.02 50.95-102.16 65.9-113.29 1.14-8.69 3.34-24.96 5.89-41.45 8.27-53.44 12.01-57.18 15.97-61.14 5.23-5.23 12.07-16.92 15.14-23.05 5.917-11.769 22.744-11.743 28.62.01 3.07 6.12 9.91 17.81 15.14 23.04 3.96 3.96 7.7 7.7 15.97 61.14 2.55 16.49 4.75 32.76 5.89 41.45 14.95 11.13 46.91 35.27 65.9 113.29 11.02-14.578 24.01-28.08 29.82-36.44 5.62-37.53 5.71-75.46-7.67-107.57-3.39-8.16.46-17.53 8.62-20.93s17.52.46 20.92 8.62c15.81 37.93 16.14 80.65 10.18 122.11.34 2.8-.07 5.71-1.3 8.44-11.356 69.189-42.576 146.284-37.65 165.44 3.65.75 15.74-1.1 34.33-11.85 28.07-16.23 44.59-36.44 45.27-42.35.042-50.186 36.27-76.54 36.27-135.91 0-57.032-60.469-117.588-78.91-145.25zm-272.29 90.85c-12.52 0-22.67-10.14-22.67-22.66s10.15-22.67 22.67-22.67 22.67 10.15 22.67 22.67-10.15 22.66-22.67 22.66zm190.4 0c-12.52 0-22.67-10.14-22.67-22.66s10.15-22.67 22.67-22.67 22.67 10.15 22.67 22.67-10.15 22.66-22.67 22.66z"/></svg>