<svg id="Layer_1" enable-background="new 0 0 512 512" height="512" viewBox="0 0 512 512" width="512" xmlns="http://www.w3.org/2000/svg"><path d="m512 347.215c0 42.67-1.61 74.1-9.45 88.8-3.81 7.15-9.3 13.07-38.02 13.07-29.88 0-46.11-21.52-53.13-34.36 45.18-47.35 45.26-69.19 41.11-81.64-2.5-7.5-2.65-39.17 2.91-90.99 2.42-22.59 5.16-42 7.66-56.82 32.47 62.2 48.92 116.57 48.92 161.94z"/><path d="m425.91 119.115c-12.59-12.54-32.08-28.11-61.34-49.01-23.29-16.64-44.93-22.26-62.21-23.18 12.04 24.98 13.76 49.51 4.61 70.86-10.16 23.71-17.54 63.17 3.48 117.97 38.18 8.86 65.1 29.42 78.12 59.83 11.07 25.81 17.96 50.33 20.55 72.71 10.89-14.61 13.33-22.7 12.99-25.21-10.419-31.735 8.114-180.618 19.05-202.49.02-.26.21-6.08-15.25-21.48zm-92.84 101.17c-12.52 0-22.67-10.15-22.67-22.67s10.15-22.67 22.67-22.67 22.66 10.15 22.66 22.67-10.14 22.67-22.66 22.67z"/><path d="m376.26 408.425c-2.43 11.39-7.05 20.55-13.71 27.21-14.12 14.13-57.52 24.51-90.55 29.43v-86.79c15.56-5.99 27.2-19.68 27.2-31.06 0-15.46-16.55-25.07-43.2-25.07s-43.2 9.61-43.2 25.07c0 11.38 11.64 25.07 27.2 31.06v86.8c-33.01-4.91-76.4-15.29-90.55-29.44-6.66-6.66-11.28-15.82-13.71-27.21-5.56-25.96.52-61.56 17.1-100.24 9.7-22.63 30.95-37.01 63.16-42.73 5.48-.97 10.06-4.72 12.09-9.9.19-.48.45-1.1.77-1.87 28.04-68.08 18.51-118.33 5.58-148.51-7.86-18.34-.46-38.26 9.25-53.92 7.885 2.666.998 2 19.47 2 .53-.25 2.31-1.04 5.15-2 9.71 15.66 17.11 35.58 9.25 53.92-12.93 30.18-22.46 80.43 5.58 148.51.32.77.58 1.39.77 1.87 2.03 5.18 6.61 8.93 12.09 9.9 32.21 5.72 53.46 20.1 63.16 42.73 16.58 38.68 22.66 74.28 17.1 100.24z"/><path d="m205.03 117.785c-9.15-21.35-7.43-45.88 4.61-70.86-17.28.92-38.91 6.54-62.21 23.18-29.26 20.9-48.75 36.47-61.34 49.01-15.46 15.4-15.27 21.22-15.26 21.46 10.993 21.985 29.46 170.831 19.06 202.51-.34 2.51 2.1 10.6 12.99 25.21 2.59-22.38 9.48-46.9 20.55-72.72 13.02-30.4 39.94-50.96 78.12-59.82 21.02-54.8 13.64-94.26 3.48-117.97zm-26.1 102.5c-12.52 0-22.66-10.15-22.66-22.67s10.14-22.67 22.66-22.67 22.67 10.15 22.67 22.67-10.15 22.67-22.67 22.67z"/><path d="m100.6 414.735c-7 12.8-23.23 34.35-53.13 34.35-28.72 0-34.21-5.92-38.02-13.07-7.84-14.7-9.45-46.13-9.45-88.8 0-45.37 16.45-99.74 48.92-161.94 8.819 52.28 15.668 132.517 10.57 147.81-4.15 12.45-4.08 34.29 41.11 81.65z"/></svg>