<svg id="Layer_1" enable-background="new 0 0 512 512" height="512" viewBox="0 0 512 512" width="512" xmlns="http://www.w3.org/2000/svg"><path d="m302.1 499.54c-12.884 5.87-19.375 12.46-46.1 12.46-26.726 0-33.241-6.601-46.1-12.46 9.04-16.11 18.53-28.07 46.1-28.07s37.06 11.96 46.1 28.07z"/><path d="m285.33 373.87c0 2.78-10.4 11.2-29.33 11.2s-29.33-8.42-29.33-11.2c0-2.79 10.4-11.2 29.33-11.2s29.33 8.41 29.33 11.2z"/><path d="m385.07 419.2c0 92.8-11.67 92.8-29.34 92.8-9.24 0-12.81-4.33-22.12-21.54-9.71-17.97-23.83-44.04-61.61-49.82v-25c24.111-4.381 45.33-19.46 45.33-41.77 0-27.946-31.83-43.2-61.33-43.2-30.539 0-61.33 15.996-61.33 43.2 0 22.74 21.788 37.492 45.33 41.77v25c-37.78 5.78-51.9 31.85-61.61 49.82-9.31 17.21-12.88 21.54-22.12 21.54-17.67 0-29.34 0-29.34-92.8 0-47.063 85.328-91.757 129.07-109.71 43.59 17.89 129.07 62.621 129.07 109.71z"/><path d="m431.54 343.54c-19.996-50.007 2.1-72.486-1.06-104.08-4.815-48.211-58.217-72.571-105.01-84.47-.101-.014-38.626-9.92-69.47-9.92-29.112 0-69.356 9.904-69.47 9.92-46.823 11.907-100.196 36.273-105.01 84.47-3.169 31.693 18.961 54.012-1.06 104.08-5.86 14.63 4.09 28.22 20.3 46.92 20.047-49.327 90.188-88.314 139.24-108.99v-34.54c0-8.83 7.16-16 16-16s16 7.17 16 16v34.54c49.07 20.684 119.196 59.67 139.24 108.99 16.21-18.7 26.16-32.29 20.3-46.92zm-297.94-15.01c-17.53 0-31.73-14.2-31.73-31.73s14.2-31.73 31.73-31.73 31.73 14.2 31.73 31.73-14.2 31.73-31.73 31.73zm244.8 0c-17.53 0-31.73-14.2-31.73-31.73s14.2-31.73 31.73-31.73 31.73 14.2 31.73 31.73-14.2 31.73-31.73 31.73z"/><path d="m447.59 193.44c-21.444-33.987-61.351-53.809-99.64-65.41 3.47-16.66 10.44-45.23 21.93-72.42 8.77-20.77 26.85-55.61 49.32-55.61 11.2 0 16.33 4.09 19.21 7.17 15.94 17.01 12.97 62.72 11.19 90.03-1.627 25.212-1.856 29.364 2.7 53.28 3.65 19.15 6.02 31.7-4.71 42.96z"/><path d="m164.05 128.03c-38.308 11.607-78.202 31.433-99.64 65.41-16.946-17.783-.94-41.649-.94-73.44 0-25.355-10.031-91.326 10.12-112.83 2.88-3.08 8.01-7.17 19.21-7.17 22.47 0 40.55 34.84 49.32 55.61 11.49 27.19 18.46 55.76 21.93 72.42z"/></svg>