<svg id="Layer_1" enable-background="new 0 0 512 512" height="512" viewBox="0 0 512 512" width="512" xmlns="http://www.w3.org/2000/svg"><path d="m158.39 385.26c-.205 68.553-7.949 99.54-74.66 99.54-30.12 0-52.69-11.15-67.07-33.14-15.46-23.63-16.66-51.64-16.66-59.66 0-35.47 0-84.04 40.65-124.69 18.42-18.42 32.56-39.45 43.03-58.49 17.125 68.895 59.378 85.973 65.81 131.04 2.41 16.87 4.87 32.07 8.9 45.4z"/><path d="m512 392c0 8.02-1.2 36.03-16.66 59.66-14.38 21.99-36.95 33.14-67.07 33.14-66.987 0-74.456-31.43-74.66-99.54 4.03-13.33 6.49-28.53 8.9-45.4 6.402-44.858 48.743-62.377 65.81-131.04 10.47 19.04 24.61 40.07 43.03 58.49 40.65 40.65 40.65 89.22 40.65 124.69z"/><path d="m256 27.2c-90.395 0-147.2 29.714-147.2 120 0 113.49 62.247 117.183 72.37 188.14 5.9 41.251 8.051 39.902 8.94 44.63 8.44 24.23 24.06 32.3 65.89 32.3 60.97 0 66.266-17.059 74.83-76.93 10.115-70.901 72.37-74.721 72.37-188.14 0-90.364-56.907-120-147.2-120zm-63.47 228.8c-10.01 0-18.13-8.12-18.13-18.13 0-10.02 8.12-18.14 18.13-18.14 10.02 0 18.14 8.12 18.14 18.14 0 10.01-8.12 18.13-18.14 18.13zm11.2 90.67c0-8.01 3.77-34.14 52.27-34.14s52.27 26.13 52.27 34.14c0 69.523-104.54 69.548-104.54 0zm115.74-90.67c-10.02 0-18.14-8.12-18.14-18.13 0-10.02 8.12-18.14 18.14-18.14 10.01 0 18.13 8.12 18.13 18.14 0 10.01-8.12 18.13-18.13 18.13z"/><path d="m276.25 347.86c-.65 17.67-15.6 19.07-20.25 19.07s-19.6-1.4-20.25-19.07c7.828-4.445 32.688-4.435 40.5 0z"/></svg>