<svg id="Layer_1" enable-background="new 0 0 512.101 512.101" height="512" viewBox="0 0 512.101 512.101" width="512" xmlns="http://www.w3.org/2000/svg"><path d="m285.983 449.655c-18.008 4.625-41.826 4.631-59.86 0 17.517-25.023 12.412-73.34 29.93-73.34 17.581 0 12.326 48.193 29.93 73.34z"/><path d="m336.933 429.025c-2.751 3.342-7.047 4.861-11.32 5.53-2.494.374-5.849.462-6.42.41-23.459 0-4.679-90.65-63.14-90.65-58.541 0-39.703 90.65-63.14 90.65-2.809.256-8.942-.554-11.75-1.78-20.975-7.724-12.336-65.414-9-88.74 3.53-24.78 12.66-41.61 23.79-53.05 3.13 10.33 12.29 20.65 28.2 31.89 12.12 8.56 24.09 14.74 24.59 14.99 4.565 2.342 9.983 2.379 14.62 0 .5-.25 12.47-6.43 24.59-14.99 15.91-11.24 25.07-21.56 28.2-31.89 11.13 11.44 20.26 28.27 23.79 53.05 2.98 20.84 9.95 69.64-3.01 84.58z"/><path d="m285.343 282.515c-2.31 4.94-15.29 15.12-29.29 23.28-14-8.16-26.98-18.34-29.29-23.28.996-8.647 16.089-15 29.29-15 14.542 0 28.384 7.136 29.29 15z"/><path d="m501.693 318.955c5.11 23.32 5.72 30.86 1.6 35.25-16.321-9.846-39.378-51.137-48.18-68.16-46.765-90.469-48.349-140.623-62.27-205.3 49.694 8.519 112.212 30.591 118.67 80.59 2.226 17.791-2.198 32.337-7.71 48.85-10.711 32.157-14.643 51.505-2.11 108.77z"/><path d="m366.333 111.855c-6.708-35.963-6.084-32.714-12.68-39.31-.95-.89-15.1-13.57-43.2-13.57-29.6 0-45.49 6.61-47.24 7.38h-14.32c-1.75-.77-17.64-7.38-47.24-7.38-28.1 0-42.25 12.68-43.2 13.57-9.172 9.173-4.491.264-22.71 91.44-7.39 36.932-25.466 89.415-52.12 140.22 4.063 16.355 13.107 42.479 27.17 51.86 9.66 6.44 18.18 12.84 25.65 18.89.83-10.78 2.24-22.45 4.04-35.04 9.375-65.686 55.72-102.855 112.26-104.34 58.758-2.135 109.165 36.271 118.88 104.34 1.8 12.59 3.21 24.26 4.04 35.04 7.47-6.05 15.99-12.45 25.65-18.89 14.063-9.381 23.108-35.507 27.17-51.86-38.354-73.105-48.406-118.631-62.15-192.35zm-205.48 121.52c-12.52 0-22.67-10.14-22.67-22.66s10.15-22.67 22.67-22.67 22.67 10.15 22.67 22.67-10.15 22.66-22.67 22.66zm55.11-74.44c-3.622 7.257-12.114 10.65-19.72 7.9-1.585-.564-7.695-4.082-11.49-2.82-6.28 5.31-15.69 5-21.61-.92-6.25-6.25-6.25-16.38 0-22.63 8.905-8.905 26.839-12.51 45.66-3 7.91 3.95 11.11 13.57 7.16 21.47zm101.65 7.15c-7.938 3.969-17.533.738-21.47-7.15-3.95-7.9-.75-17.52 7.16-21.47 12.883-6.509 28.409-8.257 40.89-.68 11.668 7.121 11.706 19.374 4.77 26.31-5.92 5.92-15.33 6.23-21.61.92-2.788-.927-7.113.756-9.74 2.07zm33.64 67.29c-12.52 0-22.67-10.14-22.67-22.66s10.15-22.67 22.67-22.67 22.67 10.15 22.67 22.67-10.15 22.66-22.67 22.66z"/><path d="m119.263 80.745c-13.559 62.999-15.257 114.352-62.27 205.3-8.786 16.994-31.852 58.31-48.18 68.16-4.12-4.39-3.51-11.93 1.6-35.25 12.546-57.324 8.575-76.691-2.11-108.77-5.553-16.634-9.94-31.024-7.71-48.85 6.467-50.072 69.144-72.1 118.67-80.59z"/></svg>