<svg height="512" viewBox="0 0 64 64" width="512" xmlns="http://www.w3.org/2000/svg"><g id="Filled_outline" data-name="Filled outline"><path d="m41 5-7-2h-4-5l3.521 4.225-5.521 15.775 3 4 3-1 2 4 2-3 3 2 2-3 3 1v-4l-2-11 2-2z" fill="#eaeadc"/><path d="m23 23-3-2c-2-1.335-3.924-.152-5 2l-6 12 14 13z" fill="#995f5b"/><path d="m41 23 3-2c2-1.335 3.924-.152 5 2l6 12-14 13z" fill="#995f5b"/><path d="m41 5 6 2v6l-3-3-3-1z" fill="#f9bb4b"/><path d="m36 29-3-2-2 3-2-4-3 1-3-4v25h4l5-7 5 7h4v-21l-3-1z" fill="#66342e"/><g fill="#ad6327"><path d="m41.667 59-.667-4h-2l-.667 4z"/><path d="m45 53v2l-.667 4h6.667v-6z"/><path d="m29 53v2l-.667 4h7.334l-.667-4v-2z"/><path d="m25.667 59-.667-4h-2l-.667 4z"/><path d="m19 55v-2h-6v6h6.667z"/></g><path d="m26 51 1-3h-4l-1 3-3 1v3l1 6h2l1-6h2l1 6h2l1-6v-3z" fill="#f9bb4b"/><path d="m38 51-1-3h4l1 3 3 1v3l-1 6h-2l-1-6h-2l-1 6h-2l-1-6v-3z" fill="#f9bb4b"/><path d="m21.848 48.3-.639 1.914-2.525.842a1 1 0 0 0 -.684.944h-5a1 1 0 0 0 -1 1v6a1 1 0 0 0 1 1h5.82l.194 1.165a1 1 0 0 0 .986.835h2a1 1 0 0 0 .986-.835l.194-1.165h1.64l.194 1.165a1 1 0 0 0 .986.835h2a1 1 0 0 0 .986-.835l.194-1.165h5.64l.194 1.165a1 1 0 0 0 .986.835h2a1 1 0 0 0 .986-.835l.194-1.165h1.64l.194 1.165a1 1 0 0 0 .986.835h2a1 1 0 0 0 .986-.835l.194-1.165h5.82a1 1 0 0 0 1-1v-6a1 1 0 0 0 -1-1h-5a1 1 0 0 0 -.684-.949l-2.525-.842-.639-1.909 13.529-12.567a1 1 0 0 0 .214-1.18l-6-12a5.386 5.386 0 0 0 -3.254-2.994 3.855 3.855 0 0 0 -3.2.609l-1.733 1.156-1.634-8.988 1.629-1.629a1 1 0 0 0 .221-.344l1.532.511 2.833 2.833a1 1 0 0 0 1.711-.707v-6a1 1 0 0 0 -.684-.949l-13.041-4.012a.983.983 0 0 0 -.275-.039h-9a1 1 0 0 0 -.768 1.64l3.158 3.79-4.908 14.023-1.927-1.285a3.859 3.859 0 0 0 -3.2-.609 5.386 5.386 0 0 0 -3.254 2.994l-6 12a1 1 0 0 0 .214 1.18zm-7.848 9.7v-4h4v1a.919.919 0 0 0 .014.165l.472 2.835zm31.986-2.835a.919.919 0 0 0 .014-.165v-1h4v4h-4.486zm-3.986-48.778 4 1.334v2.865l-1.293-1.293a1.013 1.013 0 0 0 -.391-.242l-2.316-.772zm-18.486 51.613.333-2h.306l.333 2zm6 0 .472-2.835a.919.919 0 0 0 .014-.165v-1h4v1a.919.919 0 0 0 .014.165l.472 2.835zm5.17-6.949a1 1 0 0 0 -.684.949h-4a1 1 0 0 0 -.684-.949l-2.051-.683.636-1.909 4.099-5.738 4.1 5.738.636 1.909zm4.83 6.949.333-2h.306l.333 2zm2.486-34.465 2.555-1.7a1.88 1.88 0 0 1 1.572-.34 3.513 3.513 0 0 1 1.978 1.955l5.666 11.33-1.547 1.436-4.324-8.663-1.79.894 4.59 9.184-1.5 1.391-4.29-9.436-1.82.828 4.565 10.042-1.492 1.385-2.244-5.235-1.838.788 2.525 5.893-2.606 2.42zm-1.721 25.465.772 2.316a1 1 0 0 0 .633.633l2.316.772v2.2l-.847 5.079h-.306l-.861-5.165a1 1 0 0 0 -.986-.835h-2a1 1 0 0 0 -.986.835l-.861 5.165h-.306l-.847-5.083v-2.2l2.316-.772a1 1 0 0 0 .633-1.265l-.562-1.68zm-10.814-41.444a1 1 0 0 0 -.176-.971l-2.154-2.585h6.725l6.14 1.754v3.832l-1.707 1.707a1 1 0 0 0 -.277.886l1.984 10.911v2.522l-1.684-.561a1 1 0 0 0 -1.148.394l-1.445 2.168-2.168-1.445a1 1 0 0 0 -1.387.277l-1.044 1.567-1.224-2.459a1 1 0 0 0 -1.211-.5l-2.316.772-2.248-3zm-5.465 18.444 1.2 1.6a1 1 0 0 0 1.116.349l2.178-.726 1.611 3.224a1 1 0 0 0 1.727.108l1.445-2.168 2.168 1.445a1 1 0 0 0 1.387-.277l1.576-2.365 1.592.531v19.279h-2.485l-4.7-6.581a1.037 1.037 0 0 0 -1.628 0l-4.702 6.581h-2.485zm-1.051 25.316.772-2.316h1.892l-.562 1.684a1 1 0 0 0 .633 1.265l2.316.772v2.2l-.847 5.079h-.306l-.861-5.165a1 1 0 0 0 -.986-.835h-2a1 1 0 0 0 -.986.835l-.861 5.165h-.306l-.847-5.083v-2.2l2.316-.772a1 1 0 0 0 .633-.629zm-7.049-27.869a3.513 3.513 0 0 1 1.978-1.955 1.877 1.877 0 0 1 1.572.34l2.55 1.703v22.172l-2.606-2.42 2.525-5.893-1.838-.788-2.244 5.235-1.492-1.385 4.565-10.042-1.82-.828-4.29 9.436-1.5-1.391 4.6-9.184-1.79-.894-4.329 8.66-1.547-1.436z"/><path d="m35 5.438h2v4.123h-2z" transform="matrix(.243 -.97 .97 .243 19.993 40.606)"/><path d="m30.707 35.707 1.293-1.293 1.293 1.293a1 1 0 0 0 1.414 0l3-3-1.414-1.414-2.293 2.293-1.293-1.293a1 1 0 0 0 -1.414 0l-1.293 1.293-2.293-2.293-1.414 1.414 3 3a1 1 0 0 0 1.414 0z"/></g></svg>