<?xml version="1.0" encoding="UTF-8"?>
<svg xmlns="http://www.w3.org/2000/svg" viewBox="0 0 64 64" width="512" height="512"><g id="Filled_outline" data-name="Filled outline"><path d="M36,36V32l2-3,2-5-1-8,3-3-1-2L38,9l-4,1L28,21.951,27,29v6L15.651,39.365a2,2,0,0,0-1.222,2.352l.063.25A2,2,0,0,0,17.007,43.4L25,41l-5.671,8.1a2,2,0,0,0,.744,2.936l.384.191a2,2,0,0,0,2.533-.642L29,43V55a2,2,0,0,0,2,2h0a2,2,0,0,0,2-2V43l4.893,8.971a2,2,0,0,0,2.956.642l.756-.566a2,2,0,0,0,.548-2.572L38,42l7.354,2.451a2,2,0,0,0,2.422-1l.239-.479a2,2,0,0,0-1.071-2.761Z" style="fill:#66342e"/><polygon points="36 26 40 24 39 16 42 13 41 11 38 9 34 10 28 21.951 31 25 34 23 36 26" style="fill:#eaeadc"/><path d="M28,21.951s-2,1-11-6L3,18H3a3,3,0,0,0,3,3h8L4,25l0,0c1.164,1.747,3.049,2.778,5,2l7-3-6,7h0c1.712,1.142,3.661,1.562,5,0l4-5-1,8h1c1.467,0,2.759-.553,3-2l1-4,4,1Z" style="fill:#995f5b"/><path d="M40,24a22.424,22.424,0,0,0,11-6l10,1h0a3,3,0,0,1-3,3H54l7,4-.43.86A3.164,3.164,0,0,1,56,28l-4-3,3,6h0c-1.8.6-3.813.484-5-1l-2-3,1,7h-.838a3,3,0,0,1-2.846-2.051L44,28l-1,5h0a3,3,0,0,1-3-3V29H38Z" style="fill:#995f5b"/><polygon points="42 13 46 17 43 21 42 18 39 16 42 13" style="fill:#f9bb4b"/><path d="M61.1,18.005l-10-1a1,1,0,0,0-.807.288,21.6,21.6,0,0,1-6.752,4.523A.991.991,0,0,0,43.8,21.6l3-4a1,1,0,0,0-.093-1.307l-3.885-3.885L41.9,10.553a1.018,1.018,0,0,0-.34-.385l-3-2a1,1,0,0,0-.8-.138l-4,1a1,1,0,0,0-.652.521L27.37,20.978c-.859-.129-3.506-.955-9.756-5.817a.994.994,0,0,0-.759-.2l-14,2.05A1,1,0,0,0,2,18a4,4,0,0,0,4,4H8.808L3.629,24.071a1,1,0,0,0-.459,1.486c1.55,2.327,3.986,3.258,6.224,2.362l3.05-1.307-3.2,3.737a1,1,0,0,0,.2,1.483c2.455,1.637,4.815,1.569,6.336-.207l1.787-2.235-.56,4.486A1,1,0,0,0,18,35h1c2.2,0,3.69-1.06,3.97-2.757l.758-3.03L26,29.781v4.532L15.292,38.432a3.006,3.006,0,0,0-1.833,3.53l.062.247a3,3,0,0,0,3.773,2.147l5.235-1.571L18.51,48.528a3,3,0,0,0,1.116,4.4l.384.192a3.017,3.017,0,0,0,3.8-.963L28,46.172V55a3,3,0,0,0,6,0V46.921l3.016,5.528a3,3,0,0,0,4.432.964l.756-.566a3.013,3.013,0,0,0,.823-3.858l-2.9-5.227L45.038,45.4a3.011,3.011,0,0,0,3.632-1.5l.239-.479a3,3,0,0,0-1.6-4.142L37,35.313V32.3L38.535,30H39a4,4,0,0,0,4,4,1,1,0,0,0,.98-.8l.262-1.308.126.377A3.993,3.993,0,0,0,48.162,35H49a1,1,0,0,0,.99-1.142l-.4-2.827a5.479,5.479,0,0,0,5.73.918,1,1,0,0,0,.579-1.4l-1.106-2.212.63.473a4.165,4.165,0,0,0,6.046-1.507l.43-.86a1,1,0,0,0-.4-1.315L57.766,23H58a4,4,0,0,0,4-4A1,1,0,0,0,61.1,18.005ZM42,14.414l2.68,2.68-1.335,1.779-.4-1.189a1,1,0,0,0-.393-.516L40.57,15.845Zm1.244,7.529a21.3,21.3,0,0,1-2.39.827l-.591-4.726.9.6.892,2.674a1,1,0,0,0,.788.671A.968.968,0,0,0,43,22,.984.984,0,0,0,43.244,21.943Zm-20,5.087a1,1,0,0,0-1.212.727l-1.016,4.078c-.124.745-.757,1.135-1.881,1.164l.859-6.875a1,1,0,0,0-1.773-.749L14.24,30.349a2.148,2.148,0,0,1-2.684.373l5.2-6.071a1,1,0,0,0-1.153-1.57L8.629,26.072a2.781,2.781,0,0,1-2.956-.664l8.7-3.479A1,1,0,0,0,14,20H6a2,2,0,0,1-1.816-1.163L16.724,17c5.478,4.222,8.49,5.575,10.131,5.9l-.689,4.857Zm13.868,1.5-1.942,2.913A1.006,1.006,0,0,0,35,32v4a1,1,0,0,0,.641.934l10.944,4.208a1,1,0,0,1,.535,1.381L46.881,43a1.006,1.006,0,0,1-1.21.5l-7.355-2.452a1,1,0,0,0-1.19,1.435l4.153,7.474a1.006,1.006,0,0,1-.274,1.287l-.757.566a1,1,0,0,1-1.477-.321l-4.893-8.971A1,1,0,0,0,32,43V55a1,1,0,0,1-2,0V43a1,1,0,0,0-1.819-.573L22.17,51.013a1,1,0,0,1-1.266.321l-.383-.192a1,1,0,0,1-.373-1.468l5.671-8.1a1,1,0,0,0-1.106-1.531l-7.993,2.4a1,1,0,0,1-1.258-.718l-.063-.247a1,1,0,0,1,.612-1.177l11.348-4.364A1,1,0,0,0,28,35V29.071l.706-4.977L30.287,25.7a1,1,0,0,0,1.268.131l2.168-1.445,1.445,2.168a1,1,0,0,0,1.279.34l1.648-.824Zm1.81-5.11-2.577,1.289-1.511-2.266a1,1,0,0,0-1.387-.277l-2.312,1.541-1.918-1.95,5.472-10.9,3.126-.781,2.412,1.607.558,1.118-2.49,2.49a1,1,0,0,0-.285.831ZM58,21H54a1,1,0,0,0-.5,1.868L59.683,26.4l-.007.014A2.169,2.169,0,0,1,56.6,27.2l-4-3a1,1,0,0,0-1.5,1.247l2.431,4.861a2.888,2.888,0,0,1-2.7-.863l-2-3a1,1,0,0,0-1.822.7l.834,5.833a2,2,0,0,1-1.579-1.343l-1.317-3.948A.985.985,0,0,0,43.937,27a1,1,0,0,0-.917.8l-.807,4.034A2,2,0,0,1,41,30V29a1,1,0,0,0-1-1h-.523l1.253-3.131a23.608,23.608,0,0,0,10.635-5.827l8.429.842A2,2,0,0,1,58,21Z"/><rect x="36" y="11.586" width="2" height="2.828" transform="translate(1.645 29.971) rotate(-45)"/></g></svg>
