<svg height="512" viewBox="0 0 64 64" width="512" xmlns="http://www.w3.org/2000/svg"><g id="Filled_outline" data-name="Filled outline"><path d="m57 22-4-7 2-2-4-1-2-2 2-2-5-1-4-3-9 1v-2l-10 4-3 5 1 2v3l11 4a33.661 33.661 0 0 0 -12 3l6 7-6 17 9-5 1 6 6-6 3 8 6-8 4 6 5-6 3 5 4-9z" fill="#eaeadc"/><path d="m37 13a3.992 3.992 0 0 0 -2.318-3.618l-5.43 2.263a3.96 3.96 0 0 0 -.252 1.355 4 4 0 0 0 8 0z" fill="#fff"/><path d="m20 24-7-1-6 2-4 2 1-6 3-4 5-5h8l1 2v3l11 4a33.661 33.661 0 0 0 -12 3z" fill="#f9bb4b"/><path d="m20 48 9-5 1 6 6-6 3 8 6-8 4 6 5-6 3 5 4-9v22h-51z" fill="#66342e"/><path d="m16 14.586h2v2.828h-2z" transform="matrix(.707 -.707 .707 .707 -6.335 16.707)"/><path d="m57.974 21.771a1.013 1.013 0 0 0 -.106-.267l-3.621-6.337 1.46-1.46a1 1 0 0 0 -.465-1.677l-3.73-.933-1.1-1.1 1.293-1.293a1 1 0 0 0 -.505-1.684l-4.777-.956-3.823-2.864a1 1 0 0 0 -.71-.194l-7.89.877v-.883a1 1 0 0 0 -1.371-.929l-10 4a1 1 0 0 0 -.486.414l-2.709 4.515h-7.434a1 1 0 0 0 -.707.293l-5 5a1.065 1.065 0 0 0 -.093.107l-3 4a1 1 0 0 0 -.186.435l-1 6a1 1 0 0 0 1.433 1.065l3.937-1.969 5.708-1.9 6.394.914 5.378 6.275-5.754 16.297-9.903 12.873a1 1 0 0 0 .793 1.61h51a1 1 0 0 0 1-1v-22a1.859 1.859 0 0 0 -.026-.229zm-44.832.239a1.015 1.015 0 0 0 -.458.041l-6 2a1 1 0 0 0 -.131.054l-2.243 1.123.636-3.823 2.812-3.748 4.656-4.657h6.968l.618 1.236v2.764a1 1 0 0 0 .658.94l7.092 2.579a40.852 40.852 0 0 0 -7.885 2.452zm13.8 9.323a1 1 0 0 0 -.184-.984l-5.098-5.949a32.076 32.076 0 0 1 10.34-2.4 1 1 0 0 0 .34-1.94l-10.34-3.76v-2.3a1 1 0 0 0 -.105-.447l-.755-1.509 2.545-4.244 8.315-3.323v.523a1 1 0 0 0 1.11.994l8.607-.956 3.683 2.762a.99.99 0 0 0 .4.18l3.168.634-.679.679a1 1 0 0 0 0 1.414l2 2a1 1 0 0 0 .465.263l2.286.572-.751.751a1 1 0 0 0 -.161 1.2l3.932 6.877 3.889 16.53-3.082 6.934-2.01-3.35a1 1 0 0 0 -1.626-.125l-4.142 4.971-3.257-4.886a1 1 0 0 0 -.8-.445.934.934 0 0 0 -.827.4l-4.905 6.54-2.358-6.29a1 1 0 0 0 -1.644-.356l-4.626 4.626-.681-4.084a1 1 0 0 0 -1.471-.709l-6.693 3.718zm33.058 28.667h-47.969l8.635-11.226 7.581-4.212.767 4.6a1 1 0 0 0 1.693.542l4.9-4.9 2.454 6.546a1 1 0 0 0 1.739.25l5.152-6.869 3.216 4.824a1 1 0 0 0 1.6.085l4.1-4.918 2.276 3.793a1 1 0 0 0 1.771-.109l2.085-4.694z"/><path d="m38 13a4.983 4.983 0 0 0 -1.328-3.364l1.713-.713-.77-1.846-11.577 4.823-1.591-.8-.894 1.79 2 1a1 1 0 0 0 .447.11.987.987 0 0 0 .385-.077l1.639-.683a4.991 4.991 0 0 0 9.976-.24zm-8 0a2.669 2.669 0 0 1 .072-.613l1.3-.542a2 2 0 1 0 1.949-.812l1.3-.543a3 3 0 1 1 -4.621 2.51z"/><path d="m25.307 36.5h5.385v2.001h-5.385z" transform="matrix(.371 -.928 .928 .371 -17.217 49.57)"/><path d="m31 37h2v5h-2z"/><path d="m43.445 20.168 1.11 1.664a3.625 3.625 0 0 0 1.762-2.684 5.375 5.375 0 0 0 -1.61-3.855l-1.414 1.414a3.445 3.445 0 0 1 1.034 2.245 1.709 1.709 0 0 1 -.882 1.216z"/><path d="m41.168 24.445 1.664 1.11c1.941-2.913.113-6.024-1.125-7.262l-1.414 1.414c.024.024 2.407 2.447.875 4.738z"/><path d="m55 32.838h1.999v6.325h-1.999z" transform="matrix(.949 -.316 .316 .949 -8.51 19.556)"/><path d="m50.5 30.646h2v6.708h-2z" transform="matrix(.894 -.447 .447 .894 -9.768 26.621)"/></g></svg>