<svg height="512" viewBox="0 0 64 64" width="512" xmlns="http://www.w3.org/2000/svg"><g id="Filled_outline" data-name="Filled outline"><path d="m29 47 1.8 12.621a1.607 1.607 0 0 0 1.593 1.379 1.606 1.606 0 0 0 1.607-1.607v-8.393l4.57 5.331a2.035 2.035 0 0 0 2.984.115l.007-.007a2.035 2.035 0 0 0 0-2.878l-4.561-4.561 8.609 1.722a1.606 1.606 0 0 0 1.839-1.067v-.009a1.606 1.606 0 0 0 -1.134-2.067l-6.314-1.579 7.907-1.581a2.036 2.036 0 0 0 1.575-2.49 2.035 2.035 0 0 0 -2.422-1.492l-13.091 2.949z" fill="#eaeadc"/><path d="m34 25s5-8 6-10 1-5 6-4 15-1 15-1v.589c0 1.457-1.587 3.055-3 3.411a37.359 37.359 0 0 1 -9 1 43.6 43.6 0 0 0 12 2v.67c0 1.86-2.145 3.468-4 3.33a31.529 31.529 0 0 1 -9-2s5 5 10 6a3.069 3.069 0 0 1 -4 2 67.308 67.308 0 0 1 -7-3 44.322 44.322 0 0 0 5 6 4.712 4.712 0 0 1 -6-1c-.684-.777-2-2-2-2s0 4 1 6a5.117 5.117 0 0 1 -5.236-1.236l-.764-.764z" fill="#995f5b"/><path d="m23 29-2-5-2-5 1.756-1.171c-3.546-.962-8.662-4.303-12.756-14.829a4.28 4.28 0 0 0 -1.829 5.908l2.829 5.092-5-3c-.611 2.446-.937 4.386 1 6l4 3h-6a4 4 0 0 0 4 4h3l-5 5a4.239 4.239 0 0 0 6 0l1-1-1 6 .932.233a3.415 3.415 0 0 0 4.068-2.233l1-2 1 6a4.323 4.323 0 0 0 4-3l1.111-3.333z" fill="#995f5b"/><path d="m19 19-5 4 1 5 3-4h3z" fill="#f9bb4b"/><path d="m24 35-1 6-4 4 1 2 6-2-5 5 2 2 6-5 11-8-1-8-6-7-2 1 1 3h-4l1 4h-3z" fill="#66342e"/><path d="m34 14-4.2 1-1.8-4-3 4-6 4 2 5 2 5 1 6 2-3h3l-1-4h4l-1-3 2-1v-4l-1.778-2.222z" fill="#eaeadc"/><path d="m60.8 9.02c-.1.019-9.86 1.947-14.608 1-4.956-.991-5.986 1.719-6.667 3.512a10.8 10.8 0 0 1 -.424 1.021c-.72 1.441-3.64 6.189-5.1 8.553v-3.106a1 1 0 0 0 -.219-.625l-1.3-1.623 2.324-3.16a1 1 0 0 0 -1.037-1.565l-3.4.809-1.457-3.246a1 1 0 0 0 -.8-.584 1.012 1.012 0 0 0 -.91.394l-2.9 3.863-3.702 2.471c-3.318-1.059-7.892-4.4-11.664-14.1a1 1 0 0 0 -.573-.571 1.011 1.011 0 0 0 -.808.039 5.281 5.281 0 0 0 -2.255 7.292l1.015 1.827-1.8-1.078a1 1 0 0 0 -1.485.614c-.544 2.177-1.221 4.886 1.37 7.043l1.6 1.2h-3a1 1 0 0 0 -1 1 5.006 5.006 0 0 0 5 5h.586l-3.293 3.293a1 1 0 0 0 0 1.416 5.25 5.25 0 0 0 6.262.87l-.543 3.256a1 1 0 0 0 .744 1.135l.931.233a4.444 4.444 0 0 0 4.836-1.978l.491 2.94a1 1 0 0 0 .986.835 5.287 5.287 0 0 0 4.775-3.253l.211 1.253-.92 5.52-3.773 3.773a.99.99 0 0 0 -.246.97l-1.54.514-.607-1.224a1 1 0 0 0 -.579-.5l-3-1-.632 1.9 2.607.869 1.555 3.11-1.678 2.517 1.664 1.11.484 1.394 2.414-.8 2.265 2.261v1.586h2v-2a1 1 0 0 0 -.293-.707l-1.293-1.293.586-.586.293.293a1 1 0 0 0 1.347.061l4.623-3.855 1.55 10.849a2.607 2.607 0 0 0 5.187-.368v-5.694l2.81 3.279a3.04 3.04 0 1 0 4.458-4.128l-2.226-2.226 5.371 1.075a2.611 2.611 0 0 0 1.147-5.093l-2-.5 3.54-.707a3.036 3.036 0 1 0 -1.263-5.938l-8.366 1.886 2.114-1.538a1 1 0 0 0 .4-.933l-.68-5.444a6.053 6.053 0 0 0 3.056.835 6.146 6.146 0 0 0 1.948-.318 1 1 0 0 0 .579-1.4 9.938 9.938 0 0 1 -.728-2.985l.083.093a5.715 5.715 0 0 0 7.305 1.171 1 1 0 0 0 .152-1.539c-.927-.927-1.759-1.858-2.462-2.7 1.1.466 2.234.912 3.412 1.342a4.018 4.018 0 0 0 3.15-.132 4.22 4.22 0 0 0 2.169-2.555 1 1 0 0 0 -.769-1.225 16.417 16.417 0 0 1 -5.7-2.654 34.009 34.009 0 0 0 4.426.634 4.969 4.969 0 0 0 3.674-1.38 4.059 4.059 0 0 0 1.4-2.95v-.67a1 1 0 0 0 -1-1 34.408 34.408 0 0 1 -5.466-.483c.95-.149 1.857-.332 2.711-.547 1.776-.449 3.755-2.358 3.755-4.381v-.589a1 1 0 0 0 -1.2-.98zm-41.277 13.98h-1.523a1 1 0 0 0 -.8.4l-1.658 2.211-.442-2.211 3.472-2.778zm1.52 9.71a3.342 3.342 0 0 1 -2.216 2.167l-.841-5.042a1 1 0 0 0 -.837-.824.943.943 0 0 0 -.149-.011 1 1 0 0 0 -.895.553l-1 2a1 1 0 0 0 -.054.131 2.431 2.431 0 0 1 -2.877 1.579l-.036-.01.848-5.088a1 1 0 0 0 -1.693-.872l-1 1a3.246 3.246 0 0 1 -3.766.594l4.182-4.182a1 1 0 0 0 -.709-1.705h-3a3.006 3.006 0 0 1 -2.829-2h4.829a1 1 0 0 0 .6-1.8l-3.96-2.968c-1.109-.924-1.285-1.932-.966-3.661l3.811 2.286a1 1 0 0 0 1.389-1.343l-2.829-5.092a3.29 3.29 0 0 1 .5-3.869c3.467 8.3 7.618 11.973 11.015 13.537l-5.187 4.129a1 1 0 0 0 -.355.977l1 5a1 1 0 0 0 .759.779.986.986 0 0 0 .223.025 1 1 0 0 0 .8-.4l2.7-3.6h1.823l1.708 4.271.053.315zm-.813-13.328 5.325-3.55a1 1 0 0 0 .245-.232l1.983-2.644 1.105 2.454a1 1 0 0 0 1.143.563l1.548-.369-1.162 1.582a1 1 0 0 0 .024 1.216l1.559 1.949v3.031l-1.447.723a1 1 0 0 0 -.5 1.211l.56 1.684h-2.613a1 1 0 0 0 -.97 1.243l.689 2.757h-1.719a1 1 0 0 0 -.832.445l-.6.9-.585-3.506a1.01 1.01 0 0 0 -.057-.207zm.063 29.911a1 1 0 0 0 0 1.414l.293.293-.586.586-.293-.293a1 1 0 0 0 -1.023-.242l-2.378.793 1.526-2.289a1 1 0 0 0 .063-1l-.485-.969 1.512-.5.183.367a1 1 0 0 0 1.211.5l1.981-.661zm26.987-7.88a1.035 1.035 0 1 1 .43 2.025l-7.91 1.582a1 1 0 0 0 -.047 1.95l6.317 1.579a.6.6 0 0 1 .384.3.612.612 0 0 1 -.652.9l-8.602-1.729a1 1 0 0 0 -.9 1.687l4.561 4.561a1.042 1.042 0 0 1 -.779 1.773 1.023 1.023 0 0 1 -.746-.361l-4.57-5.331a1 1 0 0 0 -1.766.651v8.394a.607.607 0 0 1 -1.208.085l-1.717-12.024 4.315-3.138zm-24.218 9.234-.648-.647 4.293-4.293a1 1 0 0 0 -1.023-1.656l-5.178 1.726-.289-.58 3.49-3.49a1 1 0 0 0 .279-.542l.4-2.394.062.124 3.481-1.741 2.517 1.678a1 1 0 0 0 1.387-.277l2-3-1.664-1.11-1.445 2.168-2.168-1.445a1 1 0 0 0 -1-.063l-2.789 1.4.187-1.124 1.581-2.381h2.465a1 1 0 0 0 .97-1.243l-.689-2.757h2.719a1 1 0 0 0 .949-1.316l-.726-2.178.789-.394a1 1 0 0 0 .22.528l4.811 5.768.892 7.131zm34.693-37.617a36.022 36.022 0 0 1 -8.755.97 1 1 0 0 0 -.316 1.949 45.079 45.079 0 0 0 11.283 2.033 2.3 2.3 0 0 1 -.724 1.172 3.092 3.092 0 0 1 -2.169.846 30.51 30.51 0 0 1 -8.7-1.932 1 1 0 0 0 -1.079 1.636c.194.2 4.441 4.4 9.169 5.922a2.079 2.079 0 0 1 -.53.368 2.031 2.031 0 0 1 -1.589.064 65.52 65.52 0 0 1 -6.9-2.956 1 1 0 0 0 -1.279 1.45 44.525 44.525 0 0 0 4.084 5.073 3.94 3.94 0 0 1 -3.5-1.289c-.708-.8-2.014-2.02-2.069-2.071a1 1 0 0 0 -1.681.735 22.213 22.213 0 0 0 .654 5.256 4.1 4.1 0 0 1 -3.183-1.2l-.7-.7-4.537-5.444c1.2-1.929 4.807-7.756 5.664-9.469.188-.378.347-.789.5-1.2.667-1.759 1.113-2.92 4.405-2.262 4.069.815 11.083-.234 14.034-.749a3.572 3.572 0 0 1 -2.082 1.798z"/><path d="m22.697 19h3.606v2h-3.606z" transform="matrix(.832 -.555 .555 .832 -6.979 16.949)"/></g></svg>