<svg height="512" viewBox="0 0 64 64" width="512" xmlns="http://www.w3.org/2000/svg"><g id="Filled_outline" data-name="Filled outline"><path d="m37.8 47 .2 1v-.846z" fill="#ad6327"/><path d="m43.473 51.364.527 2.636h-3l-1-3h-2v-3h-3l-.976-3.905-.124-.095h-3.9l-2-1 2-2-19-12-4-5v8l20 14 8 5 4 4-7 4-2 2h6l7-4 5 4h9z" fill="#ad6327"/><path d="m29 27 8 11 3 4h3l6 6 3-8s3-15-8-25l-6-1-2 5 2 5-2 4-2-4z" fill="#66342e"/><path d="m44 15-4.594-7.219 1.594-4.781-4 1-4-1-4 3 1 5-3 7 1 2-1 3h2v4l5-3 2 4 2-4-2-5 2-5z" fill="#eaeadc"/><path d="m29 6-6 3 1 5 2-3h4z" fill="#f9bb4b"/><path d="m44 15-6-1-2 5 2 5c6 10 9 15 11 24l3-8s3-15-8-25z" fill="#995f5b"/><path d="m35.208 35.536-1.208 5.464h-4l-2 2 2 1h4l1 4h3l-1-5 .938-3.75z" fill="#f9bb4b"/><path d="m41 42-1 5h-2v4h2l1 3h3l-1-5 2-5-2-2z" fill="#f9bb4b"/><path d="m51.846 40.411s2.538 7.08 4.6 11.6a3.99 3.99 0 0 1 -1.428 4.971l-.018.018-5.052-11.527z" fill="#eaeadc"/><path d="m49.948 45.473 5.052 11.527-.483.121a4 4 0 0 1 -4.737-2.535l-3.228-9.034 2.448 2.448z" fill="#f4f4e6"/><path d="m31.919 7.5h3.162v2h-3.162z" transform="matrix(.949 -.316 .316 .949 -.968 11.035)"/><path d="m50 34c0-7.25-5.947-15.263-6.2-15.6l-1.6 1.2c.058.077 5.8 7.821 5.8 14.4z"/><path d="m42 21.528h2v8.944h-2z" transform="matrix(.894 -.447 .447 .894 -7.088 21.975)"/><path d="m31.293 58.293-2 2a1 1 0 0 0 .707 1.707h6a.993.993 0 0 0 .5-.132l6.41-3.662 4.469 3.575a1 1 0 0 0 .621.219h9a1 1 0 0 0 .58-1.814l-2.916-2.078.578-.138c.015 0 .387-.2.392-.2a4.964 4.964 0 0 0 1.723-6.17c-1.766-3.872-3.913-9.717-4.445-11.183 0 0 .058-.169.068-.222.127-.633 2.959-15.573-8.2-25.833l-4.275-6.716 1.444-4.33a1 1 0 0 0 -1.192-1.286l-3.757.939-3.757-.939a1.007 1.007 0 0 0 -.843.17l-3.927 2.945-5.92 2.96a1 1 0 0 0 -.533 1.095l1 5a1 1 0 0 0 .786.785.989.989 0 0 0 .194.015 1 1 0 0 0 .832-.445l1.703-2.555h1.949l-2.4 5.606a1 1 0 0 0 .024.841l.815 1.63-.869 2.607a1 1 0 0 0 .946 1.316h1l.021 3a.989.989 0 0 0 .17.588l5.943 8.172-.934 4.24h-2.91l-18.614-11.756-3.9-4.869a1 1 0 0 0 -1.776.625v8a1 1 0 0 0 .427.819l20.043 14.029 7.9 4.94 2.993 2.993-5.863 3.351a1 1 0 0 0 -.207.161zm24.245-5.862a2.956 2.956 0 0 1 -.2 2.837l-4.306-9.824.81-2.162c.929 2.494 2.409 6.328 3.696 9.149zm-1.962 3.81a2.948 2.948 0 0 1 -2.854-1.991l-1.88-5.263a2.4 2.4 0 0 0 .37-.009 1.008 1.008 0 0 0 .608-.405 1.021 1.021 0 0 0 .117-.222l.083-.222zm-2.544-16.509-1.839 4.906c-2.023-7.283-5-12.262-10.293-21.082l-1.823-4.556 1.552-3.881 4.913.819c9.808 9.138 7.686 22.678 7.49 23.794zm-25.032-29.732a1 1 0 0 0 -.832.445l-.661.992-.377-1.884 4.146-2.073.5 2.52zm3 12h-.613l.562-1.684a1 1 0 0 0 -.054-.763l-.795-1.585 2.817-6.574a1 1 0 0 0 .061-.59l-.878-4.382 3.115-2.337 3.538.885a1 1 0 0 0 .486 0l2.232-.558-1.013 3.053a1 1 0 0 0 .1.853l3.39 5.327-3.787-.631a1 1 0 0 0 -1.094.614l-2 5a1.007 1.007 0 0 0 0 .744l1.834 4.583-.901 1.809-1.1-2.211a1 1 0 0 0 -1.41-.41l-3.49 2.091v-2.234a1 1 0 0 0 -1-1zm1.451 5.3 3.137-1.882 1.512 3.029a1.042 1.042 0 0 0 1.79 0l1.184-2.37c4.531 7.565 7.211 12.25 9.054 18.642l-3.426-3.426a1 1 0 0 0 -.702-.293h-2.5zm17.925 26.329-4-2.85-.337-1.679 1.326-3.315.321.32zm-6.356-4.429.76 3.8h-1.059l-.772-2.316a1 1 0 0 0 -.949-.684h-1v-2h1a1 1 0 0 0 .98-.8l.84-4.2h.766l1.24 1.241-1.755 4.387a1 1 0 0 0 -.051.572zm-3.4-3.2-.595-2.976.373-1.493.8 1.069a.982.982 0 0 0 .59.351l-.608 3.049zm-8.206-4h3.586a1 1 0 0 0 .977-.784l.728-3.3 1.147 1.549-.822 3.288a.986.986 0 0 0 -.01.439l.76 3.8h-1l-.811-3.243a1 1 0 0 0 -.969-.749h-3.764l-.548-.274zm2.2 17.8 6.886-3.932a1 1 0 0 0 .211-1.575l-4-4a.962.962 0 0 0 -.177-.141l-7.957-4.971-19.577-13.702v-4.628l2.219 2.774a1.042 1.042 0 0 0 .247.221l17.942 11.332-1.115 1.115a1 1 0 0 0 .26 1.6l2 1a1 1 0 0 0 .447.107h3.219l.811 3.243a1 1 0 0 0 .97.757h2v2a1 1 0 0 0 1 1h1.279l.772 2.316a1 1 0 0 0 .949.684h3a1 1 0 0 0 .98-1.2l-.032-.161 8.925 6.361h-5.522l-4.726-3.781a1 1 0 0 0 -1.121-.087l-6.77 3.868h-3.32z"/></g></svg>