<svg height="512" viewBox="0 0 64 64" width="512" xmlns="http://www.w3.org/2000/svg"><g id="Filled_outline" data-name="Filled outline"><path d="m41 5 6 2v6l-3-3-3-1z" fill="#f9bb4b"/><path d="m41 5-7-2h-4l-7 17 3 4 3-1 2 4 2-3 3 2 2-3 3 1v-4l-2-8 2-2z" fill="#eaeadc"/><g fill="#ad6327"><path d="m40.667 59-.667-4h-2l-.667 4z"/><path d="m44 53v2l-.667 4h6.667v-6z"/><path d="m30 53v2l-.667 4h5.334l-.667-4v-2z"/><path d="m26.667 59-.667-4h-2l-.667 4z"/><path d="m20 55v-2h-6v6h6.667z"/></g><path d="m27 51 1-3h-4l-1 3-3 1v3l1 6h2l1-6h2l1 6h2l1-6v-3z" fill="#f9bb4b"/><path d="m37 51-1-3h4l1 3 3 1v3l-1 6h-2l-1-6h-2l-1 6h-2l-1-6v-3z" fill="#f9bb4b"/><path d="m36 26-3-2-2 3-2-4-3 1-3-4 1 28h4l4-7 4 7h4l1-24-3-1z" fill="#66342e"/><path d="m23.143 24s-8.143 0-15.143-18a4.281 4.281 0 0 0 -1.827 5.907l2.827 5.093-5-3c-.611 2.446-.937 4.386 1 6l4 3h-6a4 4 0 0 0 4 4h3l-5 5a4.239 4.239 0 0 0 6 0l2-2-2 7 .932.233a3.415 3.415 0 0 0 4.068-2.233l1-3 1 7a4.323 4.323 0 0 0 4-3l1.4-4.913z" fill="#995f5b"/><path d="m41 24s8 0 15-18a4.281 4.281 0 0 1 1.827 5.907l-2.827 5.093 5-3c.611 2.446.937 4.386-1 6l-4 3h6a4 4 0 0 1 -4 4h-3l5 5a4.239 4.239 0 0 1 -6 0l-2-2 2 7-.932.233a3.415 3.415 0 0 1 -4.068-2.233l-1-3-1 7a4.323 4.323 0 0 1 -4-3l-1.3-4.835z" fill="#995f5b"/><path d="m23.682 39.087s-3.682 2.913-10.682 2.913l4 3s-4 1-7-1c0 0 2.893 11 13.893 1z" fill="#eaeadc"/><path d="m35 5.438h2v4.123h-2z" transform="matrix(.243 -.97 .97 .243 19.993 40.606)"/><path d="m29.555 33.832 2.445-1.632 2.445 1.63a1 1 0 0 0 1.262-.125l2-2-1.414-1.414-1.42 1.42-2.318-1.545a1 1 0 0 0 -1.11 0l-2.318 1.545-1.42-1.42-1.414 1.414 2 2a1 1 0 0 0 1.262.127z"/><path d="m61 22h-3l1.642-1.232c2.55-2.125 1.873-4.834 1.329-7.011a1 1 0 0 0 -1.485-.614l-1.8 1.078 1.014-1.827a5.281 5.281 0 0 0 -2.256-7.289 1 1 0 0 0 -1.379.533c-5.154 13.262-10.808 16.396-13.065 17.135v-2.773a1 1 0 0 0 -.03-.243l-1.863-7.45 1.6-1.6a1 1 0 0 0 .221-.344l1.532.511 2.833 2.833a1 1 0 0 0 1.707-.707v-6a1 1 0 0 0 -.684-.949l-13.042-4.012a.97.97 0 0 0 -.274-.039h-4a1 1 0 0 0 -.925.619l-7 17h.011a.98.98 0 0 0 -.085.413l.1 2.73c-2.313-.753-8.028-3.914-13.167-17.128a1 1 0 0 0 -1.381-.532 5.281 5.281 0 0 0 -2.253 7.292l1.015 1.827-1.8-1.078a1 1 0 0 0 -1.485.614c-.544 2.177-1.221 4.886 1.37 7.043l1.6 1.2h-3a1 1 0 0 0 -1 1 5.006 5.006 0 0 0 5 5h.586l-3.293 3.293a1 1 0 0 0 0 1.416 5.242 5.242 0 0 0 6.726.578l-.983 3.438a1 1 0 0 0 .72 1.245l.931.233a4.441 4.441 0 0 0 4.892-2.073l.431 3.012a1 1 0 0 0 .99.858 5.3 5.3 0 0 0 4.609-2.877l.052 1.451a18.187 18.187 0 0 1 -9.661 2.426 1 1 0 0 0 -.6 1.8l1.932 1.449a7.172 7.172 0 0 1 -3.777-1.081 1 1 0 0 0 -1.522 1.086c.049.187 1.244 4.582 5.011 5.7a6.13 6.13 0 0 0 1.753.25c2.138 0 4.541-1.054 7.17-3.117l.028.77-.786 2.354-2.525.842a1 1 0 0 0 -.684.947h-5a1 1 0 0 0 -1 1v6a1 1 0 0 0 1 1h5.82l.194 1.165a1 1 0 0 0 .986.835h2a1 1 0 0 0 .986-.835l.194-1.165h1.64l.194 1.165a1 1 0 0 0 .986.835h2a1 1 0 0 0 .986-.835l.194-1.165h3.64l.194 1.165a1 1 0 0 0 .986.835h2a1 1 0 0 0 .986-.835l.194-1.165h1.64l.194 1.165a1 1 0 0 0 .986.835h2a1 1 0 0 0 .986-.835l.194-1.165h5.82a1 1 0 0 0 1-1v-6a1 1 0 0 0 -1-1h-5a1 1 0 0 0 -.684-.949l-2.525-.842-.784-2.35.443-10.63a5.292 5.292 0 0 0 4.55 2.771 1 1 0 0 0 .99-.858l.43-3.01a4.443 4.443 0 0 0 4.89 2.068l.932-.233a1 1 0 0 0 .72-1.245l-.983-3.438a5.242 5.242 0 0 0 6.728-.58 1 1 0 0 0 0-1.414l-3.293-3.29h.586a5.006 5.006 0 0 0 5-5 1 1 0 0 0 -1-1zm-19-15.613 4 1.334v2.865l-1.293-1.293a1 1 0 0 0 -.391-.242l-2.316-.772zm-20.957 29.323a3.393 3.393 0 0 1 -2.194 2.156l-.859-6.008a1 1 0 0 0 -.9-.854c-.03 0-.061 0-.091 0a1 1 0 0 0 -.947.684l-1 3a2.429 2.429 0 0 1 -2.806 1.6l1.716-6a1 1 0 0 0 -1.669-.982l-2 2a3.312 3.312 0 0 1 -3.767.595l4.183-4.183a1 1 0 0 0 -.709-1.718h-3a3.006 3.006 0 0 1 -2.829-2h4.829a1 1 0 0 0 .6-1.8l-3.959-2.968c-1.11-.924-1.286-1.932-.967-3.661l3.811 2.286a1 1 0 0 0 1.389-1.343l-2.829-5.092a3.286 3.286 0 0 1 .5-3.866 48.192 48.192 0 0 0 5.355 9.977l-2.453 1.635 1.11 1.664 2.567-1.711c.232.28.461.544.689.8l-2.613 3.479 1.6 1.2 2.423-3.231c.435.407.859.771 1.268 1.092l-3.323 4.984 1.664 1.11 3.306-4.955c.191.115.379.222.56.318l-1.66 5.811 1.924.55 1.593-5.579c.227.071.435.126.618.168l.218 6.1zm-6.421 12.327a4.906 4.906 0 0 1 -2.622-2.095 11.908 11.908 0 0 0 5.241.028 1 1 0 0 0 .359-1.77l-1.8-1.354a19.958 19.958 0 0 0 6.948-2.017l.134 3.74c-3.282 2.893-6.139 4.09-8.26 3.468zm.378 9.963v-4h4v1a1.021 1.021 0 0 0 .014.165l.472 2.835zm29.986-2.835a1.021 1.021 0 0 0 .014-.165v-1h4v4h-4.486zm-14.316-51.165h3.19l6.14 1.754v3.832l-1.707 1.707a1 1 0 0 0 -.263.95l1.97 7.88v2.489l-1.684-.561a1 1 0 0 0 -1.148.394l-1.445 2.168-2.168-1.445a1 1 0 0 0 -1.387.277l-1.044 1.567-1.224-2.459a1 1 0 0 0 -1.211-.5l-2.317.772-2.226-2.968zm-5.47 20.6a1 1 0 0 0 1.116.349l2.177-.726 1.612 3.224a1 1 0 0 0 .832.551.981.981 0 0 0 .895-.443l1.445-2.168 2.168 1.445a1 1 0 0 0 1.387-.277l1.576-2.365 1.562.52-.929 22.29h-2.461l-3.712-6.5a1.04 1.04 0 0 0 -1.736 0l-3.712 6.5h-2.455l-.852-23.849zm-.686 33.4.333-2h.306l.333 2zm4.486-3.083-.847 5.083h-.306l-.861-5.165a1 1 0 0 0 -.986-.835h-2a1 1 0 0 0 -.986.835l-.861 5.165h-.306l-.847-5.083v-2.2l2.316-.772a1 1 0 0 0 .632-.633l.773-2.312h1.891l-.56 1.684a1 1 0 0 0 .632 1.265l2.316.772zm1.514 3.083.472-2.835a1.021 1.021 0 0 0 .014-.165v-1h2v1a1.021 1.021 0 0 0 .014.165l.472 2.835zm3.17-6.949a1 1 0 0 0 -.684.949h-2a1 1 0 0 0 -.684-.949l-2.051-.683.652-1.957 3.083-5.395 3.083 5.4.652 1.957zm4.83 6.949.333-2h.306l.333 2zm4.486-5.279v2.2l-.847 5.079h-.306l-.861-5.165a1 1 0 0 0 -.986-.835h-2a1 1 0 0 0 -.986.835l-.861 5.165h-.306l-.847-5.083v-2.2l2.316-.772a1 1 0 0 0 .632-1.265l-.56-1.68h1.891l.773 2.316a1 1 0 0 0 .632.633zm14-26.721h-3a1 1 0 0 0 -.707 1.707l4.183 4.183a3.314 3.314 0 0 1 -3.767-.595l-2-2a1 1 0 0 0 -1.669.982l1.716 6a2.426 2.426 0 0 1 -2.806-1.6l-1-3a1 1 0 0 0 -1.938.174l-.86 6.008a3.369 3.369 0 0 1 -2.184-2.125l-1.259-4.688.258-6.189c.148-.034.312-.077.49-.13l1.583 5.541 1.924-.55-1.648-5.769q.278-.147.573-.322l3.281 4.921 1.664-1.11-3.3-4.949c.408-.322.832-.689 1.267-1.1l2.4 3.2 1.6-1.2-2.593-3.457c.229-.257.46-.524.693-.808l2.545 1.7 1.11-1.664-2.437-1.624a48.836 48.836 0 0 0 5.338-9.988 3.286 3.286 0 0 1 .5 3.866l-2.829 5.092a1 1 0 0 0 1.389 1.343l3.811-2.287c.32 1.729.151 2.732-.926 3.63l-4 3a1 1 0 0 0 .598 1.808h4.829a3.006 3.006 0 0 1 -2.829 2z"/></g></svg>