<svg height="512" viewBox="0 0 64 64" width="512" xmlns="http://www.w3.org/2000/svg"><g id="Filled_outline" data-name="Filled outline"><path d="m24 25 1 5-2 6-1 3h3l1 3 3-2 3 4 1-4 5 1 1-3 1-2-4-10-4-3-4-1z" fill="#eaeadc"/><path d="m10 3h34v16h-34z" fill="#da1c4b"/><path d="m10 3h10v8h-10z" fill="#233b8e"/><path d="m20 3h24v4h-24z" fill="#da1c4b"/><path d="m20 7h24v4h-24z" fill="#f4f4e6"/><path d="m10 11h34v4h-34z" fill="#da1c4b"/><path d="m10 15h34v4h-34z" fill="#f4f4e6"/><g fill="#f9bb4b"><path d="m24 25-4 3v5l3-3h2z"/><path d="m27 61-3-2-7 2a4 4 0 0 1 4-4h6z"/><path d="m32 61 3-2 7 2a4 4 0 0 0 -4-4h-6z"/></g><path d="m61 29.589v-.589s-10 2-15 1-5 2-6 4c-.107.214-.272.515-.46.85l.46 1.15-1 2-1 3-2.208 5.151 3.208 3.849.764.764a5.117 5.117 0 0 0 5.236 1.236c-1-2-1-6-1-6s1.316 1.223 2 2a4.712 4.712 0 0 0 6 1 44.322 44.322 0 0 1 -5-6 67.308 67.308 0 0 0 7 3 3.069 3.069 0 0 0 4-2c-5-1-10-6-10-6a31.529 31.529 0 0 0 9 2c1.855.138 4-1.47 4-3.33v-.67a43.6 43.6 0 0 1 -12-2 37.359 37.359 0 0 0 9-1c1.413-.356 3-1.954 3-3.411z" fill="#995f5b"/><path d="m36.093 40.619 1.907.381z" fill="#995f5b"/><path d="m9 35.5v3.5a2 2 0 0 0 2 2h4l-5.333-5.333z" fill="#66342e"/><path d="m10.783 32.181 3.217 3.676v-16.857h-4v12.648a1.964 1.964 0 0 1 .783.533z" fill="#195c85"/><path d="m10.783 32.181 4.217 4.819-6.209-1.552a2 2 0 0 1 -1.491-2.269v-.01a2 2 0 0 1 3.483-.988z" fill="#66342e"/><path d="m20.294 48.282 1.551-8.437-4.845-4.845-1-6h-2v6.857l1 1.143-5.333-1.333 5.333 5.333-3 5 6-1-2 5z" fill="#995f5b"/><path d="m38 41-5-1-1 4-3-4-3 2-1-3h-3l-2 10.883 2 7.117h5l3-4 2 4h5l-2-9z" fill="#66342e"/><path d="m26.919 26.5h3.162v2h-3.162z" transform="matrix(.949 -.316 .316 .949 -7.236 10.429)"/><path d="m60.8 28.02c-.1.019-9.859 1.948-14.608 1-4.777-.959-5.9 1.52-6.588 3.307l-2.679-6.7a1.006 1.006 0 0 0 -.325-.427l-4-3a.994.994 0 0 0 -.358-.17l-4-1a1 1 0 0 0 -.842.17l-8 6a1 1 0 0 0 -.4.8v5a1 1 0 0 0 1.707.707l2.707-2.707h.2l-2.3 6.9-3.38-3.38-.948-5.685a1 1 0 0 0 -.986-.835h-1v-8h30v-18h-36v28.515a3.01 3.01 0 0 0 -.542.1 2.979 2.979 0 0 0 -2.141 2.4 3.019 3.019 0 0 0 1.683 3.206v2.779a3 3 0 0 0 3 3h2.234l-2.091 3.485a1 1 0 0 0 1.021 1.5l4.247-.708-1.34 3.35a1 1 0 0 0 .929 1.373.98.98 0 0 0 .371-.072l2.653-1.061a1.013 1.013 0 0 0 .013.286l1.652 5.878a4.993 4.993 0 0 0 -4.689 4.969 1 1 0 0 0 1 1 .981.981 0 0 0 .274-.039l6.556-1.873 2.615 1.744a1 1 0 0 0 1.555-.832v-3.667l1.829-2.433 1.171 2.336v3.764a1 1 0 0 0 1.555.832l2.615-1.744 6.556 1.873a.981.981 0 0 0 .274.039 1 1 0 0 0 1-1 5.006 5.006 0 0 0 -5-5h-.2l-1.756-7.9.023-.055 2.224 2.664.764.764a6.082 6.082 0 0 0 4.311 1.8 6.17 6.17 0 0 0 1.948-.318 1 1 0 0 0 .579-1.4 9.938 9.938 0 0 1 -.728-2.985c.028.032.056.062.082.093a5.715 5.715 0 0 0 7.306 1.171 1 1 0 0 0 .152-1.539c-.927-.927-1.759-1.858-2.462-2.7 1.1.466 2.234.912 3.412 1.342a4.012 4.012 0 0 0 3.145-.137 4.171 4.171 0 0 0 2.137-2.455 1 1 0 0 0 -.737-1.325 16.421 16.421 0 0 1 -5.7-2.654 34.048 34.048 0 0 0 4.426.634 4.993 4.993 0 0 0 3.674-1.38 4.059 4.059 0 0 0 1.4-2.95v-.67a1 1 0 0 0 -1-1 34.408 34.408 0 0 1 -5.466-.483c.949-.149 1.857-.332 2.711-.547 1.776-.449 3.755-2.358 3.755-4.381v-.589a1 1 0 0 0 -1.2-.98zm-37.8.98a1 1 0 0 0 -.707.293l-1.293 1.293v-2.086l2.331-1.748.45 2.248zm2.948 1.316a.979.979 0 0 0 .032-.512l-.88-4.382 3.115-2.337 3.343.836 3.614 2.711 3.744 9.361-1.6 3.852-4.116-.825a1 1 0 0 0 -1.166.737l-.491 1.962-1.743-2.319a1 1 0 0 0 -1.355-.232l-1.911 1.274-.586-1.758a1 1 0 0 0 -.948-.684h-1.613zm-4.948-26.316h22v2h-22zm0 4h22v2h-22zm-10-4h8v6h-8zm0 8h32v2h-32zm0 4h32v2h-32zm0 4h2v13.2l-1.464-1.673a3.048 3.048 0 0 0 -.536-.481zm-2.708 13.333a.986.986 0 0 1 .713-.8 1.075 1.075 0 0 1 .284-.038.954.954 0 0 1 .741.341l2.115 2.416-3.112-.777a1.007 1.007 0 0 1 -.741-1.142zm2.708 6.667a1 1 0 0 1 -1-1v-1.586l2.586 2.586zm8.411 7.559-1.616.646 1.134-2.833a1 1 0 0 0 -1.093-1.358l-3.864.644 1.876-3.149a.908.908 0 0 0 -.141-1.216l-2.78-2.781 1.831.458a1 1 0 0 0 1-1.629l-.758-.86v-5.481h.153l.861 5.165a1 1 0 0 0 .279.542l4.473 4.474zm4.315 10.48-5.363 1.532a3 3 0 0 1 2.637-1.571h3a.96.96 0 0 0 -.274.039zm2.274 1.092-1.445-.963a1 1 0 0 0 -.555-.168h2zm8.445-.963-1.445.963v-1.131h2a1 1 0 0 0 -.555.168zm3.555-.168a3 3 0 0 1 2.637 1.571l-5.363-1.532a.96.96 0 0 0 -.274-.039zm-3.919-10.394a1.008 1.008 0 0 0 -.058.611l1.73 7.783h-3.135l-1.718-3.447a1 1 0 0 0 -1.7-.153l-2.7 3.6h-3.742l-1.733-6.165 1.808-9.835h1.446l.773 2.316a1 1 0 0 0 1.5.516l2.213-1.475 2.435 3.243a1 1 0 0 0 1.77-.357l.769-3.076 2.8.561zm23.674-15.576a36.022 36.022 0 0 1 -8.755.97 1 1 0 0 0 -.316 1.949 45.079 45.079 0 0 0 11.283 2.033 2.3 2.3 0 0 1 -.724 1.172 3.069 3.069 0 0 1 -2.169.846 30.5 30.5 0 0 1 -8.7-1.932 1 1 0 0 0 -1.078 1.636c.194.2 4.441 4.4 9.169 5.922a2.062 2.062 0 0 1 -.529.367 2.033 2.033 0 0 1 -1.59.065 65.52 65.52 0 0 1 -6.9-2.956 1 1 0 0 0 -1.279 1.45 44.525 44.525 0 0 0 4.084 5.073 3.937 3.937 0 0 1 -3.5-1.289c-.709-.8-2.014-2.02-2.069-2.071a1 1 0 0 0 -1.682.735 22.235 22.235 0 0 0 .653 5.255 4.086 4.086 0 0 1 -3.182-1.2l-.7-.7-2.816-3.379 3.971-9.6a1.011 1.011 0 0 0 .005-.755l-.284-.709c.1-.181.184-.341.25-.472.189-.378.346-.789.5-1.205.667-1.759 1.108-2.921 4.405-2.262 4.067.814 11.082-.235 14.034-.749a3.572 3.572 0 0 1 -2.081 1.806z"/><path d="m28.293 45.293-1.42 1.42-2.318-1.545-1.11 1.664 3 2a1 1 0 0 0 1.262-.125l1.42-1.42 2.318 1.545 1.11-1.664-3-2a1 1 0 0 0 -1.262.125z"/></g></svg>