<svg height="512" viewBox="0 0 64 64" width="512" xmlns="http://www.w3.org/2000/svg"><g id="Filled_outline" data-name="Filled outline"><path d="m40 5 6 2v6l-3-3-3-1z" fill="#f9bb4b"/><path d="m40 5-7-2h-4l-9 16 3 4 3-1 2 4 2-3 3 2 2-3 3 1v-4-7l2-2z" fill="#eaeadc"/><path d="m25 53 1-3h-4l-1 3-3 1v3l1 4h2l1-4h2l1 4h2l1-4v-3z" fill="#f9bb4b"/><path d="m37 53-1-3h4l1 3 3 1v3l-1 4h-2l-1-4h-2l-1 4h-2l-1-4v-3z" fill="#f9bb4b"/><path d="m18 26-3 3c-1.623 1.353-2.25 3.3-1 5l6.857 9.143z" fill="#995f5b"/><path d="m34 28a4.21 4.21 0 0 1 4-1c.1 0 .2.014.3.017l-.3-4.017-3-1-2 3-3-2-2 3-2-4-3 1-3-4-2 7 4 24h4l5-4 5 4h4l-.361-4.867c-9.767-12.172-5.639-17.133-5.639-17.133z" fill="#66342e"/><path d="m34 28s-5 6 9 21a12.376 12.376 0 0 1 2 3l1-5 3 3v-5l3 2s-3-20-14-20a4.21 4.21 0 0 0 -4 1z" fill="#995f5b"/><path d="m34 5.438h1.999v4.123h-1.999z" transform="matrix(.243 -.97 .97 .243 19.235 39.636)"/><path d="m40.707 10.707a1 1 0 0 0 .221-.344l1.532.511 2.833 2.833a1 1 0 0 0 .707.293.987.987 0 0 0 .383-.076 1 1 0 0 0 .617-.924v-6a1 1 0 0 0 -.684-.948l-13.041-4.014a1.02 1.02 0 0 0 -.275-.038h-4a1 1 0 0 0 -.872.51l-9 16a.953.953 0 0 0 -.094.214l-1.924 6.753-2.75 2.754c-2.164 1.8-2.633 4.36-1.16 6.369l6.711 8.947 1.062 6.372-.764 2.29-2.525.843a1 1 0 0 0 -.684.948v3a.984.984 0 0 0 .03.242l1 4a1 1 0 0 0 .97.758h2a1 1 0 0 0 .97-.758l.811-3.242h.438l.811 3.242a1 1 0 0 0 .97.758h2a1 1 0 0 0 .97-.758l1-4a.984.984 0 0 0 .03-.242v-3a1 1 0 0 0 -.684-.948l-2.051-.685.59-1.77 4.145-3.317 4.145 3.32.59 1.77-2.051.685a1 1 0 0 0 -.684.945v3a.984.984 0 0 0 .03.242l1 4a1 1 0 0 0 .97.758h2a1 1 0 0 0 .97-.758l.811-3.242h.438l.811 3.242a1 1 0 0 0 .97.758h2a1 1 0 0 0 .97-.758l1-4a.984.984 0 0 0 .03-.242v-3a1 1 0 0 0 -.684-.948l-2.525-.843-.8-2.408-.124-1.67c.454.514.926 1.037 1.426 1.573a11.73 11.73 0 0 1 1.815 2.743 1 1 0 0 0 1.872-.247l.634-3.168 1.679 1.679a1 1 0 0 0 1.707-.711v-3.132l1.445.964a1 1 0 0 0 1.544-.98c-.123-.821-3.043-19.437-13.759-20.774l-.23-3.113v-10.551zm.293-4.319 4 1.333v2.865l-1.293-1.293a1.011 1.011 0 0 0 -.391-.241l-2.316-.773zm-26.193 27.02c-1.245-1.7.323-3.215.9-3.7l1.626-1.626 1.867 11.18zm12.193 21.313v2.156l-.781 3.123h-.438l-.811-3.242a1 1 0 0 0 -.97-.758h-2a1 1 0 0 0 -.97.758l-.811 3.242h-.438l-.781-3.123v-2.156l2.316-.773a1 1 0 0 0 .633-.632l.772-2.316h1.892l-.562 1.684a1 1 0 0 0 .633 1.264zm4.625-9.5a1 1 0 0 0 -1.25 0l-4.726 3.779h-2.8l-3.826-22.942 1.385-4.847 1.792 2.389a1 1 0 0 0 1.116.348l2.178-.725 1.611 3.224a1 1 0 0 0 1.727.108l1.445-2.168 2.168 1.445a1 1 0 0 0 1.387-.277l1.576-2.365 1.644.548.158 2.135a4.9 4.9 0 0 0 -3.926 1.427c-.018.018-.035.038-.052.057a4.9 4.9 0 0 0 -.832 1.843l-2.124 1.416-1.445-2.168a1.039 1.039 0 0 0 -1.664 0l-1.323 1.986-2.138-2.138-1.414 1.414 3 3a1 1 0 0 0 1.539-.152l1.169-1.758 1.168 1.752a1 1 0 0 0 1.387.277l1.608-1.072c.124 2.943 1.511 7.44 6.5 13.747l.26 3.496h-2.572zm11.375 9.5v2.156l-.781 3.123h-.438l-.811-3.242a1 1 0 0 0 -.97-.758h-2a1 1 0 0 0 -.97.758l-.811 3.242h-.438l-.781-3.123v-2.156l2.316-.773a1 1 0 0 0 .633-1.264l-.562-1.684h1.892l.772 2.316a1 1 0 0 0 .633.632zm4.433-12.821a1 1 0 0 0 .567-.9v-4.07a44.608 44.608 0 0 1 2.552 7.9l-1-.665a1 1 0 0 0 -1.552.835v2.586l-1.293-1.293a1 1 0 0 0 -1.687.511l-.5 2.479a9.076 9.076 0 0 0 -.792-.966 57.039 57.039 0 0 1 -5.725-7.083 6.551 6.551 0 0 1 4.162 2.321 1 1 0 0 0 .835.445 1 1 0 0 0 .986-1.164l-.57-3.423 2.959 2.368a1 1 0 0 0 1.058.119zm-1.433-8.7v5.723l-3.375-2.7a1 1 0 0 0 -1.611.945l.538 3.232a12.274 12.274 0 0 0 -4.912-1.367c-3.913-6.912-2.091-10.055-1.878-10.377a3.194 3.194 0 0 1 2.947-.7 1.03 1.03 0 0 0 .291.044c3.444 0 6.055 2.244 8 5.2zm-8.707-21.9a1 1 0 0 0 -.293.7v9.613l-1.684-.561a1 1 0 0 0 -1.148.393l-1.445 2.168-2.168-1.445a1 1 0 0 0 -1.387.277l-1.044 1.567-1.224-2.459a1 1 0 0 0 -1.211-.5l-2.316.771-2.177-2.9 8.389-14.924h3.275l6.14 1.754v3.832z"/></g></svg>