<svg height="512" viewBox="0 0 64 64" width="512" xmlns="http://www.w3.org/2000/svg"><g id="Filled_outline" data-name="Filled outline"><path d="m42 37s1-9-3-10-18-6-25-14-2 3-2 3-7-4-2 4c0 0-6-2-1 5 0 0-9 1 2 5 0 0-8 3 1 4 0 0-6 3 3 3 0 0-6 6 5 3l4 1 8 3 9-2z" fill="#66342e"/><path d="m42.075 36h5.925l5-1 3 3-1 5a97.42 97.42 0 0 1 -8 6c-7 5-19 4-24 3l-6-2s-11 7-10 2c0 0-4 2-3-1 0 0-2-1 0-3 0 0-5-3 11-4l9-3 8 3 9-2 1-5z" fill="#995f5b"/><path d="m56 38 5 3-1 6-2-4h-3z" fill="#f9bb4b"/><path d="m43 47c-9 4-26 3-26 3l6 2c5 1 17 2 24-3a97.42 97.42 0 0 0 8-6h-5z" fill="#eaeadc"/><path d="m2.141 50.035a2.449 2.449 0 0 0 .734 1.365 1.872 1.872 0 0 0 .549 1.808 2.836 2.836 0 0 0 2.648.234 1.911 1.911 0 0 0 .735.956 2.534 2.534 0 0 0 1.457.379c2.58 0 6.677-2.314 8.868-3.679l5.552 1.851a.813.813 0 0 0 .12.031c5.9 1.182 17.765 1.842 24.777-3.166 5.209-3.721 7.126-5.246 7.8-5.814h2l1.723 3.447a1 1 0 0 0 .896.553.943.943 0 0 0 .149-.011 1 1 0 0 0 .837-.824l1-6a1 1 0 0 0 -.471-1.022l-4.9-2.937-2.913-2.913a1 1 0 0 0 -.9-.273l-4.902.98h-4.782c.053-3-.386-8.1-3.875-8.97-3.384-.846-17.455-5.648-24.491-13.689-2.579-2.948-3.8-3.716-4.834-3.049-.445.287-1.3.84.215 4.847a2.463 2.463 0 0 0 -2.441.409c-.771.8-.651 2.1.433 4.2a2.274 2.274 0 0 0 -1.725.852c-.739 1-.461 2.474.915 4.687-1.256.32-2.63.944-2.774 2.15-.149 1.275 1.02 2.383 3.959 3.652-1.037.64-1.886 1.48-1.761 2.484.12.963.981 1.609 2.791 2.037a1.8 1.8 0 0 0 -.445 1.557c.248 1.051 1.413 1.6 3.9 1.772a2.763 2.763 0 0 0 -.365 2.793c.8 1.377 3.016 1.469 7.393.3l.416.1-5.622 1.878c-10.407.662-12.162 2.156-12.497 3.531a1.851 1.851 0 0 0 .328 1.539 2.689 2.689 0 0 0 -.497 1.955zm54.559-10.448 3.2 1.92-.383 2.3-.617-1.254a1 1 0 0 0 -.9-.553h-1.78zm-10.283 8.6c-6.294 4.5-17.062 3.98-22.777 2.915 5.837-.1 14.2-.714 19.764-3.187a.951.951 0 0 0 .09-.046l6.772-3.869h1.88c-1.186.9-2.989 2.23-5.727 4.186zm-26.174-9.157a1 1 0 0 0 -.243-.03 1.022 1.022 0 0 0 -.263.035c-4.049 1.105-5.143.793-5.37.684a4.73 4.73 0 0 1 1.133-1.781l6.642-.948-.284-1.98-6.923.99a13.516 13.516 0 0 1 -3.662-.333 6.081 6.081 0 0 1 1.046-.7l6.823-.974-.284-1.98-6.868.981a9.828 9.828 0 0 1 -3.129-.7 8.526 8.526 0 0 1 2.233-1.254l4.71.941.392-1.96-4.921-.985c-3.425-1.251-4.4-2.05-4.66-2.349a6.742 6.742 0 0 1 2.229-.656l12.737 5.878.838-1.816-12.749-5.885c-1.849-2.645-1.66-3.4-1.674-3.4a2.758 2.758 0 0 1 1.526.1c1.325 1.088 10.317 8.324 17.233 10.068l.49-1.94c-6.453-1.627-15.32-8.748-16.478-9.694a9.576 9.576 0 0 1 -1.562-3.342 6.849 6.849 0 0 1 2.161.8c.933 1.084 6.551 7.21 17.29 11.142l.688-1.878c-10.3-3.769-15.772-9.776-16.487-10.6a28.955 28.955 0 0 1 -1.379-3.669 25.563 25.563 0 0 1 1.77 1.865c7.377 8.432 22 13.433 25.509 14.311 2.242.56 2.46 5.334 2.325 7.94v.015l-.071.939-.86 4.3-8.074 1.794zm-15.894 7.97c-.011-.011-.027-.02-.037-.031.337-.315 2.122-1.432 10.75-1.971a.993.993 0 0 0 .254-.049l8.664-2.888 7.669 2.876a2.1 2.1 0 0 0 .568.039l9-2a1 1 0 0 0 .763-.78l1-5c.006-.028.021-.161.025-.2h4.995a.925.925 0 0 0 .2-.02l4.475-.895 2.244 2.244-.739 3.675h-4.18a.993.993 0 0 0 -.5.132l-6.956 3.974c-8.684 3.831-25.32 2.905-25.489 2.9v.024a.986.986 0 0 0 -.594.13c-3.716 2.364-7.779 4.077-8.5 3.618a.423.423 0 0 1 -.022-.125l5.508-2.753-.894-1.79-6 3a5.693 5.693 0 0 1 -1.7.548 2.612 2.612 0 0 1 .091-.337 1 1 0 0 0 -.5-1.211c-.034-.017-.3-.2-.332-.391a1.1 1.1 0 0 1 .334-.719h4.554v-2z"/><path d="m49 38h4v2h-4z"/><path d="m36.071 39.628 1.858.744a16.84 16.84 0 0 0 1.041-9.615 1 1 0 0 0 -.6-.686l-5-2-.744 1.858 4.488 1.8a15.67 15.67 0 0 1 -1.043 7.899z"/></g></svg>