<svg height="512" viewBox="0 0 64 64" width="512" xmlns="http://www.w3.org/2000/svg"><g id="Filled_outline" data-name="Filled outline"><path d="m35 41s10 1 13 4a4.227 4.227 0 0 0 -2-6 26.661 26.661 0 0 0 -9-2s7-2 12 0v-.767a4.383 4.383 0 0 0 -3.635-4.182 13.746 13.746 0 0 0 -7.365.949l6-4-.041-.062a4 4 0 0 0 -5.116-1.36l-1.243.622 10.4-7.2-4-4c-5-5-15-4-15-4l-3 3 3 3-4 1 2 4h-4l-1 4s3 3 1 9 2 6 9 8 15 8 15 8a4.835 4.835 0 0 0 -1-6 26.9 26.9 0 0 0 -11-6z" fill="#66342e"/><path d="m9 16 3 4h3l-1 4h5l3 4 1-4h4l-2-4 4-1-3-3 3-3-4-1-5 2s-7-2-11 2z" fill="#eaeadc"/><path d="m9 16s-6 0-6 5a55.273 55.273 0 0 1 9-1z" fill="#f9bb4b"/><path d="m12 20-4 4a10.56 10.56 0 0 0 6 0l1-4z" fill="#f9bb4b"/><g fill="#eaeadc"><path d="m59.078 12.021a1.747 1.747 0 0 0 -2.469-.458c-4.541 3.227-12.609 5.437-12.609 5.437l3 3c4.991-.713 9.474-4.056 11.636-5.574a1.75 1.75 0 0 0 .442-2.405z"/><path d="m47 20 1 1-1.819 1.259c7.808 1.624 11.728 1.185 13.515.568a1.929 1.929 0 0 0 1.304-1.827 1.93 1.93 0 0 0 -2.529-1.828 28.963 28.963 0 0 1 -11.471.828z"/><path d="m45.888 22.462-2.058 1.425a21.292 21.292 0 0 0 14 6.122 2.051 2.051 0 0 0 2.17-2.045 2.065 2.065 0 0 0 -2-1.964 33.854 33.854 0 0 1 -12.112-3.538z"/></g><path d="m12.764 16h4.472v2h-4.472z" transform="matrix(.894 -.447 .447 .894 -6.019 8.503)"/><path d="m60.811 18.649a2.939 2.939 0 0 0 -2.641-.431 22.868 22.868 0 0 1 -5.331.946 40.969 40.969 0 0 0 5.972-3.638l.4-.282a2.754 2.754 0 1 0 -3.181-4.5c-3.7 2.627-9.935 4.593-11.762 5.134-5.046-4.516-13.792-4-15.189-3.892l-3.836-.959a1.011 1.011 0 0 0 -.615.041l-4.7 1.879c-1.5-.358-7.428-1.469-11.324 2.063-2.486.13-6.604 1.49-6.604 5.99a1 1 0 0 0 1.2.98 62.9 62.9 0 0 1 6.277-.867l-2.18 2.18a1 1 0 0 0 .391 1.655 11.724 11.724 0 0 0 3.425.5 10.258 10.258 0 0 0 3.019-.448h4.368l2.793 3.707c.025.025 2.542 2.625.758 7.977-.727 2.182-.752 3.779-.078 5.024 1.06 1.956 3.572 2.613 7.05 3.523.838.22 1.742.457 2.7.731 6.737 1.925 14.6 7.779 14.675 7.838a1 1 0 0 0 .6.2.965.965 0 0 0 .169-.015 1 1 0 0 0 .663-.43 5.861 5.861 0 0 0 -1.172-7.307 31.745 31.745 0 0 0 -3.338-2.56 10.388 10.388 0 0 1 3.971 2.019 1 1 0 0 0 1.6-.262 5.673 5.673 0 0 0 .289-4.538 4.919 4.919 0 0 0 -2.816-2.837c-.5-.2-1.507-.579-2.788-.96a13.416 13.416 0 0 1 5.047.819 1 1 0 0 0 1.377-.929v-.767a5.358 5.358 0 0 0 -4.484-5.171 14.346 14.346 0 0 0 -2.572-.157l1.611-1.073a1.066 1.066 0 0 0 .236-1.448 4.981 4.981 0 0 0 -2.779-2.022l1.719-1.19a22.426 22.426 0 0 0 14.042 5.835h.166a3.083 3.083 0 0 0 2.111-.838 3.013 3.013 0 0 0 .95-2.21 3.078 3.078 0 0 0 -2.924-2.959 27.246 27.246 0 0 1 -4.175-.658c.525.027 1.026.043 1.485.043a14.364 14.364 0 0 0 4.636-.616 2.934 2.934 0 0 0 1.978-2.769 2.89 2.89 0 0 0 -1.189-2.351zm-3.623-6.271a.728.728 0 0 1 .568-.126.756.756 0 0 1 .306 1.355l-.405.286c-2.137 1.51-6.052 4.255-10.329 5.021l-1.436-1.436c2.635-.83 7.871-2.666 11.296-5.1zm-53 7.392c.706-2.178 3.261-2.643 4.338-2.742l1.53 2.039a58.463 58.463 0 0 0 -5.873.703zm8.991 3.412a9.081 9.081 0 0 1 -3.144.2l2.379-2.382h1.3zm8.856.576-.49 1.961-1.745-2.319a1 1 0 0 0 -.8-.4h-3.719l.689-2.758a1 1 0 0 0 -.97-1.242h-2.5l-2.145-2.859c3.613-2.762 9.311-1.2 9.372-1.179a1.012 1.012 0 0 0 .645-.033l4.7-1.88 1.973.493-1.751 1.751a1 1 0 0 0 0 1.414l1.751 1.751-2.287.572a1 1 0 0 0 -.652 1.417l1.276 2.553h-2.382a1 1 0 0 0 -.97.758zm18.965.873a3.178 3.178 0 0 0 -1.459-2.4 4.67 4.67 0 0 0 -4.031.179 2.409 2.409 0 0 0 -.277-2.176c-1.252-1.631-4.589-.544-5.582-.172l.7 1.874c1.344-.505 2.98-.74 3.284-.5 0 0 .216.653-1.449 2.983l.814.581.6.8c1.428-1.07 3.982-2.393 4.935-1.838.391.227.577.941.544 2l-1.989 1.375-1.537.768.894 1.79 2.842-1.421a2.988 2.988 0 0 1 3.192.337l-5.036 3.357a1 1 0 0 0 .927 1.761 12.8 12.8 0 0 1 6.841-.89 3.453 3.453 0 0 1 2.713 2.561c-5.021-1.292-10.929.359-11.2.436a1 1 0 0 0 .274 1.964 26.455 26.455 0 0 1 8.631 1.93 2.893 2.893 0 0 1 1.685 1.69 3.429 3.429 0 0 1 .173 1.726c-3.865-2.423-11.444-3.246-12.389-3.341a1 1 0 0 0 -.343 1.965 26.088 26.088 0 0 1 10.583 5.782 4.021 4.021 0 0 1 1.233 3.708c-2.409-1.693-8.611-5.8-14.3-7.422-.976-.278-1.894-.518-2.746-.741-2.99-.783-5.151-1.349-5.8-2.542-.387-.715-.316-1.839.217-3.439 1.742-5.228-.021-8.426-.858-9.559l.695-2.757h3.219a1 1 0 0 0 .895-1.447l-1.443-2.885 2.791-.7a1 1 0 0 0 .464-1.677l-2.293-2.291 2.031-2.031c1.711-.112 9.721-.39 13.848 3.738l3.152 3.152zm16.925 2.369a1.084 1.084 0 0 1 1.075.964 1.037 1.037 0 0 1 -.325.758 1.077 1.077 0 0 1 -.793.289 20.488 20.488 0 0 1 -12.473-5l.567-.393a33.632 33.632 0 0 0 11.949 3.382zm1.445-5.115c-1.273.439-4.286.945-10.677-.161a1 1 0 0 0 .289-.532 28.453 28.453 0 0 0 9.79-1.063.945.945 0 0 1 .856.137.893.893 0 0 1 .372.734.934.934 0 0 1 -.63.882z"/><path d="m25.585 26.5h5.831v2h-5.831z" transform="matrix(.857 -.514 .514 .857 -10.087 18.582)"/><path d="m26.838 30h6.325v1.999h-6.325z" transform="matrix(.949 -.316 .316 .949 -8.264 11.078)"/><path d="m26.964 33.5h7.071v2.001h-7.071z" transform="matrix(.99 -.141 .141 .99 -4.572 4.66)"/><path d="m25.964 37.5h7.071v2.001h-7.071z" transform="matrix(.99 -.142 .142 .99 -5.153 4.564)"/></g></svg>