<svg height="512" viewBox="0 0 64 64" width="512" xmlns="http://www.w3.org/2000/svg"><g id="Filled_outline" data-name="Filled outline"><path d="m28 26 3-2 2 3 2-4 3 1 3-4-1 22 3 3-4 2-7-6-7 6-4-2 3-3-1-18 3-1z" fill="#66342e"/><path d="m23 5-6 2v6l3-3 3-1z" fill="#f9bb4b"/><path d="m23 5 7-2h4l7 17-3 4-3-1-2 4-2-3-3 2-2-3-3 1v-4l2-8-2-2z" fill="#eaeadc"/><path d="m23 24s-5.333-2.125-7-6h-13a4 4 0 0 0 4 4h6l-10 4a4.47 4.47 0 0 0 6 2l6-3-7 8a5 5 0 0 0 7-1l3-4-2 9c2.114 0 4.29-1.008 5-3l2.22-6.038z" fill="#995f5b"/><path d="m40.817 24.02s5.516-2.145 7.183-6.02h13a4 4 0 0 1 -4 4h-6l10 4a4.47 4.47 0 0 1 -6 2l-6-3 7 8a5 5 0 0 1 -7-1l-3-4 2 9c-2.114 0-4.29-1.008-5-3l-2.366-5.959z" fill="#995f5b"/><path d="m21 45-3 4-3-2h-4l5 5 3 4 2-5 4-4z" fill="#f9bb4b"/><path d="m43 45 3 4 3-2h4l-5 5-3 4-2-5-4-4z" fill="#f9bb4b"/><path d="m26 46.143v10.857l2 2 2-2v-14.286z" fill="#eaeadc"/><path d="m32 41-2 1.714v16.286l2 2 2-2v-16.286z" fill="#f4f4e6"/><path d="m34 42.714v14.286l2 2 2-2v-10.857z" fill="#eaeadc"/><path d="m25.938 6.5h4.123v1.999h-4.123z" transform="matrix(.97 -.243 .243 .97 -.983 7.022)"/><path d="m34.873 31.713-2.318-1.545a1 1 0 0 0 -1.11 0l-2.318 1.545-1.42-1.42-1.414 1.414 2 2a1 1 0 0 0 1.262.125l2.445-1.632 2.445 1.63a1 1 0 0 0 1.262-.125l2-2-1.414-1.414z"/><path d="m61 17h-13a1 1 0 0 0 -.918.6c-.982 2.283-3.554 3.939-5.19 4.8l.108-2.355a.971.971 0 0 0 -.085-.421h.011l-7-17a1 1 0 0 0 -.926-.624h-4a1.02 1.02 0 0 0 -.275.038l-13.041 4.014a1 1 0 0 0 -.684.948v6a1 1 0 0 0 .617.924.987.987 0 0 0 .383.076 1 1 0 0 0 .707-.293l2.833-2.833 1.532-.511a1 1 0 0 0 .221.344l1.6 1.6-1.863 7.451a.984.984 0 0 0 -.03.242v2.408c-1.581-.852-4.091-2.5-5.082-4.8a1 1 0 0 0 -.918-.608h-13a1 1 0 0 0 -1 1 5.006 5.006 0 0 0 5 5h.808l-5.18 2.071a1 1 0 0 0 -.522 1.378 5.472 5.472 0 0 0 7.339 2.451l1.453-.727-3.65 4.173a1 1 0 0 0 .152 1.454 6 6 0 0 0 8.4-1.2l.218-.29-.994 4.473a1 1 0 0 0 .976 1.217c2.817 0 5.149-1.438 5.938-3.655l.552-1.5.487 8.763-5.209 6.035-2.213-1.476a1.006 1.006 0 0 0 -.555-.167h-4a1 1 0 0 0 -.707 1.707l4.95 4.95 2.957 3.943a1 1 0 0 0 .8.4.972.972 0 0 0 .131-.009 1 1 0 0 0 .8-.62l1.923-4.809 3.146-3.148v8.586a1 1 0 0 0 .293.707l2 2a1 1 0 0 0 1.414 0l.362-.362a.982.982 0 0 0 .224.362l2 2a1 1 0 0 0 1.414 0l2-2a.982.982 0 0 0 .224-.362l.362.362a1 1 0 0 0 1.414 0l2-2a1 1 0 0 0 .293-.707v-8.586l3.148 3.148 1.923 4.809a1 1 0 0 0 .8.62.972.972 0 0 0 .129.009 1 1 0 0 0 .8-.4l2.957-3.943 4.95-4.95a1 1 0 0 0 -.707-1.707h-4a1.006 1.006 0 0 0 -.555.168l-2.213 1.476-5.213-6.044.4-8.869.636 1.6c.796 2.231 3.128 3.669 5.945 3.669a1 1 0 0 0 .976-1.217l-.994-4.473.218.29a6 6 0 0 0 8.4 1.2 1 1 0 0 0 .152-1.458l-3.652-4.173 1.453.727a5.472 5.472 0 0 0 7.34-2.449 1 1 0 0 0 -.523-1.376l-5.178-2.071h.808a5.006 5.006 0 0 0 5-5 1 1 0 0 0 -1-1zm-39-8.721-2.316.773a1.011 1.011 0 0 0 -.391.241l-1.293 1.293v-2.865l4-1.333zm-1.942 25.385a3.7 3.7 0 0 1 -2.778 2.187l1.7-7.634a1 1 0 0 0 -.558-1.125.984.984 0 0 0 -.422-.092 1 1 0 0 0 -.8.4l-3 4a4 4 0 0 1 -4.639 1.334l6.191-7.076a1 1 0 0 0 -1.2-1.553l-6 3a3.476 3.476 0 0 1 -4.006-.647l8.827-3.53a1 1 0 0 0 -.373-1.928h-6a3.006 3.006 0 0 1 -2.829-2h11.2c1.655 3.088 5.238 5 6.662 5.668l.175 3.144zm3.942-13.541 1.97-7.881a1 1 0 0 0 -.263-.949l-1.707-1.707v-3.832l6.14-1.754h3.19l6.529 15.855-2.227 2.968-2.316-.771a1 1 0 0 0 -1.211.5l-1.229 2.459-1.044-1.567a1 1 0 0 0 -1.387-.277l-2.168 1.445-1.445-2.168a1 1 0 0 0 -1.148-.393l-1.684.562zm-3.707 30.17a1.01 1.01 0 0 0 -.222.336l-1.339 3.348-1.932-2.577a.951.951 0 0 0 -.093-.107l-3.293-3.293h1.286l2.748 1.832a1 1 0 0 0 1.352-.232l2.5-3.332 2.013 1.006zm8.707 6.293-1 1-1-1v-9.986l2-1.715zm4 2-1 1-1-1v-15.412l1-.857 1 .857zm4-2-1 1-1-1v-11.7l2 1.714zm8.2-6.986a1 1 0 0 0 1.355.232l2.745-1.832h1.283l-3.293 3.293a.951.951 0 0 0 -.093.107l-1.932 2.577-1.339-3.348a1.01 1.01 0 0 0 -.222-.336l-3.019-3.019 2.015-1.006zm-3.888-4.874-2.166 1.083-6.495-5.568a1 1 0 0 0 -1.3 0l-6.5 5.568-2.166-1.083 2.019-2.019a1 1 0 0 0 .296-.763l-.958-17.237 1.551-.517 1.576 2.365a1 1 0 0 0 1.387.277l2.168-1.445 1.445 2.168a1.026 1.026 0 0 0 .894.443 1 1 0 0 0 .833-.551l1.611-3.224 2.178.725a1 1 0 0 0 1.115-.348l1.054-1.4-.854 18.755a1 1 0 0 0 .292.752zm15.688-23.726h-6a1 1 0 0 0 -.372 1.929l8.827 3.53a3.476 3.476 0 0 1 -4.006.647l-6-3a1 1 0 0 0 -1.2 1.553l6.191 7.076a4 4 0 0 1 -4.64-1.335l-3-4a1 1 0 0 0 -1.776.817l1.7 7.633a3.718 3.718 0 0 1 -2.791-2.219l-2.286-5.759.145-3.18c1.467-.668 5.167-2.595 6.837-5.692h11.2a3.006 3.006 0 0 1 -2.829 2z"/></g></svg>