<svg height="512" viewBox="0 0 64 64" width="512" xmlns="http://www.w3.org/2000/svg"><g id="Filled_outline" data-name="Filled outline"><path d="m37 3-5 1-5-1-5 11 1 6 3 4 3-1 2 4 2-3 3 2 2-3 3 1v-4l1-6z" fill="#eaeadc"/><g fill="#ad6327"><path d="m40.667 59-.667-4h-2l-.667 4z"/><path d="m44 53v2l-.667 4h6.667v-6z"/><path d="m30 53v2l-.667 4h5.334l-.667-4v-2z"/><path d="m26.667 59-.667-4h-2l-.667 4z"/><path d="m20 55v-2h-6v6h6.667z"/></g><path d="m27 51 1-3h-4l-1 3-3 1v3l1 6h2l1-6h2l1 6h2l1-6v-3z" fill="#f9bb4b"/><path d="m37 51-1-3h4l1 3 3 1v3l-1 6h-2l-1-6h-2l-1 6h-2l-1-6v-3z" fill="#f9bb4b"/><path d="m36 26-3-2-2 3-2-4-3 1-3-4 1 28h4l4-7 4 7h4l1-24-3-1z" fill="#66342e"/><path d="m23.143 24s-8.143 0-15.143-18a4.281 4.281 0 0 0 -1.827 5.907l2.827 5.093-5-3c-.611 2.446-.937 4.386 1 6l4 3h-6a4 4 0 0 0 4 4h3l-5 5a4.239 4.239 0 0 0 6 0l2-2-2 7 .932.233a3.415 3.415 0 0 0 4.068-2.233l1-3 1 7a4.323 4.323 0 0 0 4-3l1.4-4.913z" fill="#995f5b"/><path d="m41 24s8 0 15-18a4.281 4.281 0 0 1 1.827 5.907l-2.827 5.093 5-3c.611 2.446.937 4.386-1 6l-4 3h6a4 4 0 0 1 -4 4h-3l5 5a4.239 4.239 0 0 1 -6 0l-2-2 2 7-.932.233a3.415 3.415 0 0 1 -4.068-2.233l-1-3-1 7a4.323 4.323 0 0 1 -4-3l-1.3-4.835z" fill="#995f5b"/><path d="m32 13c-3 0-4 3-4 3s4 2 4 5c0-3 4-5 4-5s-1-3-4-3z" fill="#f9bb4b"/><path d="m34.873 31.713-2.318-1.545a1 1 0 0 0 -1.11 0l-2.318 1.545-1.42-1.42-1.414 1.414 2 2a1 1 0 0 0 1.262.125l2.445-1.632 2.445 1.63a1 1 0 0 0 1.262-.125l2-2-1.414-1.414z"/><path d="m61 22h-3l1.642-1.231c2.55-2.127 1.873-4.835 1.329-7.011a1 1 0 0 0 -1.485-.615l-1.8 1.079 1.014-1.829a5.28 5.28 0 0 0 -2.256-7.288 1 1 0 0 0 -1.379.533c-5.154 13.262-10.808 16.396-13.065 17.135v-2.69l.986-5.919a.993.993 0 0 0 -.076-.578l-5-11a.99.99 0 0 0 -1.11-.566l-4.8.96-4.8-.96a.99.99 0 0 0 -1.106.566l-5 11a.993.993 0 0 0 -.076.578l.982 5.936.095 2.664c-2.312-.753-8.027-3.914-13.166-17.128a1 1 0 0 0 -1.381-.532 5.28 5.28 0 0 0 -2.248 7.289l1.015 1.829-1.8-1.079a1 1 0 0 0 -1.485.615c-.545 2.176-1.221 4.884 1.37 7.042l1.6 1.2h-3a1 1 0 0 0 -1 1 5.006 5.006 0 0 0 5 5h.586l-3.293 3.293a1 1 0 0 0 0 1.416 5.25 5.25 0 0 0 6.726.577l-.983 3.44a1 1 0 0 0 .719 1.244l.933.233a4.434 4.434 0 0 0 4.891-2.072l.431 3.011a1 1 0 0 0 .99.858 5.3 5.3 0 0 0 4.609-2.877l.391 10.732-.786 2.354-2.525.843a1 1 0 0 0 -.689.948h-5a1 1 0 0 0 -1 1v6a1 1 0 0 0 1 1h5.82l.194 1.164a1 1 0 0 0 .986.836h2a1 1 0 0 0 .986-.836l.194-1.164h1.64l.194 1.164a1 1 0 0 0 .986.836h2a1 1 0 0 0 .986-.836l.194-1.164h3.64l.194 1.164a1 1 0 0 0 .986.836h2a1 1 0 0 0 .986-.836l.194-1.164h1.64l.194 1.164a1 1 0 0 0 .986.836h2a1 1 0 0 0 .986-.836l.194-1.164h5.82a1 1 0 0 0 1-1v-6a1 1 0 0 0 -1-1h-5a1 1 0 0 0 -.684-.948l-2.525-.843-.784-2.35.443-10.63a5.292 5.292 0 0 0 4.55 2.771 1 1 0 0 0 .99-.858l.43-3.01a4.434 4.434 0 0 0 4.891 2.068l.932-.233a1 1 0 0 0 .719-1.244l-.983-3.44a5.251 5.251 0 0 0 6.728-.579 1 1 0 0 0 0-1.414l-3.293-3.29h.586a5.006 5.006 0 0 0 5-5 1 1 0 0 0 -1-1zm-39.957 13.71a3.391 3.391 0 0 1 -2.194 2.156l-.859-6.008a1 1 0 0 0 -.9-.854c-.03 0-.061 0-.091 0a1 1 0 0 0 -.947.684l-1 3a2.435 2.435 0 0 1 -2.806 1.6l1.716-6.006a1 1 0 0 0 -1.669-.981l-2 2a3.251 3.251 0 0 1 -3.766.594l4.182-4.182a1 1 0 0 0 -.709-1.713h-3a3.006 3.006 0 0 1 -2.829-2h4.829a1 1 0 0 0 .6-1.8l-3.959-2.969c-1.11-.923-1.286-1.931-.967-3.661l3.811 2.287a1 1 0 0 0 1.389-1.342l-2.829-5.093a3.285 3.285 0 0 1 .5-3.866 48.218 48.218 0 0 0 5.355 9.977l-2.453 1.635 1.11 1.664 2.567-1.711c.232.28.461.544.689.8l-2.613 3.479 1.6 1.2 2.423-3.231c.435.407.859.771 1.268 1.092l-3.323 4.984 1.664 1.11 3.306-4.955c.191.115.379.222.56.318l-1.66 5.812 1.924.548 1.593-5.578c.227.07.435.126.618.167l.218 6.1zm-6.043 22.29v-4h4v1a1 1 0 0 0 .014.164l.472 2.836zm29.986-2.836a1 1 0 0 0 .014-.164v-1h4v4h-4.486zm-17.404-51.028 4.218.844a1 1 0 0 0 .392 0l4.222-.844 4.546 10-.95 5.7a1 1 0 0 0 -.01.164v2.613l-1.684-.561a.994.994 0 0 0 -1.148.393l-1.445 2.168-2.168-1.445a1 1 0 0 0 -1.387.277l-1.044 1.567-1.224-2.459a1 1 0 0 0 -1.211-.5l-2.317.771-2.426-3.224-.91-5.459zm12.388 20.575-.929 22.289h-2.461l-3.712-6.5a1.04 1.04 0 0 0 -1.736 0l-3.712 6.5h-2.455l-.852-23.849 1.087 1.449a1 1 0 0 0 1.116.348l2.177-.725 1.612 3.224a1 1 0 0 0 1.727.108l1.445-2.168 2.168 1.445a1 1 0 0 0 1.387-.277l1.576-2.365zm-15.457 33.289.334-2h.306l.334 2zm4.487-3.083-.847 5.083h-.306l-.861-5.164a1 1 0 0 0 -.986-.836h-2a1 1 0 0 0 -.986.836l-.861 5.164h-.306l-.847-5.083v-2.2l2.316-.773a.99.99 0 0 0 .632-.632l.773-2.312h1.891l-.56 1.684a1 1 0 0 0 .632 1.264l2.316.773zm1.514 3.083.472-2.836a1 1 0 0 0 .014-.164v-1h2v1a1 1 0 0 0 .014.164l.472 2.836zm3.17-6.948a1 1 0 0 0 -.684.948h-2a1 1 0 0 0 -.684-.948l-2.051-.685.652-1.956 3.083-5.395 3.083 5.4.652 1.956zm4.829 6.948.334-2h.306l.334 2zm4.487-5.279v2.2l-.847 5.079h-.306l-.861-5.164a1 1 0 0 0 -.986-.836h-2a1 1 0 0 0 -.986.836l-.861 5.164h-.306l-.847-5.083v-2.2l2.316-.773a1 1 0 0 0 .632-1.264l-.56-1.68h1.891l.773 2.316a.99.99 0 0 0 .632.632zm14-26.721h-3a1 1 0 0 0 -.707 1.707l4.182 4.182a3.247 3.247 0 0 1 -3.766-.594l-2-2a1 1 0 0 0 -1.669.981l1.716 6.006a2.434 2.434 0 0 1 -2.806-1.6l-1-3a1 1 0 0 0 -1.938.174l-.86 6.008a3.368 3.368 0 0 1 -2.184-2.126l-1.259-4.686.258-6.19c.148-.034.312-.077.49-.13l1.583 5.54 1.924-.548-1.648-5.77q.278-.147.573-.322l3.281 4.921 1.664-1.11-3.3-4.949c.407-.322.831-.689 1.266-1.1l2.4 3.2 1.6-1.2-2.593-3.456c.229-.257.46-.525.693-.809l2.545 1.7 1.11-1.664-2.436-1.624a48.839 48.839 0 0 0 5.337-9.988 3.285 3.285 0 0 1 .5 3.866l-2.829 5.093a1 1 0 0 0 1.389 1.342l3.811-2.287c.32 1.729.151 2.732-.926 3.63l-4 3a1 1 0 0 0 .599 1.803h4.829a3.006 3.006 0 0 1 -2.829 2z"/><path d="m27 7.764h2v4.472h-2z" transform="matrix(.447 -.894 .894 .447 6.534 30.572)"/><path d="m33.764 9h4.472v2h-4.472z" transform="matrix(.894 -.447 .447 .894 -.672 17.155)"/><path d="m27.052 15.684a1 1 0 0 0 .5 1.211c.035.017 3.448 1.788 3.448 4.105a1 1 0 0 0 2 0c0-1.941 2.489-3.622 3.449-4.106a1 1 0 0 0 .5-1.21c-.049-.151-1.27-3.684-4.949-3.684s-4.9 3.533-4.948 3.684zm4.948-1.684a3.151 3.151 0 0 1 2.7 1.605 10.019 10.019 0 0 0 -2.7 2.488 10.035 10.035 0 0 0 -2.7-2.488 3.152 3.152 0 0 1 2.7-1.605z"/></g></svg>