<svg height="512" viewBox="0 0 64 64" width="512" xmlns="http://www.w3.org/2000/svg"><g id="Filled_outline" data-name="Filled outline"><path d="m57.009 43c1.484-2.969-3.639-4.284-6.38-4.765a47.191 47.191 0 0 1 2.38 8.765h-2l-1 3-1.939-2a22.435 22.435 0 0 1 .939-4c-3 0-4 3-4 3l-2-3-1.571 2.094c-.32-.382-.625-.757-.919-1.127.044.056.084.11.129.166l.136 1.833-.775 1.034a4.373 4.373 0 0 0 -4-3 3.459 3.459 0 0 1 -.645 3.578l-3.719-.123-1.636-2.455-2.323 2.323-2.631-.088a10.978 10.978 0 0 1 .954-3.235 15.977 15.977 0 0 0 -3.729.625l-1.271-7.625.857 5.143-3.857-5.143a12.5 12.5 0 0 0 -9 5c-4 5 3 1 3 1s-4 3-4 7 3-1 3-1-1 6 2 10 1-7 1-7 3 8 8 8h20a8.731 8.731 0 0 0 5-2 9.081 9.081 0 0 0 3-5s5 8 4 0a17.5 17.5 0 0 0 -1-5s6.029 1.005 2.978-3.03c.059-.682.1-1.115.156-1.8a3.747 3.747 0 0 0 .866-1.17z" fill="#ffd782"/><path d="m19.009 26-3 3c-1.623 1.353-2.25 3.3-1 5l6.857 9.143z" fill="#995f5b"/><path d="m39.009 27a4.21 4.21 0 0 0 -4 1s-4.343 5.222 6.429 18.094l1.571-2.094 2 3s1-3 4-3a22.435 22.435 0 0 0 -.939 4l1.939 2 1-3h2s-3-20-14-20z" fill="#995f5b"/><path d="m30.009 46 1.636 2.455 3.719.123a3.459 3.459 0 0 0 .645-3.578 4.373 4.373 0 0 1 4 3l.775-1.034-.136-1.833c-9.767-12.172-5.639-17.133-5.639-17.133a4.21 4.21 0 0 1 4-1c.1 0 .2.014.3.017l-.3-8.017-3 4-3-1-2 4-2-3-3 2-2-3-3 1-2 3 3.271 19.625a15.977 15.977 0 0 1 3.729-.625 10.978 10.978 0 0 0 -.954 3.235l2.631.088z" fill="#66342e"/><path d="m19 5-6 2v6l3-3 3-1z" fill="#f9bb4b"/><path d="m19 5 7-2h4l9 16-3 4-3-1-2 4-2-3-3 2-2-3-3 1v-11l-2-2z" fill="#eaeadc"/><path d="m21.947 6.5h4.123v1.999h-4.123z" transform="matrix(.97 -.243 .243 .97 -1.103 6.053)"/><path d="m37.009 32.697h2v3.606h-2z" transform="matrix(.832 -.555 .555 .832 -12.754 26.878)"/><path d="m41.009 29.764h2v4.472h-2z" transform="matrix(.447 -.894 .894 .447 -5.4 55.263)"/><path d="m24 16h2v3h-2z"/><path d="m32.009 13.697h2v3.606h-2z" transform="matrix(.832 -.555 .555 .832 -3.054 20.913)"/><path d="m28.509 15.919h2v3.162h-2z" transform="matrix(.949 -.316 .316 .949 -4.02 10.23)"/><path d="m8.228 42.375c-1 1.246-1.989 2.659-1.137 3.655a1.347 1.347 0 0 0 1.326.481 8.479 8.479 0 0 0 -1.408 4.489c0 .535 0 2.162 1.22 2.5a1.842 1.842 0 0 0 1.627-.474 13.468 13.468 0 0 0 2.353 7.574c.308.412 1.251 1.662 2.386 1.166.4-.177 1.195-.522 1.061-3.716 1.507 2.031 3.644 3.95 6.353 3.95h20a9.667 9.667 0 0 0 8.3-5.787c1.411 1.85 2.619 2.612 3.612 2.256 1.377-.49 1.34-2.465 1.084-4.538a17.27 17.27 0 0 0 -.62-3.81c1.16.02 2.565-.218 3.179-1.234.512-.846.327-1.922-.552-3.2l.092-1.06a5.1 5.1 0 0 0 .8-1.18 2.925 2.925 0 0 0 .067-2.728c-.769-1.527-3-2.65-6.59-3.354-2.05-5.133-5.512-10.565-11.108-11.282l-.265-7.12a.979.979 0 0 0 -.14-.451l-9-16a1 1 0 0 0 -.868-.512h-4a1.02 1.02 0 0 0 -.275.038l-13.041 4.014a1 1 0 0 0 -.684.948v6a1 1 0 0 0 .617.924.987.987 0 0 0 .383.076 1 1 0 0 0 .707-.293l2.833-2.833 1.532-.511a1 1 0 0 0 .221.344l1.707 1.707v10.3l-1.769 2.654-2.862 2.867c-2.164 1.8-2.633 4.36-1.16 6.369l1.983 2.644a14.1 14.1 0 0 0 -7.964 5.127zm9.772-34.096-2.316.773a1.011 1.011 0 0 0 -.391.241l-1.293 1.293v-2.865l4-1.333zm30.433 33.621a1 1 0 0 0 .567-.9v-4.094a45.739 45.739 0 0 1 2.81 9.094h-.8a1 1 0 0 0 -.949.684l-.479 1.438-.456-.47a24.709 24.709 0 0 1 .824-3.336 1 1 0 0 0 -.95-1.316 4.953 4.953 0 0 0 -4.075 2.085l-.746-1.119a1.033 1.033 0 0 0 .189-.036 1 1 0 0 0 .618-1.094l-.57-3.423 2.959 2.368a1 1 0 0 0 1.058.119zm-9.424-13.9c3.44 0 6.047 2.24 7.991 5.186v5.733l-3.375-2.7a1 1 0 0 0 -1.611.945l.538 3.232a12.287 12.287 0 0 0 -4.9-1.367c-4.104-7.239-1.92-10.329-1.927-10.329a3.172 3.172 0 0 1 2.993-.741 1.025 1.025 0 0 0 .291.041zm3.716 15.042a.984.984 0 0 0 -.525.358l-.8 1.067c-.918-1.145-1.707-2.222-2.384-3.232a7.265 7.265 0 0 1 3.709 1.807zm-4.462-17.165a5.005 5.005 0 0 0 -4.023 1.483 4.921 4.921 0 0 0 -.828 1.836l-2.126 1.417-1.445-2.168a1.039 1.039 0 0 0 -1.664 0l-1.323 1.986-2.138-2.138-1.416 1.414 3 3a1 1 0 0 0 1.539-.152l1.17-1.755 1.168 1.752a1 1 0 0 0 1.386.277l1.608-1.071c.125 3.038 1.6 7.736 6.993 14.353l-.015.02a5.433 5.433 0 0 0 -4.149-2.131 1 1 0 0 0 -.9 1.447 2.552 2.552 0 0 1 -.559 2.553h-2.006l-1.7-2.555a1 1 0 0 0 -.733-.44 1.011 1.011 0 0 0 -.806.288l-2.71 2.707h-.5a10.314 10.314 0 0 1 .808-2.554 1 1 0 0 0 -.894-1.446 14.058 14.058 0 0 0 -2.912.394l-3.028-18.168 1.59-2.386 1.951-.65 1.576 2.365a1 1 0 0 0 1.386.277l2.168-1.445 1.446 2.168a1.011 1.011 0 0 0 .894.443 1 1 0 0 0 .832-.551l1.612-3.224 2.177.725a1 1 0 0 0 1.117-.348l1.3-1.741zm-18.263-20.123 6.14-1.754h3.275l8.4 14.929-2.172 2.894-2.316-.771a1 1 0 0 0 -1.211.5l-1.229 2.459-1.044-1.567a1 1 0 0 0 -1.387-.277l-2.168 1.445-1.445-2.168a1 1 0 0 0 -1.149-.393l-1.694.565v-9.616a1 1 0 0 0 -.293-.707l-1.707-1.707zm-4.185 27.654c-1.244-1.7.324-3.215.9-3.7l1.626-1.626 1.864 11.181zm-6.025 10.217a11.792 11.792 0 0 1 7.746-4.59l3.384 4.512.212 1.271c-1.988-1.37-4.528-.423-5.687.35a1 1 0 0 0 .555 1.832.915.915 0 0 1 1 1v1h2v-1a3.246 3.246 0 0 0 -.606-1.862 2.161 2.161 0 0 1 1.9.569 1 1 0 0 0 1.023.241 24.982 24.982 0 0 1 3.165-.8 9.768 9.768 0 0 0 -.482 2.852 1 1 0 0 0 1 1h2a1 1 0 0 0 .707-.293l2.138-2.138 1.323 1.986a1 1 0 0 0 .832.445h3a1 1 0 0 0 .707-.293 5.673 5.673 0 0 0 1.575-3.391 3.231 3.231 0 0 1 1.769 2 1 1 0 0 0 1.749.284l2.152-2.87 1.216 1.825a1 1 0 0 0 1.779-.234 3.891 3.891 0 0 1 1.619-1.959 16.074 16.074 0 0 0 -.566 3.638v1h1.616l.675.7a1 1 0 0 0 1.667-.38l.771-2.32h1.28a1 1 0 0 0 .991-1.148 47.241 47.241 0 0 0 -1.8-7.258c2.129.54 3.611 1.273 3.99 2.025a.95.95 0 0 1 -.07.934 2.77 2.77 0 0 1 -.627.865 1 1 0 0 0 -.341.669l-.155 1.8a1 1 0 0 0 .2.689c.69.911.662 1.273.67 1.273a4.6 4.6 0 0 1 -2.687.167 1 1 0 0 0 -1.112 1.3 16.891 16.891 0 0 1 .941 4.684.861.861 0 0 0 .008.124 10.343 10.343 0 0 1 .1 2.2 14.624 14.624 0 0 1 -2.262-2.85 1 1 0 0 0 -1.817.288 8.108 8.108 0 0 1 -2.68 4.482 7.783 7.783 0 0 1 -4.349 1.756h-20c-3.523 0-6.294-5.307-7.064-7.352a1 1 0 0 0 -1.92.531 35.3 35.3 0 0 1 .64 6.022c-2.525-3.601-1.679-8.983-1.665-9.038a1 1 0 0 0 -1.845-.678 11.686 11.686 0 0 1 -1.142 1.587v-.072c0-3.44 3.565-6.174 3.6-6.2a1 1 0 0 0 -1.1-1.667 18.854 18.854 0 0 1 -2.156 1.057c.119-.164.262-.351.433-.565z"/><path d="m22 54.388v.612a1 1 0 0 0 1.316.948l2.178-.725.611 1.224 1.79-.894-1-2a1 1 0 0 0 -1.211-.5l-1.684.559v-.612a1 1 0 0 0 -1.316-.948l-3 1 .632 1.9z"/><path d="m34.456 57.342 1.106.553a1 1 0 0 0 1.341-.448l.38-.759 1.017 1.019 1.414-1.414-2-2a.99.99 0 0 0 -.867-.28 1 1 0 0 0 -.735.54l-.552 1.105-1.106-.553a1 1 0 0 0 -1.342.448l-1 2 1.789.894z"/><path d="m41.456 52.342 1.106.553a1 1 0 0 0 1.341-.448l.38-.759 1.017 1.019 1.414-1.414-2-2a.986.986 0 0 0 -.867-.28 1 1 0 0 0 -.735.54l-.552 1.105-1.106-.553a1 1 0 0 0 -1.342.448l-1 2 1.789.894z"/></g></svg>