<svg height="512" viewBox="0 0 64 64" width="512" xmlns="http://www.w3.org/2000/svg"><g id="Filled_outline" data-name="Filled outline"><path d="m43 14 1-1a2.828 2.828 0 0 0 0-4l-1-1a2.828 2.828 0 0 0 0-4l-1-1-12 12 2 7-5 5s5.186-1.307 9.315-.315l7.564-7.564a3 3 0 0 0 0-4.242z" fill="#66342e"/><path d="m39.152 27.935c-4-3-12.152-.935-12.152-.935l5-5-4-14-24 24c-2.5 2.5-1 7 6 6s9 3 9 3l2-2 11-8z" fill="#995f5b"/><path d="m18 42-8 8v4h5l2 2 7-5 5-1-4-3 1-4-5 2v-6z" fill="#eaeadc"/><path d="m10 54a7.567 7.567 0 0 0 2 7s1-5 5-5l-2-2z" fill="#f9bb4b"/><path d="m21 39 11-8 14-6 5 5s0 13-22 20l-4-3 1-4-5 2z" fill="#66342e"/><path d="m46 25 15-12v7l-12 8z" fill="#f4f4e6"/><path d="m49 28 10.071-6.714 1.929 3.714-10 5z" fill="#eaeadc"/><path d="m12.438 49h4.123v1.999h-4.123z" transform="matrix(.242 -.97 .97 .242 -37.523 51.953)"/><path d="m61.434 12.1a1 1 0 0 0 -1.059.12l-14.9 11.917-6.248 2.677a8 8 0 0 0 -1.072-.558l6.427-6.427a4 4 0 0 0 0-5.656l-.168-.173.293-.293a3.832 3.832 0 0 0 0-5.414l-.387-.387a3.834 3.834 0 0 0 -.613-4.613l-1-1a1 1 0 0 0 -1.414 0l-10.8 10.8-1.531-5.367a1 1 0 0 0 -1.669-.433l-24 24a4.352 4.352 0 0 0 -1 5.051c.529 1.056 2.354 3.425 7.85 2.646 4.6-.661 6.743.985 7.555 1.9l-8.4 8.4a1 1 0 0 0 -.298.71v3.886a8.5 8.5 0 0 0 2.3 7.831 1 1 0 0 0 1.68-.517c.009-.042.876-4.2 4.02-4.2a1 1 0 0 0 .581-.187l6.825-4.875 4.79-.958c.037-.007.107-.027.107-.027 19.946-6.346 22.364-17.515 22.655-20.314l9.489-4.739a1 1 0 0 0 .441-1.356l-1.516-2.924 1.183-.788a1 1 0 0 0 .445-.832v-7a1 1 0 0 0 -.566-.9zm-19.434-7.686.293.293a1.831 1.831 0 0 1 0 2.586l-8 8 1.414 1.414 7.293-7.293.293.293a1.831 1.831 0 0 1 0 2.586l-9 9 1.414 1.414 7.293-7.293.172.172a2 2 0 0 1 0 2.828l-7.183 7.186a20.557 20.557 0 0 0 -6.052-.119l2.77-2.771a1 1 0 0 0 .255-.981l-1.839-6.435zm-32.142 32.596c-2.918.415-5.08-.167-5.777-1.561a2.387 2.387 0 0 1 .626-2.742l22.8-22.8.705 2.467-13.419 13.419 1.414 1.414 12.631-12.631.7 2.467-8.25 8.25 1.414 1.414 7.465-7.465.7 2.467-4.584 4.584a1 1 0 0 0 .952 1.677c.066-.017 5.695-1.4 9.552-.113l-5.191 2.224a.979.979 0 0 0 -.194.11l-11 8s-.081.064-.119.1l-1.186 1.186c-1.19-1.3-3.918-3.224-9.239-2.467zm1.783 21.921a6.563 6.563 0 0 1 -.793-3.931h3.738l.4.405a6.771 6.771 0 0 0 -3.345 3.526zm12.159-8.911a.975.975 0 0 0 -.385.167l-6.311 4.507-1.4-1.4a1 1 0 0 0 -.704-.294h-4v-2.586l9-9v3.586a1 1 0 0 0 1.371.929l3.185-1.274-.526 2.1a1 1 0 0 0 .37 1.045l2.21 1.658zm5.376-1.135-3.045-2.285.839-3.357a1 1 0 0 0 -1.341-1.171l-3.629 1.451v-4.014l10.5-7.634 13.274-5.689 4.2 4.2c-.232 2.12-2.308 12.448-20.794 18.499zm22.024-20.102-.627-.628 8.127-5.418.947 1.823zm8.8-9.318-10.873 7.248-1.63-1.63 12.5-10z"/><path d="m34 41h-3v-2a1 1 0 0 0 -1-1h-4v2h3v2a1 1 0 0 0 1 1h2.382l-1.277 2.553 1.79.894 2-4a1 1 0 0 0 -.895-1.447z"/><path d="m39 37h-2.612l.56-1.684a1 1 0 0 0 -.948-1.316h-3v2h1.612l-.56 1.684a1 1 0 0 0 .948 1.316h3v2h2v-3a1 1 0 0 0 -1-1z"/></g></svg>