<svg height="512" viewBox="0 0 64 64" width="512" xmlns="http://www.w3.org/2000/svg"><g id="Filled_outline" data-name="Filled outline"><path d="m14 43-1 1a2.828 2.828 0 0 1 -4 0l-1-1a2.828 2.828 0 0 1 -4 0l-1-1 12-12 7 2 5-5s-1.307 5.186-.315 9.315l-7.564 7.564a3 3 0 0 1 -4.242 0z" fill="#66342e"/><path d="m38 10c1-7-3.5-8.5-6-6l-22 22s-4 3.417-7 4a8.994 8.994 0 0 0 10-1l9 3 5-5s-2.065 8.152.935 12.152l3.065-7.152 8-11 2-2s-4-2-3-9z" fill="#995f5b"/><path d="m42 18 8-8h4v5l2 2-5 7-1 5-3-4-4 1 2-5h-6z" fill="#eaeadc"/><path d="m54 10s4-1 7 1c0 0-5 2-5 6l-2-2z" fill="#f9bb4b"/><path d="m39 21-8 11-6 14 5 5s13 0 20-22l-3-4-4 1 2-5z" fill="#66342e"/><path d="m25 46-12 15h4c1.672 0 4.073-1.609 5-3l6-9z" fill="#eaeadc"/><path d="m28 49-6 9c1.476 1.476 4.781 1.062 6-2l2-5z" fill="#f4f4e6"/><path d="m61.555 10.168c-3.055-2.039-6.911-1.332-7.664-1.168h-3.891a1 1 0 0 0 -.707.293l-8.4 8.4c-.911-.808-2.558-2.949-1.9-7.554.785-5.5-1.589-7.322-2.646-7.85a4.357 4.357 0 0 0 -5.051 1l-21.945 21.95c-1.058.9-4.293 3.342-6.542 3.78a1 1 0 0 0 -.324 1.838 10.1 10.1 0 0 0 10.7-.741l.213.071-11.105 11.106a1 1 0 0 0 0 1.414l1 1a3.833 3.833 0 0 0 4.613.613l.387.387a3.834 3.834 0 0 0 5.414 0l.293-.293.172.172a4 4 0 0 0 5.656 0l6.427-6.427a8 8 0 0 0 .558 1.072l-2.678 6.249-11.916 14.9a1 1 0 0 0 .781 1.62h4a8.158 8.158 0 0 0 5.188-2.66 4.164 4.164 0 0 0 1.951.485 4.817 4.817 0 0 0 .97-.1 5.287 5.287 0 0 0 3.82-3.355l1.771-4.417c2.894-.32 13.955-2.842 20.257-22.65.011-.036.027-.107.027-.107l.958-4.79 4.873-6.827a1 1 0 0 0 .185-.579c0-3.266 4.33-5.055 4.373-5.072a1 1 0 0 0 .182-1.76zm-43.141 33a2 2 0 0 1 -2.828 0l-.172-.168 7.293-7.293-1.414-1.414-9 9a1.831 1.831 0 0 1 -2.586 0l-.293-.293 7.293-7.293-1.414-1.414-8 8a1.831 1.831 0 0 1 -2.586 0l-.293-.293 11.106-11.106 6.164 2.054a.994.994 0 0 0 1.023-.241l2.771-2.77a20.626 20.626 0 0 0 .119 6.052zm7.879-16.879-4.563 4.566-2.379-.792 7.356-7.356-1.414-1.414-8.063 8.063-2.379-.793 12.356-12.356-1.414-1.414-13.446 13.446a7.872 7.872 0 0 1 -6.432 1.726 27.829 27.829 0 0 0 4.792-3.258l22-22a2.387 2.387 0 0 1 2.742-.626c1.4.7 1.978 2.857 1.561 5.777-.759 5.311 1.166 8.046 2.468 9.249l-1.185 1.186a.969.969 0 0 0 -.1.119l-8 11a.979.979 0 0 0 -.11.194l-2.231 5.2c-1.29-3.857.1-9.5.12-9.566a1 1 0 0 0 -1.677-.952zm-5.125 31.156a6.611 6.611 0 0 1 -4.168 2.555h-1.919l10-12.5 1.63 1.63zm5.9-1.815a3.323 3.323 0 0 1 -2.366 2.137 2.546 2.546 0 0 1 -1.308-.06l4.758-7.137.672.671zm9.881-8.3a15.017 15.017 0 0 1 -6.567 2.641l-4.2-4.2 5.693-13.271 7.634-10.5h4.014l-1.452 3.629a1 1 0 0 0 1.172 1.341l3.355-.839 2.291 3.055c-3.489 10.656-8.403 15.746-11.937 18.144zm13.237-23.911a.988.988 0 0 0 -.166.385l-.562 2.807-1.658-2.211a1 1 0 0 0 -1.043-.37l-2.1.526 1.274-3.185a1 1 0 0 0 -.931-1.371h-3.586l9-9h2.586v4a1 1 0 0 0 .293.707l1.4 1.4zm5.188-8.46-.374-.373v-3.748a9.534 9.534 0 0 1 3.774.228 8.513 8.513 0 0 0 -3.4 3.893z"/><path d="m48.379 13.5h4.243v2h-4.243z" transform="matrix(.707 -.707 .707 .707 4.538 39.956)"/><path d="m43 32.382v-2.382a1 1 0 0 0 -1-1h-2v-3h-2v4a1 1 0 0 0 1 1h2v3a1 1 0 0 0 1.447.9l4-2-.894-1.79z"/><path d="m39 35a1 1 0 0 0 -.416-.812.988.988 0 0 0 -.9-.136l-1.684.56v-1.612h-2v3a1 1 0 0 0 1.316.948l1.684-.56v2.612a1 1 0 0 0 1 1h3v-2h-2z"/></g></svg>