<svg height="512" viewBox="0 0 64 64" width="512" xmlns="http://www.w3.org/2000/svg"><g id="Filled_outline" data-name="Filled outline"><path d="m15 22s-5 11 11 20c0 0 4 2 2 9l3 2 4-6s4 7 12 8-4-8-4-8 12 9 6 0-10-30-15-32v4h-3v5l-4-2-2 4-3-3-4 3v-4z" fill="#66342e"/><path d="m18 6 1 5-4 11h3v4l4-3 3 3 2-4 4 2v-5h3v-4l-8-11-4-1z" fill="#eaeadc"/><path d="m18 6-6 3 1 5 2-3h4z" fill="#f9bb4b"/><path d="m21 57 6-1 1-5 3 2v8l-4-1-9 1v-1a3 3 0 0 1 3-3z" fill="#f9bb4b"/><path d="m47 55c8 1-4-8-4-8s12 9 6 0-10-30-15-32v4h-3v5l-4-2-2 4-3-3s0 13 13 24c0 0 4 7 12 8z" fill="#995f5b"/><path d="m31 53v6l4 2v-6z" fill="#ffd782"/><path d="m35 47-4 6 4 2 3.293-4.116a17.925 17.925 0 0 1 -3.293-3.884z" fill="#5b2e2b"/><path d="m20.919 7.5h3.162v1.999h-3.162z" transform="matrix(.949 -.317 .317 .949 -1.534 7.559)"/><path d="m42.828 30.175c-2.738-7.7-5.116-14.37-8.154-15.947l-7.865-10.816a1 1 0 0 0 -.567-.382l-4-1a1 1 0 0 0 -.842.17l-3.925 2.945-5.922 2.96a1 1 0 0 0 -.533 1.095l1 5a1 1 0 0 0 .786.785.989.989 0 0 0 .194.015 1 1 0 0 0 .832-.445l1.703-2.555h2.038l-3.5 9.627a12.856 12.856 0 0 0 -.553 7.188c.723 3.743 3.392 9.22 12.022 14.074.133.07 3.223 1.8 1.5 7.837-.007.026-.018.078-.018.078l-.866 4.323-5.247.873a4 4 0 0 0 -3.911 4v1a1 1 0 0 0 1.11.994l8.822-.98 3.826.956a1 1 0 0 0 1.242-.97v-.382l2.553 1.282a1 1 0 0 0 1.447-.9v-5.648l2.423-3.029a16.691 16.691 0 0 0 8.453 3.669 9.694 9.694 0 0 0 1.226.092 2.483 2.483 0 0 0 2.521-1.239c.238-.59.151-1.5-.821-2.876a1.478 1.478 0 0 0 1.422-.377c1.038-.983.194-2.768-1.392-5.147-2.612-3.919-4.845-10.198-7.004-16.27zm-27.828-20.175a1 1 0 0 0 -.832.445l-.661.992-.376-1.884 4.145-2.073.5 2.52zm4.939 1.342a.987.987 0 0 0 .041-.538l-.88-4.382 3.115-2.336 3.186.8 7.599 10.439v2.675h-2a1 1 0 0 0 -1 1v3.382l-2.553-1.277a1 1 0 0 0 -1.342.448l-1.379 2.759-2.019-2.019a1 1 0 0 0 -1.09-.217 1.038 1.038 0 0 0 -.213.128l-2.404 1.796v-2a1 1 0 0 0 -1-1h-1.573zm10.061 48.377-2.758-.689a1.014 1.014 0 0 0 -.352-.024l-7.89.877a2 2 0 0 1 2-1.883 1 1 0 0 0 .164-.014l6-1a1 1 0 0 0 .816-.79l.708-3.536 1.312.875zm.723-8.106-1.574-1.049c1.736-7.145-2.513-9.364-2.659-9.435-13.063-7.349-11.514-15.829-10.79-18.129h1.3v3a1 1 0 0 0 1.6.8l2.544-1.908c.494 4 2.707 13.62 12.538 22.282zm3.277 7.769-2-1v-3.764l2 1zm.725-5.638-2.265-1.132 2.547-3.82a20.089 20.089 0 0 0 1.921 2.2zm7.611-6s.041.035.064.053c3.2 2.4 6.031 5.2 6.325 6.219a4.77 4.77 0 0 1 -1.6-.011c-7.387-.924-11.219-7.44-11.257-7.506a1.025 1.025 0 0 0 -.221-.266c-8.963-7.584-11.575-16.215-12.334-20.51l.981.981a.987.987 0 0 0 .867.28 1 1 0 0 0 .735-.54l1.552-3.105 3.105 1.561a1 1 0 0 0 1.447-.9v-4h2a1 1 0 0 0 1-1v-1.876c1.971 2.546 4.06 8.42 5.944 13.721.934 2.627 1.885 5.283 2.876 7.8-2.781-2.719-6.325-6.427-7.963-9.157l-1.714 1.03c2.657 4.427 9.681 10.954 11.671 12.762a34.454 34.454 0 0 0 2.354 4.278 15.242 15.242 0 0 1 1.326 2.294 31.437 31.437 0 0 1 -5.864-3.627c-.4-.356-9.02-8.06-12.849-12.847l-1.562 1.25c4.008 5.006 12.747 12.79 13.117 13.119z"/><path d="m18.919 16.5h3.162v1.999h-3.162z" transform="matrix(.317 -.949 .949 .317 -2.589 31.407)"/><path d="m23.5 16.919h1.999v3.162h-1.999z" transform="matrix(.949 -.317 .317 .949 -4.596 8.706)"/><path d="m27 11.697h2v3.606h-2z" transform="matrix(.832 -.555 .555 .832 -2.786 17.799)"/></g></svg>