<?xml version="1.0" encoding="UTF-8"?>
<svg xmlns="http://www.w3.org/2000/svg" viewBox="0 0 64 64" width="512" height="512"><g id="Filled_outline" data-name="Filled outline"><path d="M21,22l4-2,3,2,2-2,2,2c-5,4,0,13,0,13L43.432,55.006A39.3,39.3,0,0,1,40,58l1,3H37L33,46H32s-3-3-8-9S21,22,21,22Z" style="fill:#66342e"/><path d="M32,22l2-2h6s3,3,3,13,2,13,2,13l-2,1,2.618,6.98a1.21,1.21,0,0,1-.592,1.507h0a1.21,1.21,0,0,1-1.592-.482L32,35S27,26,32,22Z" style="fill:#995f5b"/><path d="M23,13v-.5l1,.5h2L24,8a6.2,6.2,0,0,0-1,.05V7a4,4,0,0,1,4-4h5a4,4,0,0,1,4,4v8s0,2,4,5H34l-2,2-2-2-2,2-3-2-4,2a12.677,12.677,0,0,0,2-6Z" style="fill:#eaeadc"/><path d="M26,13,24,8s-6-.375-6,6c0,0,2.123-2,4-2l2,1Z" style="fill:#f9bb4b"/><path d="M33,46H30a3.854,3.854,0,0,0-3,2l-1,2h8.067Z" style="fill:#f9bb4b"/><polygon points="34.067 50 35.133 54 3 54 3 50 34.067 50" style="fill:#ad6327"/><path d="M45.617,53.98,44.125,50H61v4H45.621A.142.142,0,0,0,45.617,53.98Z" style="fill:#ad6327"/><rect x="26.938" y="6.5" width="4.123" height="2" transform="translate(-0.953 7.247) rotate(-14.016)"/><path d="M61,49H44.818l-.566-1.508,1.2-.6a1,1,0,0,0,.512-.631,1.017,1.017,0,0,0-.119-.807C45.821,45.427,44,42.422,44,33c0-10.3-3.158-13.573-3.293-13.707,0,0-.069-.064-.107-.093C37.215,16.661,37,15,37,15V7a5.006,5.006,0,0,0-5-5H27a5.006,5.006,0,0,0-5,5v.217a6.578,6.578,0,0,0-3.022,1.562A6.842,6.842,0,0,0,17,14a1,1,0,0,0,.6.917A.985.985,0,0,0,18,15a1.006,1.006,0,0,0,.685-.271,6.846,6.846,0,0,1,3.1-1.717l.212.106V16a11.725,11.725,0,0,1-1.833,5.446,1.817,1.817,0,0,0-.144.337c-.086.387-2.045,9.552,3.208,15.857,2.888,3.465,5.093,5.915,6.463,7.39a4.971,4.971,0,0,0-3.589,2.523L25.382,49H3a1,1,0,0,0-1,1v4a1,1,0,0,0,1,1H34.365l1.669,6.258A1,1,0,0,0,37,62h4a1,1,0,0,0,.948-1.316l-.78-2.342c1.079-.872,1.834-1.494,2.348-1.964A2.182,2.182,0,0,0,46.605,55H61a1,1,0,0,0,1-1V50A1,1,0,0,0,61,49ZM27,4h5a3,3,0,0,1,3,3v8c0,.333.135,1.821,2.3,4H34a1,1,0,0,0-.707.293L32,20.586l-1.293-1.293a1,1,0,0,0-1.414,0l-1.42,1.42-2.318-1.545a1,1,0,0,0-1-.063l-1.324.662A10.8,10.8,0,0,0,24,16V14h2a1,1,0,0,0,.929-1.372l-2-5A1,1,0,0,0,24.062,7L24,7A3,3,0,0,1,27,4Zm-7.658,7.8a3.933,3.933,0,0,1,.993-1.553,5.069,5.069,0,0,1,3-1.228L24.523,12h-.287l-1.789-.895A1,1,0,0,0,22,11,5.66,5.66,0,0,0,19.342,11.8ZM27.9,48.447A2.9,2.9,0,0,1,30,47h2.231l.534,2H27.618ZM4,53V51H33.3l.534,2Zm36.544,3.263-1.582-5.538-1.924.55L39.612,60H37.769l-3.8-14.258A1,1,0,0,0,33,45h-.579c-.86-.888-3.61-3.79-7.652-8.64-4.01-4.811-3.177-11.856-2.875-13.689l3.034-1.517,2.517,1.678a1,1,0,0,0,1.262-.125L30,21.414l.57.57c-4.247,4.7.347,13.126.562,13.512L42.2,54.86C41.805,55.209,41.2,55.724,40.544,56.263Zm4.032-1.669a.209.209,0,0,1-.276-.084L32.875,34.515c-.046-.083-4.529-8.311-.25-11.734L34.414,21h5.1C40.165,21.946,42,25.291,42,33c0,7.2,1.039,10.929,1.68,12.542l-.339.169C42.128,43.831,39,38.54,39,34H37c0,5.917,4.454,12.531,5.107,13.468l2.574,6.864A.21.21,0,0,1,44.576,54.594ZM60,53H46.318L46,52.151,45.568,51H60Z"/></g></svg>
