<svg height="512" viewBox="0 0 64 64" width="512" xmlns="http://www.w3.org/2000/svg"><g id="Filled_outline" data-name="Filled outline"><path d="m24.522 7.348 3.478-4.348h-5-4l-7 2v5l2 2-2 11v4l3-1 2 3 3-2 2 3 2-4 3 1 3-4z" fill="#eaeadc"/><path d="m12 5-6 2v6l3-3 3-1z" fill="#f9bb4b"/><path d="m17 29 3-2 2 3 2-4 3 1 3-4v26h-4l-5-6-5 6h-4v-22l3-1z" fill="#66342e"/><path d="m27 52-1-3h4l1 3 3 1v3l-1 5h-2l-1-5h-2l-1 5h-2l-1-5v-3z" fill="#f9bb4b"/><path d="m15 52 1-3h-4l-1 3-3 1v3l1 5h2l1-5h2l1 5h2l1-5v-3z" fill="#f9bb4b"/><path d="m12 23-9 7 9 18z" fill="#995f5b"/><path d="m30 23s5 3 11-7l11-4 9-9v2.78a4 4 0 0 1 -1 3.22l-5 6 6-2v2a2.762 2.762 0 0 1 -1.648 2.549l-4.352 1.451 6 2v.221a2.62 2.62 0 0 1 -3.023 2.347l-3.977-.568 4 5a2.888 2.888 0 0 1 -4 0l-3-2 1 7-.257.129a2.778 2.778 0 0 1 -3.743-1.129l-2-3v6a2.266 2.266 0 0 1 -3-1l-2-3-1 6a3.236 3.236 0 0 1 -2.894-1.789l-1.106-2.211s-1 1-6 1z" fill="#995f5b"/><path d="m14.938 6.5h4.123v2h-4.123z" transform="matrix(.97 -.243 .243 .97 -1.312 4.349)"/><path d="m25.293 32.293-1.42 1.42-2.318-1.545a1 1 0 0 0 -1.11 0l-2.318 1.545-1.42-1.42-1.414 1.414 2 2a1 1 0 0 0 1.262.125l2.445-1.632 2.445 1.63a1 1 0 0 0 1.262-.125l2-2z"/><path d="m61.383 2.076a1 1 0 0 0 -1.09.217l-8.843 8.843-10.792 3.924a1.006 1.006 0 0 0 -.515.425c-4.595 7.658-8.288 7.134-9.342 6.776l-5.153-14.721 3.133-3.915a1 1 0 0 0 -.781-1.625h-9a.983.983 0 0 0 -.275.039l-13.041 4.012a1 1 0 0 0 -.684.949v6a1 1 0 0 0 1.707.707l2.833-2.833 1.532-.511a1 1 0 0 0 .221.344l1.629 1.629-1.837 10.109-8.7 6.765a1 1 0 0 0 -.281 1.237l8.896 17.789v.6l-.791 2.372-2.525.842a1 1 0 0 0 -.684.95v3a.925.925 0 0 0 .02.2l1 5a1 1 0 0 0 .98.8h2a1 1 0 0 0 .98-.8l.84-4.2h.36l.84 4.2a1 1 0 0 0 .98.8h2a1 1 0 0 0 .98-.8l1-5a.925.925 0 0 0 .02-.2v-3a1 1 0 0 0 -.684-.949l-2.051-.683.624-1.873 4.111-4.933 4.111 4.938.624 1.873-2.051.683a1 1 0 0 0 -.684.944v3a.925.925 0 0 0 .02.2l1 5a1 1 0 0 0 .98.8h2a1 1 0 0 0 .98-.8l.84-4.2h.36l.84 4.2a1 1 0 0 0 .98.8h2a1 1 0 0 0 .98-.8l1-5a.925.925 0 0 0 .02-.2v-3a1 1 0 0 0 -.684-.949l-2.525-.842-.791-2.372v-13.851a15.513 15.513 0 0 0 4.549-.652l.662 1.324a4.212 4.212 0 0 0 3.789 2.342 1 1 0 0 0 .986-.835l.585-3.507.572.857a3.263 3.263 0 0 0 4.3 1.38 1 1 0 0 0 .557-.895v-2.7l.156.235a3.777 3.777 0 0 0 5.034 1.486l.258-.129a1 1 0 0 0 .542-1.036l-.684-4.789 1.069.712a3.862 3.862 0 0 0 5.332-.074 1 1 0 0 0 .074-1.332l-2.423-3.028 1.478.211a3.833 3.833 0 0 0 3.008-.906 3.2 3.2 0 0 0 1.156-2.429v-.221a1 1 0 0 0 -.684-.949l-3.154-1.051 1.506-.5a3.76 3.76 0 0 0 2.332-3.5v-2a1 1 0 0 0 -1.316-.949l-2.665.889 2.74-3.289a4.947 4.947 0 0 0 1.241-3.871v-2.78a1 1 0 0 0 -.617-.924zm-50.383 6.203-2.316.772a1.013 1.013 0 0 0 -.391.242l-1.293 1.293v-2.865l4-1.334zm2 14.811 1.984-10.911a1 1 0 0 0 -.277-.886l-1.707-1.707v-3.832l6.14-1.754h6.779l-2.178 2.723a1 1 0 0 0 -.163.955l5.3 15.149-2.248 3-2.316-.772a1 1 0 0 0 -1.211.5l-1.229 2.459-1.044-1.567a1 1 0 0 0 -1.387-.277l-2.168 1.445-1.445-2.168a1 1 0 0 0 -1.148-.394l-1.682.559zm-8.739 7.2 6.739-5.246v18.72zm12.739 23.431v2.179l-.82 4.1h-.36l-.84-4.2a1 1 0 0 0 -.98-.8h-2a1 1 0 0 0 -.98.8l-.84 4.2h-.36l-.82-4.1v-2.18l2.316-.772a1 1 0 0 0 .633-.633l.772-2.315h1.892l-.562 1.684a1 1 0 0 0 .633 1.265zm4.768-11.361a1.033 1.033 0 0 0 -1.536 0l-4.7 5.64h-2.532v-20.279l1.592-.531 1.576 2.365a1 1 0 0 0 1.387.277l2.168-1.445 1.445 2.168a1 1 0 0 0 1.727-.108l1.611-3.224 2.178.726a1 1 0 0 0 1.116-.349l1.2-1.6v22h-2.532zm11.232 11.361v2.179l-.82 4.1h-.36l-.84-4.2a1 1 0 0 0 -.98-.8h-2a1 1 0 0 0 -.98.8l-.84 4.2h-.36l-.82-4.1v-2.18l2.316-.772a1 1 0 0 0 .633-1.265l-.562-1.683h1.892l.772 2.316a1 1 0 0 0 .633.633zm27-47.941a3.057 3.057 0 0 1 -.768 2.58l-5 6a1 1 0 0 0 1.084 1.589l4.684-1.562v.613a1.782 1.782 0 0 1 -.964 1.6l-4.352 1.45a1 1 0 0 0 0 1.9l5.207 1.736a1.469 1.469 0 0 1 -.358.457 1.835 1.835 0 0 1 -1.414.437l-3.977-.569a1 1 0 0 0 -.923 1.615l3.3 4.125a2.335 2.335 0 0 1 -1.965-.582l-3-2a1 1 0 0 0 -1.545.974l.891 6.24a1.79 1.79 0 0 1 -2.069-.937l-2-3a1 1 0 0 0 -1.831.554v5.236a1.481 1.481 0 0 1 -1.168-.791l-2-3a1 1 0 0 0 -1.818.39l-.835 5.011a2.227 2.227 0 0 1 -1.179-1.082l-1.1-2.211a.99.99 0 0 0 -.7-.568 1.182 1.182 0 0 0 -.185-.015.9.9 0 0 0 -.652.268c-.009.007-.92.641-4.354.747v-8.63a6.248 6.248 0 0 0 2.493-.135c2.852-.713 5.6-3.2 8.179-7.4l10.67-3.879a.991.991 0 0 0 .365-.233l7.284-7.294z"/><path d="m46 16h6v2h-6z"/><path d="m45.5 16.692h2v7.616h-2z" transform="matrix(.394 -.919 .919 .394 9.34 55.165)"/><path d="m42 20.172h2v5.657h-2z" transform="matrix(.707 -.707 .707 .707 -3.669 37.142)"/><path d="m39 22.807h2.001v5.385h-2.001z" transform="matrix(.928 -.371 .371 .928 -6.61 16.679)"/><path d="m35.5 24.95h2v5.099h-2z" transform="matrix(.981 -.196 .196 .981 -4.684 7.692)"/></g></svg>