<svg height="512" viewBox="0 0 64 64" width="512" xmlns="http://www.w3.org/2000/svg"><g id="Filled_outline" data-name="Filled outline"><path d="m49 6-1 5 2 8-1 2 1 3h-2l-1 4-4-3-2 4-2-4-4 1 1-5h-3v-5l8-12 4-1z" fill="#eaeadc"/><path d="m49 6 6 3-1 5-2-3h-4z" fill="#f9bb4b"/><path d="m33 16v5h3l-1 5 4-1 2 4 2-4 4 3 1-4h2l2 7-5 9v10h-4l-2-5h-2l-1 7h-4l-1-9-3 9-.841 7.571a1.607 1.607 0 0 1 -1.597 1.429h-.787a1.606 1.606 0 0 1 -1.6-1.766l.825-8.234-5.9 8.431a1.606 1.606 0 0 1 -2.452.215l-.661-.661a1.607 1.607 0 0 1 -.149-2.1l5.162-6.885-8.731 4.366a1.608 1.608 0 0 1 -2.056-.546l-.278-.418a1.606 1.606 0 0 1 .51-2.269l8.555-5.133h-9.393a1.606 1.606 0 0 1 -1.607-1.607 1.607 1.607 0 0 1 1.379-1.59l12.621-1.803 6-19z" fill="#66342e"/><path d="m51 54-4-1v-3h-4v5l-.538 2.154.572 1.432 3.966-1.586 6 2z" fill="#f9bb4b"/><path d="m38 52v3l4 1 2 5-6-2-5 2 1-4v-5z" fill="#ffd782"/><path d="m39 25-2 11-10 10-4-5 6-19 4-6v5h3l-1 5z" fill="#995f5b"/><path d="m53.168 14.555a1 1 0 0 0 .832.445.989.989 0 0 0 .194-.019 1 1 0 0 0 .786-.785l1-5a1 1 0 0 0 -.533-1.091l-5.92-2.96-3.927-2.945a1 1 0 0 0 -.843-.17l-4 1a1 1 0 0 0 -.589.415l-12 18a1.026 1.026 0 0 0 -.122.254l-5.81 18.4-12 1.714a2.607 2.607 0 0 0 .37 5.187h5.784l-5.459 3.276a2.606 2.606 0 0 0 -.828 3.681l.278.417a2.611 2.611 0 0 0 3.335.886l4.942-2.471-2.622 3.5a2.619 2.619 0 0 0 .242 3.406l.661.661a2.606 2.606 0 0 0 3.978-.356l3.707-5.295-.442 4.425a2.606 2.606 0 0 0 2.593 2.87h.787a2.6 2.6 0 0 0 2.59-2.319l.83-7.465 1.527-4.58.491 4.417v4.824l-.97 3.88a1 1 0 0 0 1.342 1.172l4.659-1.865 5.653 1.885a1.014 1.014 0 0 0 .316.051 1 1 0 0 0 .929-1.372l-.594-1.485 2.7-1.079 5.653 1.885a1.014 1.014 0 0 0 .312.051 1 1 0 0 0 .929-1.372l-2-5a1 1 0 0 0 -.686-.6l-3.243-.809v-11.96l4.874-8.773a1 1 0 0 0 .087-.761l-2.881-9.648.815-1.63a1 1 0 0 0 .075-.69l-1.689-6.757h2.184zm-19.168 1.745 7.618-11.424 3.163-.791 3.119 2.337-.88 4.378a.986.986 0 0 0 .01.439l1.91 7.641-.835 1.669a1 1 0 0 0 -.054.763l.561 1.688h-.612a1 1 0 0 0 -.97.757l-.63 2.543-2.8-2.1a1 1 0 0 0 -1.5.353l-1.1 2.211-1.1-2.211a1 1 0 0 0 -1.138-.523l-2.466.616.689-3.45a1 1 0 0 0 -.985-1.196h-2zm-4.089 6.134 2.089-3.134v1.7a1 1 0 0 0 1 1h1.78l-.76 3.8a1 1 0 0 0 1.223 1.166l2.5-.624-1.667 9.168-8.993 8.99-.728-.91 6.525-12.116-1.76-.948-6.12 11.374-.883-1.1zm8.405 35.614a1.01 1.01 0 0 0 -.316-.048 1.02 1.02 0 0 0 -.372.071l-3.184 1.274.526-2.1a1 1 0 0 0 .03-.245v-4h2v2a1 1 0 0 0 .757.97l3.5.876 1.01 2.524zm.684-3.829v-2.149l.867-6.07h.456l1.677 4.193v4.684l-.022.087zm11.261.627 1.01 2.524-3.955-1.319a1.01 1.01 0 0 0 -.316-.051 1.02 1.02 0 0 0 -.372.071l-3.036 1.215-.082-.2.46-1.839a1 1 0 0 0 .03-.247v-4h2v2a1 1 0 0 0 .757.97zm.664-23.97-1.025 1.853-2.341-1.561a1 1 0 0 0 -1.387.277l-1.445 2.168-2.168-1.445-1.11 1.664 3 2a1 1 0 0 0 1.387-.277l1.445-2.168 1.644 1.1-2.8 5.031a1 1 0 0 0 -.125.482v9h-2.323l-1.748-4.372a1 1 0 0 0 -.929-.628h-2a1 1 0 0 0 -.99.858l-.877 6.142h-2.233l-.9-8.11a1 1 0 0 0 -1.943-.206l-3 9a1.008 1.008 0 0 0 -.045.206l-.841 7.57a.606.606 0 0 1 -.6.54h-.787a.607.607 0 0 1 -.6-.667l.816-8.233a1 1 0 0 0 -1.814-.673l-5.9 8.431a.6.6 0 0 1 -.444.256.584.584 0 0 1 -.482-.175l-.661-.661a.61.61 0 0 1 -.056-.793l5.157-6.885a1 1 0 0 0 -1.247-1.5l-8.732 4.366a.606.606 0 0 1 -.776-.206l-.278-.418a.606.606 0 0 1 .192-.856l8.556-5.134a1 1 0 0 0 -.515-1.852h-9.394a.607.607 0 0 1 -.085-1.208l12.055-1.721 3.643 4.554a1 1 0 0 0 .726.374h.055a1 1 0 0 0 .707-.293l10-10a1 1 0 0 0 .277-.528l1.463-8.049.658 1.317a1.042 1.042 0 0 0 1.79 0l1.463-2.928 3.042 2.282a1 1 0 0 0 1.57-.557l.811-3.243h.465zm-1.705-20.876.5-2.52 4.15 2.073-.377 1.884-.661-.992a1 1 0 0 0 -.832-.445z"/><path d="m43.5 6.919h2v3.162h-2z" transform="matrix(.316 -.949 .949 .316 22.364 48.028)"/></g></svg>