<?xml version="1.0" encoding="UTF-8"?>
<svg xmlns="http://www.w3.org/2000/svg" viewBox="0 0 64 64" width="512" height="512"><g id="Filled_outline" data-name="Filled outline"><path d="M28,59a13.834,13.834,0,0,0,7,2c4,0,9-5,9-10,0,0-6,5-10,5H29Z" style="fill:#eaeadc"/><path d="M57,35s11.083,11-5,20c0,0,6-11,1-14Z" style="fill:#eaeadc"/><path d="M44,26l3-13L53,3H38L35,7,32,18s-7.721.749-11,1c-3.3.253-6.063,3.062-7,7l-1,6L5,44v6l4,5c1.262,1.442,4,3,6,2h0c1.155,1.717,5.015,5.212,12,1l1,1,1-3h5l-5-6,5-20,14,5s-2,7,5,6l4-6Z" style="fill:#f9bb4b"/><path d="M57.569,34.178,45.127,25.563l2.812-12.184,5.918-9.864A1,1,0,0,0,53,2H38a1,1,0,0,0-.8.4l-3,4a1.008,1.008,0,0,0-.165.337L31.217,17.071c-1.965.189-7.634.728-10.293.932-3.742.286-6.842,3.335-7.91,7.833l-.965,5.788L4.168,43.445A1.006,1.006,0,0,0,4,44v6a1,1,0,0,0,.219.625l4.029,5.033c1.325,1.514,4.047,3.128,6.413,2.529A8.171,8.171,0,0,0,20.854,61a12.416,12.416,0,0,0,5.981-1.749s.554.546.61.583A14.774,14.774,0,0,0,35,62c5.151,0,10-6.2,10-11a1,1,0,0,0-1.64-.769c-1.515,1.263-5.922,4.438-8.916,4.739l-4.351-5.22L34.7,31.312,46.847,35.65c-.188,1.236-.28,3.439,1.035,4.948,1.035,1.185,2.66,1.659,4.826,1.437,3.021,2.271-.085,9.73-1.586,12.486a1,1,0,0,0,1.366,1.352c5.495-3.075,8.57-6.749,9.139-10.92.806-5.893-3.729-10.471-3.922-10.663C57.685,34.271,57.6,34.2,57.569,34.178ZM42.633,53.285C41.479,56.932,37.839,60,35,60a12.993,12.993,0,0,1-5.792-1.462L29.721,57H34C36.834,57,40.429,54.832,42.633,53.285Zm9.79-13.223a3.424,3.424,0,0,1-3.03-.776c-.968-1.1-.639-3.271-.432-4.012a1,1,0,0,0-.625-1.215l-2.95-1.054.563-1.689-1.9-.632L43.5,32.332l-1.739-.621L42.9,29.447l-1.79-.894-1.24,2.48-5.529-1.974a1,1,0,0,0-1.306.7L28.469,48H26v2h2a1,1,0,0,0,.231.641L31.865,55H29a1,1,0,0,0-.949.684l-.5,1.5,0,0,.008-.011a10.1,10.1,0,0,1-2.685-2.624l1.837-1.837-1.414-1.414-1.439,1.439a12.593,12.593,0,0,1-.869-2.9A11.477,11.477,0,0,1,23.114,47l4.129-1.032-.486-1.94-3.318.83c.164-.968.36-2.009.578-3.084l3.226-.806-.486-1.94-2.284.571c.266-1.223.544-2.441.82-3.6H29V34H25.78c.064-.255.128-.511.189-.753A.984.984,0,0,0,26,33c0-3.53.76-5.9,2.2-6.863a4.019,4.019,0,0,1,3.413-.216l.783-1.84a5.976,5.976,0,0,0-5.284.378c-2.044,1.348-3.089,4.178-3.11,8.415-.486,1.918-3.532,14.14-2.985,17.3a12.694,12.694,0,0,0,4.164,7.683c-4.5,2.2-7.206.75-8.5-.447l3.7-1.478-.744-1.858-4.3,1.722A13.353,13.353,0,0,1,12.4,49H17V47H12.451a5.5,5.5,0,0,1,.429-1.526l.719-1.335,4.2.841.392-1.96L14.59,42.3l1.6-2.97,2.256,1.5,1.11-1.664-2.413-1.609,1.274-2.366,2.268.755.632-1.9-1.938-.646.5-.932A1,1,0,0,0,20,32c0-5.318,1.155-7.088,1.844-7.669a1.236,1.236,0,0,1,.947-.353L23,23l.243-.97a3.108,3.108,0,0,0-2.571.677c-1.741,1.359-2.64,4.4-2.671,9.039L11.118,44.529c-.114.215-2.576,5.022,2.095,11.755a6.142,6.142,0,0,1-3.432-1.909L6.281,50H9V48H6V46H8V44H6.2l1.207-1.81,2.275.758.632-1.9-1.758-.586,1.534-2.3,1.461.731.894-1.79-1.237-.618,2.622-3.932a.99.99,0,0,0,.154-.391l.987-5.933c.837-3.513,3.289-6.018,6.1-6.234C24.328,19.748,32.019,19,32.1,19a1,1,0,0,0,.868-.732l.3-1.119,8.414,2.8.632-1.9L33.8,15.212l.817-3,6.111,1.746.55-1.924-6.134-1.753.774-2.838L38.5,4H51.234l-5.091,8.485a.989.989,0,0,0-.118.29l-3,13a1,1,0,0,0,.406,1.047l12.192,8.441ZM59.644,44.7c-.383,2.769-2.166,5.327-5.313,7.633,1.382-3.462,2.859-8.876.021-11.555l2.746-4.12C58.236,38.139,60.127,41.2,59.644,44.7Z"/></g></svg>
